%TF.GenerationSoftware,KiCad,Pcbnew,5.1.10-88a1d61d58~90~ubuntu20.04.1*%
%TF.CreationDate,2021-09-07T19:06:16-07:00*%
%TF.ProjectId,bkc40,626b6334-302e-46b6-9963-61645f706362,rev?*%
%TF.SameCoordinates,Original*%
%TF.FileFunction,Soldermask,Bot*%
%TF.FilePolarity,Negative*%
%FSLAX46Y46*%
G04 Gerber Fmt 4.6, Leading zero omitted, Abs format (unit mm)*
G04 Created by KiCad (PCBNEW 5.1.10-88a1d61d58~90~ubuntu20.04.1) date 2021-09-07 19:06:16*
%MOMM*%
%LPD*%
G01*
G04 APERTURE LIST*
%ADD10C,0.010000*%
%ADD11C,0.100000*%
%ADD12R,2.000000X2.000000*%
%ADD13C,2.000000*%
%ADD14R,2.000000X3.200000*%
%ADD15C,6.000000*%
%ADD16C,3.987800*%
%ADD17C,3.048000*%
%ADD18C,1.750000*%
%ADD19C,2.250000*%
%ADD20R,1.400000X1.200000*%
%ADD21O,1.000000X1.600000*%
%ADD22O,1.000000X2.100000*%
%ADD23C,0.650000*%
%ADD24R,0.300000X1.450000*%
%ADD25R,0.600000X1.450000*%
%ADD26O,1.700000X1.700000*%
%ADD27R,1.700000X1.700000*%
%ADD28R,1.400000X1.000000*%
%ADD29R,0.800000X0.900000*%
%ADD30R,1.200000X0.900000*%
G04 APERTURE END LIST*
D10*
%TO.C,G\u002A\u002A\u002A*%
G36*
X291035519Y-146745514D02*
G01*
X290951059Y-146823527D01*
X290901941Y-146939497D01*
X290893500Y-147020551D01*
X290918608Y-147149043D01*
X290991628Y-147236995D01*
X291109108Y-147281198D01*
X291179250Y-147285944D01*
X291279511Y-147277246D01*
X291345725Y-147245168D01*
X291393563Y-147194159D01*
X291453076Y-147096571D01*
X291457634Y-147018901D01*
X291421564Y-146963599D01*
X291377921Y-146899264D01*
X291353785Y-146842269D01*
X291317787Y-146766789D01*
X291258683Y-146728855D01*
X291157970Y-146717357D01*
X291145534Y-146717236D01*
X291035519Y-146745514D01*
G37*
X291035519Y-146745514D02*
X290951059Y-146823527D01*
X290901941Y-146939497D01*
X290893500Y-147020551D01*
X290918608Y-147149043D01*
X290991628Y-147236995D01*
X291109108Y-147281198D01*
X291179250Y-147285944D01*
X291279511Y-147277246D01*
X291345725Y-147245168D01*
X291393563Y-147194159D01*
X291453076Y-147096571D01*
X291457634Y-147018901D01*
X291421564Y-146963599D01*
X291377921Y-146899264D01*
X291353785Y-146842269D01*
X291317787Y-146766789D01*
X291258683Y-146728855D01*
X291157970Y-146717357D01*
X291145534Y-146717236D01*
X291035519Y-146745514D01*
G36*
X289780764Y-146857936D02*
G01*
X289711145Y-146906514D01*
X289678435Y-146998509D01*
X289673365Y-147098913D01*
X289683284Y-147205631D01*
X289716860Y-147279614D01*
X289765314Y-147332110D01*
X289881435Y-147400114D01*
X290012499Y-147414282D01*
X290138938Y-147373784D01*
X290174844Y-147349445D01*
X290242101Y-147269363D01*
X290252491Y-147176182D01*
X290205619Y-147064997D01*
X290145250Y-146981957D01*
X290073723Y-146901245D01*
X290015239Y-146859912D01*
X289946645Y-146845165D01*
X289895137Y-146843750D01*
X289780764Y-146857936D01*
G37*
X289780764Y-146857936D02*
X289711145Y-146906514D01*
X289678435Y-146998509D01*
X289673365Y-147098913D01*
X289683284Y-147205631D01*
X289716860Y-147279614D01*
X289765314Y-147332110D01*
X289881435Y-147400114D01*
X290012499Y-147414282D01*
X290138938Y-147373784D01*
X290174844Y-147349445D01*
X290242101Y-147269363D01*
X290252491Y-147176182D01*
X290205619Y-147064997D01*
X290145250Y-146981957D01*
X290073723Y-146901245D01*
X290015239Y-146859912D01*
X289946645Y-146845165D01*
X289895137Y-146843750D01*
X289780764Y-146857936D01*
G36*
X284249445Y-145099858D02*
G01*
X284164145Y-145115262D01*
X284119139Y-145145705D01*
X284118272Y-145147721D01*
X284093636Y-145272948D01*
X284123051Y-145368671D01*
X284202659Y-145428893D01*
X284311226Y-145447759D01*
X284401467Y-145465140D01*
X284462256Y-145495384D01*
X284541365Y-145531145D01*
X284612220Y-145542000D01*
X284694644Y-145556307D01*
X284810184Y-145593765D01*
X284936733Y-145646172D01*
X285051500Y-145704931D01*
X285118441Y-145739485D01*
X285173018Y-145764473D01*
X285234517Y-145798174D01*
X285328066Y-145857489D01*
X285434643Y-145930296D01*
X285446925Y-145939022D01*
X285589952Y-146027286D01*
X285713392Y-146076396D01*
X285808535Y-146083762D01*
X285855834Y-146060583D01*
X285882343Y-145996360D01*
X285852991Y-145910911D01*
X285766933Y-145802599D01*
X285678151Y-145717341D01*
X285577195Y-145629637D01*
X285486415Y-145555324D01*
X285421975Y-145507518D01*
X285411541Y-145501054D01*
X285259702Y-145417520D01*
X285129261Y-145350701D01*
X285030952Y-145305817D01*
X284975509Y-145288089D01*
X284973404Y-145288000D01*
X284920124Y-145265711D01*
X284892750Y-145240375D01*
X284836117Y-145208075D01*
X284749799Y-145191977D01*
X284738050Y-145191624D01*
X284635507Y-145178002D01*
X284546168Y-145146614D01*
X284543500Y-145145125D01*
X284459483Y-145114665D01*
X284354678Y-145099617D01*
X284249445Y-145099858D01*
G37*
X284249445Y-145099858D02*
X284164145Y-145115262D01*
X284119139Y-145145705D01*
X284118272Y-145147721D01*
X284093636Y-145272948D01*
X284123051Y-145368671D01*
X284202659Y-145428893D01*
X284311226Y-145447759D01*
X284401467Y-145465140D01*
X284462256Y-145495384D01*
X284541365Y-145531145D01*
X284612220Y-145542000D01*
X284694644Y-145556307D01*
X284810184Y-145593765D01*
X284936733Y-145646172D01*
X285051500Y-145704931D01*
X285118441Y-145739485D01*
X285173018Y-145764473D01*
X285234517Y-145798174D01*
X285328066Y-145857489D01*
X285434643Y-145930296D01*
X285446925Y-145939022D01*
X285589952Y-146027286D01*
X285713392Y-146076396D01*
X285808535Y-146083762D01*
X285855834Y-146060583D01*
X285882343Y-145996360D01*
X285852991Y-145910911D01*
X285766933Y-145802599D01*
X285678151Y-145717341D01*
X285577195Y-145629637D01*
X285486415Y-145555324D01*
X285421975Y-145507518D01*
X285411541Y-145501054D01*
X285259702Y-145417520D01*
X285129261Y-145350701D01*
X285030952Y-145305817D01*
X284975509Y-145288089D01*
X284973404Y-145288000D01*
X284920124Y-145265711D01*
X284892750Y-145240375D01*
X284836117Y-145208075D01*
X284749799Y-145191977D01*
X284738050Y-145191624D01*
X284635507Y-145178002D01*
X284546168Y-145146614D01*
X284543500Y-145145125D01*
X284459483Y-145114665D01*
X284354678Y-145099617D01*
X284249445Y-145099858D01*
G36*
X287666691Y-144527640D02*
G01*
X287566418Y-144541312D01*
X287501855Y-144568027D01*
X287496250Y-144573625D01*
X287446277Y-144614259D01*
X287420925Y-144622242D01*
X287359827Y-144639844D01*
X287259963Y-144685743D01*
X287135167Y-144752664D01*
X286999276Y-144833333D01*
X286909021Y-144891378D01*
X286755307Y-145006316D01*
X286587870Y-145152476D01*
X286419205Y-145316893D01*
X286261806Y-145486606D01*
X286128169Y-145648652D01*
X286030788Y-145790069D01*
X286014003Y-145819871D01*
X285971154Y-145930897D01*
X285945824Y-146058227D01*
X285939407Y-146181799D01*
X285953297Y-146281552D01*
X285978600Y-146329400D01*
X286054445Y-146365869D01*
X286143443Y-146347726D01*
X286232187Y-146278033D01*
X286239303Y-146269813D01*
X286292989Y-146189681D01*
X286321374Y-146115583D01*
X286322642Y-146103126D01*
X286343516Y-146031428D01*
X286392335Y-145953785D01*
X286394080Y-145951719D01*
X286448500Y-145887714D01*
X286528220Y-145793705D01*
X286617555Y-145688191D01*
X286632930Y-145670015D01*
X286742897Y-145549365D01*
X286868684Y-145425204D01*
X286982180Y-145325154D01*
X287072516Y-145251615D01*
X287142255Y-145193417D01*
X287177600Y-145162090D01*
X287178750Y-145160833D01*
X287213048Y-145135928D01*
X287285132Y-145091109D01*
X287353375Y-145051099D01*
X287442419Y-144997674D01*
X287506862Y-144954556D01*
X287528319Y-144936078D01*
X287568138Y-144911608D01*
X287634390Y-144889476D01*
X287745797Y-144851146D01*
X287854567Y-144796865D01*
X287943220Y-144737209D01*
X287994275Y-144682754D01*
X287999766Y-144668426D01*
X287985743Y-144604246D01*
X287954010Y-144567786D01*
X287883263Y-144540586D01*
X287779899Y-144527301D01*
X287666691Y-144527640D01*
G37*
X287666691Y-144527640D02*
X287566418Y-144541312D01*
X287501855Y-144568027D01*
X287496250Y-144573625D01*
X287446277Y-144614259D01*
X287420925Y-144622242D01*
X287359827Y-144639844D01*
X287259963Y-144685743D01*
X287135167Y-144752664D01*
X286999276Y-144833333D01*
X286909021Y-144891378D01*
X286755307Y-145006316D01*
X286587870Y-145152476D01*
X286419205Y-145316893D01*
X286261806Y-145486606D01*
X286128169Y-145648652D01*
X286030788Y-145790069D01*
X286014003Y-145819871D01*
X285971154Y-145930897D01*
X285945824Y-146058227D01*
X285939407Y-146181799D01*
X285953297Y-146281552D01*
X285978600Y-146329400D01*
X286054445Y-146365869D01*
X286143443Y-146347726D01*
X286232187Y-146278033D01*
X286239303Y-146269813D01*
X286292989Y-146189681D01*
X286321374Y-146115583D01*
X286322642Y-146103126D01*
X286343516Y-146031428D01*
X286392335Y-145953785D01*
X286394080Y-145951719D01*
X286448500Y-145887714D01*
X286528220Y-145793705D01*
X286617555Y-145688191D01*
X286632930Y-145670015D01*
X286742897Y-145549365D01*
X286868684Y-145425204D01*
X286982180Y-145325154D01*
X287072516Y-145251615D01*
X287142255Y-145193417D01*
X287177600Y-145162090D01*
X287178750Y-145160833D01*
X287213048Y-145135928D01*
X287285132Y-145091109D01*
X287353375Y-145051099D01*
X287442419Y-144997674D01*
X287506862Y-144954556D01*
X287528319Y-144936078D01*
X287568138Y-144911608D01*
X287634390Y-144889476D01*
X287745797Y-144851146D01*
X287854567Y-144796865D01*
X287943220Y-144737209D01*
X287994275Y-144682754D01*
X287999766Y-144668426D01*
X287985743Y-144604246D01*
X287954010Y-144567786D01*
X287883263Y-144540586D01*
X287779899Y-144527301D01*
X287666691Y-144527640D01*
G36*
X283155710Y-146417493D02*
G01*
X283073372Y-146465857D01*
X283014454Y-146544671D01*
X283002041Y-146582214D01*
X282971910Y-146678107D01*
X282938037Y-146753398D01*
X282910216Y-146836969D01*
X282893992Y-146947704D01*
X282892305Y-146991523D01*
X282882324Y-147104632D01*
X282857470Y-147206510D01*
X282845318Y-147235086D01*
X282817013Y-147314972D01*
X282791568Y-147430149D01*
X282777629Y-147528773D01*
X282765028Y-147633029D01*
X282752474Y-147706554D01*
X282743154Y-147732750D01*
X282682088Y-147707632D01*
X282593393Y-147631246D01*
X282475388Y-147502042D01*
X282416309Y-147431196D01*
X282286650Y-147286883D01*
X282178770Y-147196826D01*
X282094380Y-147161431D01*
X282035188Y-147181103D01*
X282002904Y-147256249D01*
X281997150Y-147331752D01*
X282023566Y-147456891D01*
X282095673Y-147597838D01*
X282202762Y-147741227D01*
X282334124Y-147873690D01*
X282479048Y-147981862D01*
X282549103Y-148020656D01*
X282651957Y-148071624D01*
X282745599Y-148119335D01*
X282770399Y-148132358D01*
X282883300Y-148172908D01*
X282973149Y-148157406D01*
X283049711Y-148084161D01*
X283049806Y-148084028D01*
X283084159Y-148021467D01*
X283108128Y-147937859D01*
X283124886Y-147818256D01*
X283135698Y-147679216D01*
X283147546Y-147538241D01*
X283163314Y-147415981D01*
X283180482Y-147329923D01*
X283189735Y-147304125D01*
X283210019Y-147241030D01*
X283229716Y-147137278D01*
X283244242Y-147018375D01*
X283260481Y-146889756D01*
X283283203Y-146772812D01*
X283305459Y-146698536D01*
X283330185Y-146590087D01*
X283315874Y-146493522D01*
X283266853Y-146427649D01*
X283240122Y-146414608D01*
X283155710Y-146417493D01*
G37*
X283155710Y-146417493D02*
X283073372Y-146465857D01*
X283014454Y-146544671D01*
X283002041Y-146582214D01*
X282971910Y-146678107D01*
X282938037Y-146753398D01*
X282910216Y-146836969D01*
X282893992Y-146947704D01*
X282892305Y-146991523D01*
X282882324Y-147104632D01*
X282857470Y-147206510D01*
X282845318Y-147235086D01*
X282817013Y-147314972D01*
X282791568Y-147430149D01*
X282777629Y-147528773D01*
X282765028Y-147633029D01*
X282752474Y-147706554D01*
X282743154Y-147732750D01*
X282682088Y-147707632D01*
X282593393Y-147631246D01*
X282475388Y-147502042D01*
X282416309Y-147431196D01*
X282286650Y-147286883D01*
X282178770Y-147196826D01*
X282094380Y-147161431D01*
X282035188Y-147181103D01*
X282002904Y-147256249D01*
X281997150Y-147331752D01*
X282023566Y-147456891D01*
X282095673Y-147597838D01*
X282202762Y-147741227D01*
X282334124Y-147873690D01*
X282479048Y-147981862D01*
X282549103Y-148020656D01*
X282651957Y-148071624D01*
X282745599Y-148119335D01*
X282770399Y-148132358D01*
X282883300Y-148172908D01*
X282973149Y-148157406D01*
X283049711Y-148084161D01*
X283049806Y-148084028D01*
X283084159Y-148021467D01*
X283108128Y-147937859D01*
X283124886Y-147818256D01*
X283135698Y-147679216D01*
X283147546Y-147538241D01*
X283163314Y-147415981D01*
X283180482Y-147329923D01*
X283189735Y-147304125D01*
X283210019Y-147241030D01*
X283229716Y-147137278D01*
X283244242Y-147018375D01*
X283260481Y-146889756D01*
X283283203Y-146772812D01*
X283305459Y-146698536D01*
X283330185Y-146590087D01*
X283315874Y-146493522D01*
X283266853Y-146427649D01*
X283240122Y-146414608D01*
X283155710Y-146417493D01*
G36*
X286884149Y-141259126D02*
G01*
X286733731Y-141271306D01*
X286611053Y-141292784D01*
X286575500Y-141303375D01*
X286466080Y-141330063D01*
X286330393Y-141347345D01*
X286245198Y-141351000D01*
X286122167Y-141358260D01*
X286025005Y-141377493D01*
X285987253Y-141394120D01*
X285914743Y-141428261D01*
X285817045Y-141456679D01*
X285799247Y-141460243D01*
X285700459Y-141486675D01*
X285619406Y-141521983D01*
X285609620Y-141528248D01*
X285537365Y-141563889D01*
X285490751Y-141573250D01*
X285433791Y-141588695D01*
X285348851Y-141626507D01*
X285260830Y-141673897D01*
X285194630Y-141718075D01*
X285178500Y-141733618D01*
X285141411Y-141762227D01*
X285080481Y-141798536D01*
X284961947Y-141868916D01*
X284831916Y-141955481D01*
X284709199Y-142044813D01*
X284612608Y-142123496D01*
X284577654Y-142157137D01*
X284537879Y-142195627D01*
X284495251Y-142219901D01*
X284434720Y-142233216D01*
X284341234Y-142238830D01*
X284199744Y-142239999D01*
X284194784Y-142239999D01*
X284026550Y-142243753D01*
X283912087Y-142255802D01*
X283842066Y-142277330D01*
X283827256Y-142286615D01*
X283747334Y-142323276D01*
X283680187Y-142334240D01*
X283609717Y-142345832D01*
X283574828Y-142367481D01*
X283534559Y-142402122D01*
X283462803Y-142443751D01*
X283453892Y-142448107D01*
X283355818Y-142496511D01*
X283248603Y-142551348D01*
X283235563Y-142558177D01*
X283153608Y-142613239D01*
X283045148Y-142702681D01*
X282921317Y-142815387D01*
X282793253Y-142940238D01*
X282672090Y-143066120D01*
X282568965Y-143181914D01*
X282495013Y-143276505D01*
X282465269Y-143327143D01*
X282427531Y-143405431D01*
X282394397Y-143454915D01*
X282388581Y-143459853D01*
X282363986Y-143500397D01*
X282341562Y-143576273D01*
X282339288Y-143587683D01*
X282310507Y-143693300D01*
X282272384Y-143786471D01*
X282243912Y-143883113D01*
X282228534Y-144035431D01*
X282225946Y-144149112D01*
X282225751Y-144423100D01*
X282074938Y-144543585D01*
X281979337Y-144624277D01*
X281893916Y-144703623D01*
X281853689Y-144745847D01*
X281790631Y-144817829D01*
X281738650Y-144875250D01*
X281690515Y-144947111D01*
X281673844Y-144986375D01*
X281640676Y-145049138D01*
X281581931Y-145129883D01*
X281558696Y-145157364D01*
X281500589Y-145234794D01*
X281467033Y-145302053D01*
X281463750Y-145320164D01*
X281440873Y-145387885D01*
X281420463Y-145411400D01*
X281392464Y-145461680D01*
X281367749Y-145551472D01*
X281357211Y-145617191D01*
X281335074Y-145743034D01*
X281302077Y-145865670D01*
X281285868Y-145910023D01*
X281251150Y-146041708D01*
X281253686Y-146196259D01*
X281254148Y-146200244D01*
X281263248Y-146297619D01*
X281258360Y-146347651D01*
X281235681Y-146365672D01*
X281212674Y-146367500D01*
X281155699Y-146349601D01*
X281138352Y-146327812D01*
X281106049Y-146307379D01*
X281021664Y-146292189D01*
X280880794Y-146281632D01*
X280773700Y-146277461D01*
X280590864Y-146275579D01*
X280448322Y-146286534D01*
X280325537Y-146316130D01*
X280201973Y-146370171D01*
X280057092Y-146454458D01*
X279984743Y-146500405D01*
X279883012Y-146578672D01*
X279780797Y-146678363D01*
X279690121Y-146785056D01*
X279623007Y-146884328D01*
X279591478Y-146961759D01*
X279590500Y-146973320D01*
X279567707Y-147037542D01*
X279542875Y-147065999D01*
X279503212Y-147128934D01*
X279495055Y-147173075D01*
X279479426Y-147247520D01*
X279441971Y-147333657D01*
X279440720Y-147335875D01*
X279408833Y-147426666D01*
X279389172Y-147552780D01*
X279381765Y-147695358D01*
X279386636Y-147835540D01*
X279403811Y-147954467D01*
X279433314Y-148033281D01*
X279439772Y-148041571D01*
X279483374Y-148120783D01*
X279495250Y-148183799D01*
X279512935Y-148261291D01*
X279542875Y-148304250D01*
X279583230Y-148358470D01*
X279590500Y-148387823D01*
X279612777Y-148440333D01*
X279654000Y-148486241D01*
X279701678Y-148535964D01*
X279717500Y-148566689D01*
X279741704Y-148616998D01*
X279805556Y-148691419D01*
X279895914Y-148778770D01*
X279999637Y-148867869D01*
X280103587Y-148947534D01*
X280194621Y-149006583D01*
X280259599Y-149033833D01*
X280267250Y-149034500D01*
X280317749Y-149048610D01*
X280396928Y-149083853D01*
X280424293Y-149098000D01*
X280479896Y-149123719D01*
X280542501Y-149141445D01*
X280624699Y-149152555D01*
X280739081Y-149158424D01*
X280898239Y-149160430D01*
X280995323Y-149160422D01*
X281184314Y-149158685D01*
X281322609Y-149153597D01*
X281422984Y-149143781D01*
X281498212Y-149127863D01*
X281561068Y-149104466D01*
X281574875Y-149098000D01*
X281658683Y-149060296D01*
X281719254Y-149038026D01*
X281731539Y-149035577D01*
X281797198Y-149016623D01*
X281890799Y-148971367D01*
X281990083Y-148912391D01*
X282072791Y-148852278D01*
X282099014Y-148827844D01*
X282191184Y-148761782D01*
X282283805Y-148759216D01*
X282376709Y-148820145D01*
X282385964Y-148829682D01*
X282459299Y-148895247D01*
X282568876Y-148979020D01*
X282696479Y-149068542D01*
X282823892Y-149151358D01*
X282932900Y-149215011D01*
X282987750Y-149241203D01*
X283045336Y-149267475D01*
X283129244Y-149309525D01*
X283152791Y-149321823D01*
X283242119Y-149361420D01*
X283317718Y-149382625D01*
X283331466Y-149383750D01*
X283403134Y-149406877D01*
X283432250Y-149431375D01*
X283492687Y-149468317D01*
X283555201Y-149480077D01*
X283636645Y-149494640D01*
X283737128Y-149529608D01*
X283765625Y-149542500D01*
X283878883Y-149582885D01*
X283997524Y-149604796D01*
X284019625Y-149605932D01*
X284118088Y-149618791D01*
X284197912Y-149647814D01*
X284208256Y-149654634D01*
X284283050Y-149683987D01*
X284413068Y-149698929D01*
X284516709Y-149701250D01*
X284671633Y-149708636D01*
X284817599Y-149728287D01*
X284910844Y-149751263D01*
X285026336Y-149778840D01*
X285176103Y-149792489D01*
X285373834Y-149793413D01*
X285387267Y-149793096D01*
X285716378Y-149784915D01*
X285827157Y-149929999D01*
X285913718Y-150032529D01*
X286016005Y-150137528D01*
X286121664Y-150234126D01*
X286218340Y-150311452D01*
X286293678Y-150358638D01*
X286325005Y-150368000D01*
X286389777Y-150390741D01*
X286413208Y-150411356D01*
X286464799Y-150441574D01*
X286553118Y-150467368D01*
X286596455Y-150474898D01*
X286694989Y-150494851D01*
X286770758Y-150521485D01*
X286788930Y-150532605D01*
X286843128Y-150551900D01*
X286942548Y-150566867D01*
X287069010Y-150576678D01*
X287204332Y-150580509D01*
X287330335Y-150577533D01*
X287428836Y-150566924D01*
X287448625Y-150562575D01*
X287542874Y-150531598D01*
X287613226Y-150500513D01*
X287694213Y-150474218D01*
X287791705Y-150463250D01*
X287791901Y-150463250D01*
X287877842Y-150450163D01*
X287938277Y-150418384D01*
X287940750Y-150415625D01*
X287999880Y-150375032D01*
X288033430Y-150368000D01*
X288101851Y-150344216D01*
X288195022Y-150281046D01*
X288300762Y-150190759D01*
X288406893Y-150085626D01*
X288501234Y-149977918D01*
X288571605Y-149879905D01*
X288605828Y-149803857D01*
X288607309Y-149789848D01*
X288619314Y-149739365D01*
X288650338Y-149653811D01*
X288677236Y-149589475D01*
X288720727Y-149497582D01*
X288758741Y-149449738D01*
X288809468Y-149431064D01*
X288875865Y-149427022D01*
X288986803Y-149419248D01*
X289089009Y-149404244D01*
X289099625Y-149401932D01*
X289185741Y-149382615D01*
X288303644Y-149382615D01*
X288285413Y-149486637D01*
X288273649Y-149533574D01*
X288199443Y-149724205D01*
X288089129Y-149879871D01*
X287951841Y-149987922D01*
X287941835Y-149993182D01*
X287862734Y-150037742D01*
X287807219Y-150076406D01*
X287802805Y-150080495D01*
X287750395Y-150103422D01*
X287666938Y-150114885D01*
X287656588Y-150115125D01*
X287554449Y-150129060D01*
X287465485Y-150161066D01*
X287464500Y-150161625D01*
X287371177Y-150191635D01*
X287240212Y-150205551D01*
X287095390Y-150203373D01*
X286960498Y-150185101D01*
X286882023Y-150161625D01*
X286784165Y-150129641D01*
X286695178Y-150114245D01*
X286686283Y-150114000D01*
X286611766Y-150092548D01*
X286512260Y-150035688D01*
X286400892Y-149954664D01*
X286290787Y-149860721D01*
X286195074Y-149765101D01*
X286126877Y-149679050D01*
X286099326Y-149613812D01*
X286099250Y-149611163D01*
X286087010Y-149566458D01*
X286055976Y-149487308D01*
X286036448Y-149442779D01*
X285981554Y-149252131D01*
X285988399Y-149063126D01*
X286035750Y-148923375D01*
X286074419Y-148828259D01*
X286096377Y-148745175D01*
X286098173Y-148726286D01*
X286120384Y-148674634D01*
X286177418Y-148596077D01*
X286256426Y-148504190D01*
X286344562Y-148412542D01*
X286428978Y-148334706D01*
X286496826Y-148284255D01*
X286527734Y-148272500D01*
X286579987Y-148250259D01*
X286607250Y-148224875D01*
X286661023Y-148199044D01*
X286759048Y-148182960D01*
X286882829Y-148176622D01*
X287013871Y-148180030D01*
X287133678Y-148193184D01*
X287223754Y-148216084D01*
X287242250Y-148224875D01*
X287325171Y-148259514D01*
X287388142Y-148271374D01*
X287459409Y-148294852D01*
X287512125Y-148336000D01*
X287564992Y-148383372D01*
X287599351Y-148399500D01*
X287647171Y-148420920D01*
X287726350Y-148477981D01*
X287824939Y-148559885D01*
X287930988Y-148655830D01*
X288032549Y-148755019D01*
X288117672Y-148846652D01*
X288173339Y-148918263D01*
X288214941Y-149001434D01*
X288256889Y-149114427D01*
X288276123Y-149179922D01*
X288300468Y-149291787D01*
X288303644Y-149382615D01*
X289185741Y-149382615D01*
X289194172Y-149380724D01*
X289265510Y-149365545D01*
X289331440Y-149328098D01*
X289379898Y-149267688D01*
X289418507Y-149215060D01*
X289446074Y-149220467D01*
X289491668Y-149247538D01*
X289554407Y-149256750D01*
X289638091Y-149271865D01*
X289737065Y-149309295D01*
X289758793Y-149320250D01*
X289809426Y-149344031D01*
X289866052Y-149361036D01*
X289939840Y-149372336D01*
X290041958Y-149379003D01*
X290183578Y-149382109D01*
X290375869Y-149382727D01*
X290409198Y-149382672D01*
X290612567Y-149381368D01*
X290763768Y-149377687D01*
X290874120Y-149370556D01*
X290954942Y-149358902D01*
X291017552Y-149341655D01*
X291068125Y-149320250D01*
X291157945Y-149282028D01*
X291230514Y-149259915D01*
X291246800Y-149257827D01*
X291309784Y-149234100D01*
X291338000Y-149209125D01*
X291389648Y-149168900D01*
X291416697Y-149161500D01*
X291461801Y-149143379D01*
X291537294Y-149096600D01*
X291601405Y-149050375D01*
X291685337Y-148989980D01*
X291750686Y-148949621D01*
X291776850Y-148939250D01*
X291817262Y-148916969D01*
X291886234Y-148858496D01*
X291971629Y-148776381D01*
X292061311Y-148683176D01*
X292143143Y-148591433D01*
X292204987Y-148513703D01*
X292232974Y-148467534D01*
X292266538Y-148383625D01*
X292303295Y-148469404D01*
X292347906Y-148547873D01*
X292409468Y-148627444D01*
X292471923Y-148689869D01*
X292519208Y-148716901D01*
X292521215Y-148717000D01*
X292564396Y-148735010D01*
X292628586Y-148778543D01*
X292631087Y-148780500D01*
X292704638Y-148825479D01*
X292767145Y-148844000D01*
X292834879Y-148866878D01*
X292858413Y-148887302D01*
X292919621Y-148921620D01*
X293030114Y-148947412D01*
X293176252Y-148964672D01*
X293344395Y-148973393D01*
X293520903Y-148973570D01*
X293692134Y-148965197D01*
X293844449Y-148948268D01*
X293964207Y-148922777D01*
X294037768Y-148888718D01*
X294038834Y-148887811D01*
X294105504Y-148850550D01*
X294187617Y-148824939D01*
X294261969Y-148798323D01*
X294303330Y-148761737D01*
X294303599Y-148761062D01*
X294345710Y-148723735D01*
X294379593Y-148717000D01*
X294434555Y-148694985D01*
X294517730Y-148636981D01*
X294615815Y-148555046D01*
X294715507Y-148461238D01*
X294803504Y-148367616D01*
X294866502Y-148286239D01*
X294879843Y-148263542D01*
X294947502Y-148083735D01*
X294988011Y-147869737D01*
X294996371Y-147682186D01*
X294621615Y-147682186D01*
X294620778Y-147832552D01*
X294614871Y-147935832D01*
X294600980Y-148008400D01*
X294576188Y-148066635D01*
X294544144Y-148117424D01*
X294465511Y-148206573D01*
X294352856Y-148304491D01*
X294227795Y-148394809D01*
X294111943Y-148461157D01*
X294065650Y-148479779D01*
X293988520Y-148516422D01*
X293948651Y-148546563D01*
X293896983Y-148566655D01*
X293797470Y-148581206D01*
X293664697Y-148590278D01*
X293513252Y-148593936D01*
X293357719Y-148592244D01*
X293212685Y-148585265D01*
X293092734Y-148573063D01*
X293012454Y-148555701D01*
X292989000Y-148542375D01*
X292937353Y-148502150D01*
X292910304Y-148494750D01*
X292865375Y-148476624D01*
X292789759Y-148429748D01*
X292722790Y-148381482D01*
X292620443Y-148314827D01*
X292517567Y-148265770D01*
X292464224Y-148250328D01*
X292386895Y-148232998D01*
X292359378Y-148203895D01*
X292375058Y-148146502D01*
X292401430Y-148093566D01*
X292427277Y-148006655D01*
X292443272Y-147877287D01*
X292449273Y-147725758D01*
X292448217Y-147686546D01*
X292100000Y-147686546D01*
X292091559Y-147891962D01*
X292061518Y-148056966D01*
X292002801Y-148202963D01*
X291908329Y-148351359D01*
X291858649Y-148416558D01*
X291753260Y-148526134D01*
X291609738Y-148642258D01*
X291441956Y-148756831D01*
X291263788Y-148861754D01*
X291089107Y-148948929D01*
X290931787Y-149010258D01*
X290805700Y-149037643D01*
X290793608Y-149038256D01*
X290681240Y-149046659D01*
X290578015Y-149062701D01*
X290560125Y-149066922D01*
X290470170Y-149080686D01*
X290401375Y-149077905D01*
X290339379Y-149068594D01*
X290235508Y-149057100D01*
X290111229Y-149045778D01*
X290099750Y-149044845D01*
X289961250Y-149026795D01*
X289840956Y-149000103D01*
X289125804Y-149000103D01*
X289049215Y-149063870D01*
X288952836Y-149114368D01*
X288840866Y-149131139D01*
X288736003Y-149114452D01*
X288660948Y-149064579D01*
X288656926Y-149059185D01*
X288618802Y-148979755D01*
X288607500Y-148920198D01*
X288588069Y-148847623D01*
X288562991Y-148814835D01*
X288519727Y-148755222D01*
X288499970Y-148704142D01*
X288471165Y-148655505D01*
X288408774Y-148580274D01*
X288325350Y-148490893D01*
X288233445Y-148399806D01*
X288145610Y-148319457D01*
X288074398Y-148262291D01*
X288032566Y-148240750D01*
X288003939Y-148225015D01*
X288016992Y-148191985D01*
X288062948Y-148162918D01*
X288064972Y-148162256D01*
X288117236Y-148130415D01*
X288195052Y-148065798D01*
X288278473Y-147985492D01*
X288360686Y-147906423D01*
X288429984Y-147849889D01*
X288471500Y-147828002D01*
X288471752Y-147828000D01*
X288509194Y-147807156D01*
X288512250Y-147794376D01*
X288531702Y-147775413D01*
X288544000Y-147780375D01*
X288559922Y-147819810D01*
X288571315Y-147904504D01*
X288575749Y-148016247D01*
X288575750Y-148018066D01*
X288580316Y-148145688D01*
X288598927Y-148247957D01*
X288638958Y-148353448D01*
X288687933Y-148452755D01*
X288746856Y-148561362D01*
X288799379Y-148649132D01*
X288835380Y-148699293D01*
X288838746Y-148702552D01*
X288881092Y-148743221D01*
X288949017Y-148812626D01*
X289001590Y-148867916D01*
X289125804Y-149000103D01*
X289840956Y-149000103D01*
X289832555Y-148998239D01*
X289743828Y-148966606D01*
X289657122Y-148928941D01*
X289587727Y-148908640D01*
X289575604Y-148907500D01*
X289531565Y-148885507D01*
X289457830Y-148827391D01*
X289366273Y-148744946D01*
X289268768Y-148649966D01*
X289177190Y-148554247D01*
X289103412Y-148469581D01*
X289059310Y-148407763D01*
X289052000Y-148387429D01*
X289031025Y-148328393D01*
X289001774Y-148290308D01*
X288968330Y-148223412D01*
X288943696Y-148108028D01*
X288927851Y-147958555D01*
X288920778Y-147789390D01*
X288922455Y-147614929D01*
X288932864Y-147449568D01*
X288951986Y-147307706D01*
X288979800Y-147203739D01*
X289003294Y-147162445D01*
X289042850Y-147095497D01*
X289052000Y-147053069D01*
X289073437Y-147012139D01*
X289132523Y-146936084D01*
X289221420Y-146834089D01*
X289332292Y-146715339D01*
X289395294Y-146650757D01*
X289738588Y-146304000D01*
X289897226Y-146304000D01*
X290008583Y-146294401D01*
X290096213Y-146269624D01*
X290117495Y-146257384D01*
X290177227Y-146236034D01*
X290282852Y-146220309D01*
X290419831Y-146210223D01*
X290573623Y-146205792D01*
X290729688Y-146207031D01*
X290873485Y-146213956D01*
X290990474Y-146226580D01*
X291066116Y-146244921D01*
X291084001Y-146256375D01*
X291144755Y-146293371D01*
X291204287Y-146304000D01*
X291247387Y-146306504D01*
X291286867Y-146319253D01*
X291333687Y-146350101D01*
X291398805Y-146406900D01*
X291493179Y-146497503D01*
X291544375Y-146547722D01*
X291680024Y-146684927D01*
X291778489Y-146795509D01*
X291851022Y-146893910D01*
X291908872Y-146994573D01*
X291935742Y-147050125D01*
X291986633Y-147157634D01*
X292034627Y-147254831D01*
X292054553Y-147293148D01*
X292081685Y-147383823D01*
X292096642Y-147533628D01*
X292100000Y-147686546D01*
X292448217Y-147686546D01*
X292445141Y-147572363D01*
X292430736Y-147437398D01*
X292406608Y-147342792D01*
X292371549Y-147240109D01*
X292342686Y-147125337D01*
X292340421Y-147113625D01*
X292313470Y-147018031D01*
X292276801Y-146943242D01*
X292268829Y-146933063D01*
X292239728Y-146872427D01*
X292258308Y-146828147D01*
X292315565Y-146819579D01*
X292321004Y-146820873D01*
X292389098Y-146817096D01*
X292452358Y-146793014D01*
X292538403Y-146763000D01*
X292639323Y-146749640D01*
X292640623Y-146749625D01*
X292739696Y-146734312D01*
X292823375Y-146698925D01*
X292824887Y-146697883D01*
X292895514Y-146672240D01*
X293012890Y-146653971D01*
X293160818Y-146643122D01*
X293323102Y-146639741D01*
X293483545Y-146643872D01*
X293625949Y-146655561D01*
X293734118Y-146674856D01*
X293784221Y-146695156D01*
X293872153Y-146735569D01*
X293946987Y-146748500D01*
X294020089Y-146761913D01*
X294058985Y-146788481D01*
X294099845Y-146829688D01*
X294172378Y-146885774D01*
X294204156Y-146907544D01*
X294285386Y-146973618D01*
X294382310Y-147070203D01*
X294472128Y-147174186D01*
X294620318Y-147361747D01*
X294621615Y-147682186D01*
X294996371Y-147682186D01*
X294997973Y-147646248D01*
X294985113Y-147498453D01*
X294964460Y-147379537D01*
X294942757Y-147281844D01*
X294924571Y-147225833D01*
X294923982Y-147224750D01*
X294893816Y-147168297D01*
X294849341Y-147081977D01*
X294829961Y-147043694D01*
X294781606Y-146968149D01*
X294705813Y-146872142D01*
X294613742Y-146767369D01*
X294516553Y-146665523D01*
X294425405Y-146578300D01*
X294351458Y-146517394D01*
X294305879Y-146494500D01*
X294254427Y-146472297D01*
X294227251Y-146446875D01*
X294167456Y-146411026D01*
X294100251Y-146399250D01*
X294021130Y-146383205D01*
X293973948Y-146352465D01*
X293917857Y-146316397D01*
X293831664Y-146289701D01*
X293819248Y-146287530D01*
X293720794Y-146270633D01*
X293595437Y-146247221D01*
X293520813Y-146232516D01*
X293338251Y-146195651D01*
X293338248Y-146194648D01*
X292978360Y-146194648D01*
X292972531Y-146244836D01*
X292956637Y-146266762D01*
X292928739Y-146272122D01*
X292916242Y-146272250D01*
X292843195Y-146287038D01*
X292750360Y-146323759D01*
X292726708Y-146335750D01*
X292640401Y-146375853D01*
X292570784Y-146397827D01*
X292557452Y-146399250D01*
X292495798Y-146413326D01*
X292413940Y-146447594D01*
X292406524Y-146451385D01*
X292324703Y-146493352D01*
X292261725Y-146524611D01*
X292258750Y-146526025D01*
X292219392Y-146571972D01*
X292201079Y-146632639D01*
X292186811Y-146696134D01*
X292161332Y-146709053D01*
X292119079Y-146669225D01*
X292055284Y-146575743D01*
X291975346Y-146463554D01*
X291881656Y-146351130D01*
X291850515Y-146318167D01*
X291748672Y-146226117D01*
X291629526Y-146134372D01*
X291507836Y-146052591D01*
X291398362Y-145990433D01*
X291315865Y-145957558D01*
X291295195Y-145954750D01*
X291212277Y-145936525D01*
X291162503Y-145911013D01*
X291111952Y-145892337D01*
X291014888Y-145876305D01*
X290866586Y-145862426D01*
X290662320Y-145850210D01*
X290512711Y-145843546D01*
X290305024Y-145834709D01*
X290151587Y-145826550D01*
X290043184Y-145817755D01*
X289970596Y-145807010D01*
X289924606Y-145793000D01*
X289895995Y-145774410D01*
X289877711Y-145752990D01*
X289834140Y-145680692D01*
X289814000Y-145634016D01*
X289779150Y-145571757D01*
X289705363Y-145474670D01*
X289600344Y-145351018D01*
X289471798Y-145209063D01*
X289327431Y-145057068D01*
X289174948Y-144903294D01*
X289022054Y-144756004D01*
X288876455Y-144623460D01*
X288850387Y-144600743D01*
X288776070Y-144531097D01*
X288730866Y-144477900D01*
X288724245Y-144453715D01*
X288770096Y-144444193D01*
X288852847Y-144439133D01*
X288883251Y-144438864D01*
X288995025Y-144424986D01*
X289068082Y-144387454D01*
X289128458Y-144345826D01*
X289166510Y-144335500D01*
X289227996Y-144319489D01*
X289283305Y-144291621D01*
X289353224Y-144264078D01*
X289459314Y-144239340D01*
X289542034Y-144227156D01*
X289651792Y-144209743D01*
X289739617Y-144186138D01*
X289777020Y-144167848D01*
X289824283Y-144151773D01*
X289925303Y-144138835D01*
X290082841Y-144128828D01*
X290299657Y-144121545D01*
X290434880Y-144118798D01*
X290655044Y-144115856D01*
X290821306Y-144115856D01*
X290943218Y-144119347D01*
X291030333Y-144126881D01*
X291092204Y-144139009D01*
X291138384Y-144156281D01*
X291145352Y-144159763D01*
X291229726Y-144189528D01*
X291349305Y-144215307D01*
X291457958Y-144229420D01*
X291578933Y-144245351D01*
X291682855Y-144268690D01*
X291741696Y-144291642D01*
X291818998Y-144325845D01*
X291871775Y-144335500D01*
X291938236Y-144355482D01*
X292004750Y-144399000D01*
X292069730Y-144444561D01*
X292118749Y-144462500D01*
X292163213Y-144485023D01*
X292236653Y-144544738D01*
X292327630Y-144629860D01*
X292424702Y-144728603D01*
X292516428Y-144829184D01*
X292591369Y-144919816D01*
X292638082Y-144988716D01*
X292645494Y-145005079D01*
X292675582Y-145069811D01*
X292703368Y-145097485D01*
X292703834Y-145097500D01*
X292728269Y-145124801D01*
X292750371Y-145190453D01*
X292750394Y-145190556D01*
X292780038Y-145270942D01*
X292816416Y-145321443D01*
X292851186Y-145380233D01*
X292862000Y-145443573D01*
X292878332Y-145533435D01*
X292904940Y-145590497D01*
X292926538Y-145650804D01*
X292946687Y-145758523D01*
X292962682Y-145897579D01*
X292967589Y-145962687D01*
X292976066Y-146104497D01*
X292978360Y-146194648D01*
X293338248Y-146194648D01*
X293337493Y-145956138D01*
X293331635Y-145786922D01*
X293312285Y-145634909D01*
X293275045Y-145483690D01*
X293215514Y-145316858D01*
X293129291Y-145118005D01*
X293090201Y-145034000D01*
X293015975Y-144891183D01*
X292928159Y-144743390D01*
X292845451Y-144622041D01*
X292843558Y-144619548D01*
X292757232Y-144516339D01*
X292657881Y-144412763D01*
X292557855Y-144320010D01*
X292469503Y-144249270D01*
X292405174Y-144211733D01*
X292389922Y-144208500D01*
X292345865Y-144184842D01*
X292331766Y-144167034D01*
X292281937Y-144121601D01*
X292194840Y-144069362D01*
X292093974Y-144021943D01*
X292002836Y-143990968D01*
X291964085Y-143985124D01*
X291883038Y-143968446D01*
X291814250Y-143938625D01*
X291727720Y-143907417D01*
X291623557Y-143892334D01*
X291614370Y-143892125D01*
X291500198Y-143867095D01*
X291466875Y-143844825D01*
X291077241Y-143844825D01*
X291077092Y-143844992D01*
X291038721Y-143846590D01*
X290962012Y-143829643D01*
X290911276Y-143813906D01*
X290814175Y-143792784D01*
X290672358Y-143776976D01*
X290500111Y-143766537D01*
X290311721Y-143761524D01*
X290121472Y-143761992D01*
X289943652Y-143767998D01*
X289792544Y-143779598D01*
X289682437Y-143796849D01*
X289644174Y-143808924D01*
X289552030Y-143838315D01*
X289433108Y-143861353D01*
X289377116Y-143867794D01*
X289268345Y-143885781D01*
X289180731Y-143915912D01*
X289152366Y-143933995D01*
X289084852Y-143975319D01*
X289038560Y-143986250D01*
X288970870Y-144011056D01*
X288887719Y-144074259D01*
X288804998Y-144159035D01*
X288738596Y-144248558D01*
X288704404Y-144326004D01*
X288702750Y-144341806D01*
X288690439Y-144413200D01*
X288653762Y-144425968D01*
X288599088Y-144386051D01*
X288516452Y-144335217D01*
X288404195Y-144302257D01*
X288293536Y-144294231D01*
X288239673Y-144304777D01*
X288180053Y-144347928D01*
X288163001Y-144426430D01*
X288163000Y-144426876D01*
X288171580Y-144483485D01*
X288205104Y-144534107D01*
X288275255Y-144592418D01*
X288345563Y-144640614D01*
X288484143Y-144743490D01*
X288658919Y-144891988D01*
X288866003Y-145082483D01*
X289101502Y-145311353D01*
X289361527Y-145574971D01*
X289473558Y-145691456D01*
X289688740Y-145916729D01*
X289590988Y-145991302D01*
X289405073Y-146140026D01*
X289228822Y-146293799D01*
X289073286Y-146442141D01*
X288949516Y-146574573D01*
X288875541Y-146669794D01*
X288812055Y-146761798D01*
X288759656Y-146831230D01*
X288731375Y-146861556D01*
X288708832Y-146903871D01*
X288702750Y-146952861D01*
X288683302Y-147028253D01*
X288655125Y-147066000D01*
X288614747Y-147115931D01*
X288607014Y-147141325D01*
X288590735Y-147198905D01*
X288579578Y-147219644D01*
X288552537Y-147233349D01*
X288504570Y-147209041D01*
X288426405Y-147141684D01*
X288413377Y-147129345D01*
X288312103Y-147039009D01*
X288187829Y-146936769D01*
X288083625Y-146856846D01*
X287983499Y-146782634D01*
X287899070Y-146718630D01*
X287847544Y-146677892D01*
X287845500Y-146676151D01*
X287792316Y-146640090D01*
X287703622Y-146588932D01*
X287623250Y-146546437D01*
X287510704Y-146487232D01*
X287406116Y-146428859D01*
X287353375Y-146397215D01*
X287262885Y-146345243D01*
X287178884Y-146305158D01*
X287178750Y-146305105D01*
X287090444Y-146265853D01*
X287009490Y-146225258D01*
X286929161Y-146190833D01*
X286865742Y-146177000D01*
X286799767Y-146159471D01*
X286740825Y-146127231D01*
X286645248Y-146087704D01*
X286561569Y-146098654D01*
X286503620Y-146150729D01*
X286485231Y-146234577D01*
X286497345Y-146291855D01*
X286554984Y-146377081D01*
X286658307Y-146458459D01*
X286766000Y-146512831D01*
X286847742Y-146549594D01*
X286960917Y-146605330D01*
X287081650Y-146667817D01*
X287186065Y-146724832D01*
X287226375Y-146748500D01*
X287308190Y-146795780D01*
X287418044Y-146855619D01*
X287496250Y-146896544D01*
X287613364Y-146963880D01*
X287748659Y-147052279D01*
X287865625Y-147137175D01*
X287960751Y-147208818D01*
X288036756Y-147262083D01*
X288079824Y-147287386D01*
X288083400Y-147288250D01*
X288127818Y-147311095D01*
X288185773Y-147364635D01*
X288236118Y-147426376D01*
X288257702Y-147473644D01*
X288236596Y-147516708D01*
X288181116Y-147586215D01*
X288114843Y-147655539D01*
X287991445Y-147795462D01*
X287928154Y-147916832D01*
X287925161Y-148019278D01*
X287926116Y-148022409D01*
X287935340Y-148089482D01*
X287904816Y-148110705D01*
X287832971Y-148086163D01*
X287742507Y-148032200D01*
X287641188Y-147973602D01*
X287548548Y-147933647D01*
X287496975Y-147922240D01*
X287408256Y-147902751D01*
X287355245Y-147874615D01*
X287284906Y-147846332D01*
X287162795Y-147831224D01*
X287035875Y-147828000D01*
X286871622Y-147833958D01*
X286763665Y-147852431D01*
X286716506Y-147874615D01*
X286648065Y-147903064D01*
X286547789Y-147920150D01*
X286503737Y-147922240D01*
X286399156Y-147931802D01*
X286304998Y-147965509D01*
X286194280Y-148033268D01*
X286186237Y-148038830D01*
X286044874Y-148143301D01*
X285935938Y-148236529D01*
X285867199Y-148311268D01*
X285846132Y-148355924D01*
X285823276Y-148404651D01*
X285798466Y-148430552D01*
X285760540Y-148487372D01*
X285732451Y-148572120D01*
X285731432Y-148577315D01*
X285711500Y-148656339D01*
X285683018Y-148679236D01*
X285631364Y-148653090D01*
X285608995Y-148636615D01*
X285529849Y-148605951D01*
X285400301Y-148591088D01*
X285346061Y-148590000D01*
X285233089Y-148586429D01*
X285161843Y-148568697D01*
X285126588Y-148526272D01*
X285121588Y-148448624D01*
X285141107Y-148325222D01*
X285157940Y-148244604D01*
X285183469Y-148113022D01*
X285202095Y-147992647D01*
X285210164Y-147907464D01*
X285210250Y-147901320D01*
X285229622Y-147801158D01*
X285283988Y-147664995D01*
X285367721Y-147505640D01*
X285426000Y-147410021D01*
X285539108Y-147238399D01*
X285644741Y-147087782D01*
X285734210Y-146970203D01*
X285789162Y-146907141D01*
X285860944Y-146825574D01*
X285919157Y-146746906D01*
X285952533Y-146683631D01*
X285947086Y-146635946D01*
X285922320Y-146596093D01*
X285869639Y-146542182D01*
X285808186Y-146532085D01*
X285723844Y-146566257D01*
X285662057Y-146604432D01*
X285508272Y-146718088D01*
X285383396Y-146842336D01*
X285265229Y-146999934D01*
X285242000Y-147035070D01*
X285186926Y-147111720D01*
X285146750Y-147160255D01*
X285090737Y-147237497D01*
X285026626Y-147349678D01*
X284963011Y-147478412D01*
X284908487Y-147605315D01*
X284871647Y-147711998D01*
X284860657Y-147772310D01*
X284850933Y-147865664D01*
X284826767Y-147981793D01*
X284813032Y-148031483D01*
X284784897Y-148142054D01*
X284767968Y-148242988D01*
X284765750Y-148277546D01*
X284764738Y-148316929D01*
X284755494Y-148344634D01*
X284728712Y-148362388D01*
X284675085Y-148371918D01*
X284585305Y-148374949D01*
X284450065Y-148373208D01*
X284273921Y-148368783D01*
X284097178Y-148361274D01*
X283969813Y-148348107D01*
X283877804Y-148327191D01*
X283814016Y-148300215D01*
X283729201Y-148261525D01*
X283660661Y-148241511D01*
X283650921Y-148240750D01*
X283587622Y-148217998D01*
X283559250Y-148193125D01*
X283490694Y-148148720D01*
X283416207Y-148155318D01*
X283351213Y-148204118D01*
X283311131Y-148286322D01*
X283305250Y-148338068D01*
X283318824Y-148407580D01*
X283368020Y-148471012D01*
X283437014Y-148526300D01*
X283526632Y-148581972D01*
X283606585Y-148616367D01*
X283636325Y-148621750D01*
X283713500Y-148639751D01*
X283776412Y-148672559D01*
X283812113Y-148691282D01*
X283863520Y-148704326D01*
X283940334Y-148712309D01*
X284052255Y-148715851D01*
X284208984Y-148715572D01*
X284401395Y-148712466D01*
X284604268Y-148709109D01*
X284752933Y-148708670D01*
X284856644Y-148711794D01*
X284924651Y-148719131D01*
X284966208Y-148731326D01*
X284990566Y-148749027D01*
X284994732Y-148753975D01*
X285072193Y-148817531D01*
X285189048Y-148874694D01*
X285321244Y-148916480D01*
X285444726Y-148933906D01*
X285474565Y-148933188D01*
X285607125Y-148923375D01*
X285616554Y-149158528D01*
X285618928Y-149279559D01*
X285616376Y-149378796D01*
X285609462Y-149436398D01*
X285608587Y-149439015D01*
X285590635Y-149458565D01*
X285548205Y-149469551D01*
X285470757Y-149472615D01*
X285347749Y-149468396D01*
X285234033Y-149461779D01*
X285080907Y-149448764D01*
X284943630Y-149431053D01*
X284839248Y-149411194D01*
X284791140Y-149395604D01*
X284713301Y-149372463D01*
X284597593Y-149356757D01*
X284488642Y-149352000D01*
X284348586Y-149344827D01*
X284245875Y-149324984D01*
X284209253Y-149308319D01*
X284141797Y-149278664D01*
X284040255Y-149252114D01*
X283981535Y-149242059D01*
X283880197Y-149220977D01*
X283803195Y-149191998D01*
X283779210Y-149174615D01*
X283717609Y-149136414D01*
X283679324Y-149129750D01*
X283605143Y-149115226D01*
X283532399Y-149085703D01*
X283439543Y-149039800D01*
X283368750Y-149007521D01*
X283234107Y-148940367D01*
X283064624Y-148841485D01*
X282874426Y-148719583D01*
X282677636Y-148583366D01*
X282659622Y-148570367D01*
X282535036Y-148485798D01*
X282416707Y-148415334D01*
X282321350Y-148368465D01*
X282280925Y-148355386D01*
X282222718Y-148349113D01*
X282168893Y-148359364D01*
X282104658Y-148392971D01*
X282015225Y-148456769D01*
X281946420Y-148509955D01*
X281839682Y-148588590D01*
X281745844Y-148648970D01*
X281679789Y-148681857D01*
X281664036Y-148685250D01*
X281599923Y-148699767D01*
X281512396Y-148735898D01*
X281487208Y-148748750D01*
X281422026Y-148777903D01*
X281346855Y-148796776D01*
X281246534Y-148807390D01*
X281105901Y-148811767D01*
X281010958Y-148812250D01*
X280843131Y-148810335D01*
X280723564Y-148803243D01*
X280637097Y-148788952D01*
X280568568Y-148765441D01*
X280534708Y-148748750D01*
X280449872Y-148708775D01*
X280383196Y-148686745D01*
X280370561Y-148685250D01*
X280326216Y-148663341D01*
X280254849Y-148606756D01*
X280170343Y-148529202D01*
X280086580Y-148444389D01*
X280017439Y-148366024D01*
X279976804Y-148307816D01*
X279971500Y-148291162D01*
X279952124Y-148239622D01*
X279908000Y-148177250D01*
X279861259Y-148102545D01*
X279843375Y-148037454D01*
X279826830Y-147959738D01*
X279796875Y-147891500D01*
X279766319Y-147805070D01*
X279752267Y-147696840D01*
X279754948Y-147590123D01*
X279774585Y-147508232D01*
X279792913Y-147482038D01*
X279825806Y-147428824D01*
X279852502Y-147342437D01*
X279856789Y-147319400D01*
X279875849Y-147240236D01*
X279898878Y-147196216D01*
X279905853Y-147193000D01*
X279932937Y-147165822D01*
X279954668Y-147105687D01*
X279988013Y-147015614D01*
X280050157Y-146934985D01*
X280151772Y-146852901D01*
X280282937Y-146770446D01*
X280391968Y-146709814D01*
X280478361Y-146674660D01*
X280568311Y-146658137D01*
X280688016Y-146653398D01*
X280731314Y-146653250D01*
X280874237Y-146657359D01*
X280964966Y-146670886D01*
X281014349Y-146695622D01*
X281019250Y-146700875D01*
X281078380Y-146741467D01*
X281111930Y-146748500D01*
X281178108Y-146767047D01*
X281227105Y-146796125D01*
X281414466Y-146934760D01*
X281564283Y-147032987D01*
X281684194Y-147095019D01*
X281781836Y-147125066D01*
X281831474Y-147129500D01*
X281878397Y-147106330D01*
X281890997Y-147045134D01*
X281873457Y-146958382D01*
X281829957Y-146858543D01*
X281764677Y-146758087D01*
X281681798Y-146669483D01*
X281675406Y-146664013D01*
X281568313Y-146573875D01*
X281593815Y-146319625D01*
X281612500Y-146180831D01*
X281638106Y-146050800D01*
X281665452Y-145955322D01*
X281668533Y-145947582D01*
X281702118Y-145833607D01*
X281717628Y-145714726D01*
X281717750Y-145705657D01*
X281729987Y-145610044D01*
X281761216Y-145545860D01*
X281765375Y-145541999D01*
X281805600Y-145490352D01*
X281813001Y-145463303D01*
X281831121Y-145418199D01*
X281877900Y-145342706D01*
X281924126Y-145278595D01*
X281984450Y-145195491D01*
X282024893Y-145131931D01*
X282035455Y-145107342D01*
X282054781Y-145071470D01*
X282104887Y-145003789D01*
X282164926Y-144930812D01*
X282240465Y-144847217D01*
X282298473Y-144802135D01*
X282360435Y-144783981D01*
X282442533Y-144781125D01*
X282551424Y-144791609D01*
X282646437Y-144816538D01*
X282670250Y-144827625D01*
X282759094Y-144860353D01*
X282860750Y-144875202D01*
X282962219Y-144891095D01*
X283074347Y-144927733D01*
X283098875Y-144938750D01*
X283194769Y-144977482D01*
X283279395Y-144999416D01*
X283298599Y-145001172D01*
X283376181Y-145021273D01*
X283459647Y-145069212D01*
X283527681Y-145129443D01*
X283558964Y-145186421D01*
X283559250Y-145191253D01*
X283545017Y-145250710D01*
X283509857Y-145333873D01*
X283500598Y-145351970D01*
X283455280Y-145469817D01*
X283426558Y-145608639D01*
X283417258Y-145744474D01*
X283430207Y-145853358D01*
X283438675Y-145876795D01*
X283493102Y-145942025D01*
X283565253Y-145950219D01*
X283647013Y-145902347D01*
X283698357Y-145845743D01*
X283750998Y-145759076D01*
X283779712Y-145677472D01*
X283781500Y-145659131D01*
X283799084Y-145583408D01*
X283827085Y-145543693D01*
X283867412Y-145485735D01*
X283892625Y-145414999D01*
X283922426Y-145335257D01*
X283958166Y-145286306D01*
X283997016Y-145224117D01*
X284003750Y-145185889D01*
X284030569Y-145126728D01*
X284064315Y-145107467D01*
X284124605Y-145069411D01*
X284144197Y-145039002D01*
X284179072Y-144967308D01*
X284236871Y-144868961D01*
X284303647Y-144765719D01*
X284365451Y-144679341D01*
X284401813Y-144637125D01*
X284438314Y-144596423D01*
X284499151Y-144522587D01*
X284559369Y-144446625D01*
X284644935Y-144343100D01*
X284733263Y-144246368D01*
X284812517Y-144168375D01*
X284870861Y-144121066D01*
X284890531Y-144112390D01*
X284921535Y-144092267D01*
X284985345Y-144040363D01*
X285067375Y-143968598D01*
X285182581Y-143873744D01*
X285311571Y-143780463D01*
X285392142Y-143729386D01*
X285483695Y-143673314D01*
X285551366Y-143626351D01*
X285576578Y-143603303D01*
X285620487Y-143577750D01*
X285652737Y-143573500D01*
X285722302Y-143550515D01*
X285747415Y-143528990D01*
X285805121Y-143487972D01*
X285870365Y-143463136D01*
X285975815Y-143417014D01*
X286051803Y-143346276D01*
X286091738Y-143264534D01*
X286089029Y-143185397D01*
X286037086Y-143122474D01*
X286035750Y-143121631D01*
X286009805Y-143088737D01*
X285735192Y-143088737D01*
X285712181Y-143137576D01*
X285654729Y-143182959D01*
X285576121Y-143210329D01*
X285491088Y-143236476D01*
X285432361Y-143272276D01*
X285429744Y-143275196D01*
X285380195Y-143313558D01*
X285357175Y-143319713D01*
X285308120Y-143337874D01*
X285221658Y-143386365D01*
X285110613Y-143456669D01*
X284987808Y-143540270D01*
X284866067Y-143628648D01*
X284758213Y-143713288D01*
X284734113Y-143733558D01*
X284571471Y-143879057D01*
X284412356Y-144032613D01*
X284265700Y-144184589D01*
X284140434Y-144325345D01*
X284045489Y-144445244D01*
X283989796Y-144534647D01*
X283987875Y-144538882D01*
X283946442Y-144611461D01*
X283885789Y-144694772D01*
X283820040Y-144771970D01*
X283763321Y-144826213D01*
X283733875Y-144841760D01*
X283685859Y-144823972D01*
X283640495Y-144794865D01*
X283570371Y-144757817D01*
X283525320Y-144748250D01*
X283460741Y-144725439D01*
X283432250Y-144700625D01*
X283371955Y-144664176D01*
X283308830Y-144653000D01*
X283226601Y-144637929D01*
X283128454Y-144600597D01*
X283106458Y-144589500D01*
X282977046Y-144543051D01*
X282837053Y-144525513D01*
X282723389Y-144520670D01*
X282651394Y-144499249D01*
X282611826Y-144449585D01*
X282595437Y-144360011D01*
X282592984Y-144218861D01*
X282592995Y-144217538D01*
X282603110Y-144038802D01*
X282630664Y-143914208D01*
X282648362Y-143875125D01*
X282684661Y-143802303D01*
X282701639Y-143752720D01*
X282701805Y-143750211D01*
X282725700Y-143670005D01*
X282790500Y-143560571D01*
X282887105Y-143431823D01*
X283006418Y-143293674D01*
X283139340Y-143156039D01*
X283276774Y-143028830D01*
X283409621Y-142921962D01*
X283528783Y-142845348D01*
X283535438Y-142841858D01*
X283619523Y-142794835D01*
X283674270Y-142757304D01*
X283686250Y-142742907D01*
X283714207Y-142724946D01*
X283783987Y-142705832D01*
X283811423Y-142700683D01*
X283901378Y-142676205D01*
X283965920Y-142642332D01*
X283974060Y-142634393D01*
X284029172Y-142603736D01*
X284114638Y-142588239D01*
X284126701Y-142587856D01*
X284235299Y-142575515D01*
X284351751Y-142547039D01*
X284367846Y-142541597D01*
X284449117Y-142519103D01*
X284502528Y-142516264D01*
X284510721Y-142520854D01*
X284564731Y-142567834D01*
X284652894Y-142619698D01*
X284748584Y-142662944D01*
X284825173Y-142684072D01*
X284833468Y-142684500D01*
X284910102Y-142699397D01*
X285005029Y-142736357D01*
X285028043Y-142748000D01*
X285121779Y-142788739D01*
X285206198Y-142810416D01*
X285222123Y-142811500D01*
X285298079Y-142830434D01*
X285337250Y-142859125D01*
X285397221Y-142899756D01*
X285431467Y-142906750D01*
X285492960Y-142928915D01*
X285543625Y-142970250D01*
X285605686Y-143018316D01*
X285654380Y-143033750D01*
X285717885Y-143049707D01*
X285735192Y-143088737D01*
X286009805Y-143088737D01*
X285983560Y-143055465D01*
X285972250Y-142995699D01*
X285948337Y-142924354D01*
X285886191Y-142832836D01*
X285800203Y-142735772D01*
X285704762Y-142647784D01*
X285614259Y-142583497D01*
X285543085Y-142557534D01*
X285541055Y-142557500D01*
X285491247Y-142535374D01*
X285464250Y-142509874D01*
X285403958Y-142473431D01*
X285340805Y-142462250D01*
X285263925Y-142448427D01*
X285172053Y-142414183D01*
X285088328Y-142370352D01*
X285035886Y-142327768D01*
X285029598Y-142316513D01*
X285048759Y-142283946D01*
X285108928Y-142235448D01*
X285193831Y-142182488D01*
X285281688Y-142138870D01*
X285328294Y-142103901D01*
X285337250Y-142082273D01*
X285362623Y-142052467D01*
X285380594Y-142049499D01*
X285434475Y-142031073D01*
X285503786Y-141986688D01*
X285504664Y-141985999D01*
X285580843Y-141940802D01*
X285647933Y-141922499D01*
X285720347Y-141899589D01*
X285750000Y-141874875D01*
X285808194Y-141840950D01*
X285889699Y-141827250D01*
X285987103Y-141810605D01*
X286063251Y-141775853D01*
X286140487Y-141745068D01*
X286278454Y-141717454D01*
X286474438Y-141693532D01*
X286506878Y-141690459D01*
X286856984Y-141666685D01*
X287165715Y-141662965D01*
X287428328Y-141678997D01*
X287640081Y-141714478D01*
X287796235Y-141769106D01*
X287804236Y-141773253D01*
X287880909Y-141809325D01*
X287935557Y-141826913D01*
X287939998Y-141827250D01*
X287982669Y-141845088D01*
X288054193Y-141890173D01*
X288137602Y-141949861D01*
X288215925Y-142011507D01*
X288272191Y-142062468D01*
X288290000Y-142088027D01*
X288260522Y-142098624D01*
X288181154Y-142106989D01*
X288065494Y-142112027D01*
X287979968Y-142113000D01*
X287819881Y-142115798D01*
X287706020Y-142125882D01*
X287621291Y-142145786D01*
X287551458Y-142176500D01*
X287464070Y-142216697D01*
X287392293Y-142238630D01*
X287378488Y-142239999D01*
X287324100Y-142255129D01*
X287221547Y-142298307D01*
X287077877Y-142366217D01*
X286900137Y-142455542D01*
X286719188Y-142550267D01*
X286659452Y-142591504D01*
X286572191Y-142662862D01*
X286475043Y-142749823D01*
X286463223Y-142760936D01*
X286368830Y-142855004D01*
X286316999Y-142921119D01*
X286300232Y-142970398D01*
X286304024Y-142996954D01*
X286308649Y-143069294D01*
X286293677Y-143165003D01*
X286287822Y-143186415D01*
X286270923Y-143301831D01*
X286291818Y-143390639D01*
X286345966Y-143440276D01*
X286381836Y-143446500D01*
X286447057Y-143465370D01*
X286520664Y-143510000D01*
X286583233Y-143554027D01*
X286623896Y-143573452D01*
X286624863Y-143573500D01*
X286660546Y-143592115D01*
X286727568Y-143640049D01*
X286783949Y-143684625D01*
X286864677Y-143746246D01*
X286928141Y-143786598D01*
X286952272Y-143795750D01*
X286986593Y-143816518D01*
X287056422Y-143873173D01*
X287151832Y-143957238D01*
X287262899Y-144060236D01*
X287271073Y-144068002D01*
X287403509Y-144190535D01*
X287500769Y-144271496D01*
X287570340Y-144316348D01*
X287619704Y-144330554D01*
X287629895Y-144329940D01*
X287690707Y-144294797D01*
X287712894Y-144219055D01*
X287695409Y-144113298D01*
X287659663Y-144028350D01*
X287616768Y-143964778D01*
X287544243Y-143876528D01*
X287452862Y-143774713D01*
X287353399Y-143670444D01*
X287256628Y-143574834D01*
X287173323Y-143498997D01*
X287114259Y-143454044D01*
X287095540Y-143446500D01*
X287056257Y-143429356D01*
X286983654Y-143384996D01*
X286915871Y-143338750D01*
X286811035Y-143274385D01*
X286706253Y-143225961D01*
X286653337Y-143210181D01*
X286582925Y-143193432D01*
X286565718Y-143173591D01*
X286590677Y-143141037D01*
X286629942Y-143089423D01*
X286639000Y-143063232D01*
X286663733Y-143035218D01*
X286674896Y-143033750D01*
X286718950Y-143016551D01*
X286794671Y-142972221D01*
X286857459Y-142930026D01*
X286955007Y-142864000D01*
X287044396Y-142808358D01*
X287083500Y-142786751D01*
X287159297Y-142747120D01*
X287258796Y-142692837D01*
X287302807Y-142668224D01*
X287393318Y-142622247D01*
X287466790Y-142593774D01*
X287490807Y-142589250D01*
X287550825Y-142569193D01*
X287596356Y-142537231D01*
X287650552Y-142508357D01*
X287745385Y-142487656D01*
X287890486Y-142473315D01*
X287957189Y-142469345D01*
X288100747Y-142460417D01*
X288195330Y-142449224D01*
X288255446Y-142432019D01*
X288295601Y-142405055D01*
X288322197Y-142375095D01*
X288362803Y-142304670D01*
X288355916Y-142245068D01*
X288351684Y-142236606D01*
X288337464Y-142196928D01*
X288361305Y-142180008D01*
X288433877Y-142176500D01*
X288569776Y-142207157D01*
X288657174Y-142259589D01*
X288743007Y-142313740D01*
X288814301Y-142326363D01*
X288853493Y-142319251D01*
X288929308Y-142305405D01*
X289043645Y-142291732D01*
X289170100Y-142281311D01*
X289307559Y-142276949D01*
X289399263Y-142286182D01*
X289461885Y-142310983D01*
X289470852Y-142316900D01*
X289552022Y-142351350D01*
X289651889Y-142366923D01*
X289658427Y-142366999D01*
X289747326Y-142379471D01*
X289809833Y-142410192D01*
X289814001Y-142414624D01*
X289868933Y-142455015D01*
X289898910Y-142462249D01*
X289988638Y-142486758D01*
X290110006Y-142557109D01*
X290256299Y-142668537D01*
X290420801Y-142816278D01*
X290480750Y-142875000D01*
X290614132Y-143013548D01*
X290715137Y-143134213D01*
X290800187Y-143259648D01*
X290885702Y-143412508D01*
X290923269Y-143485523D01*
X290988521Y-143618648D01*
X291039249Y-143730652D01*
X291070479Y-143809917D01*
X291077241Y-143844825D01*
X291466875Y-143844825D01*
X291405388Y-143803734D01*
X291347178Y-143716324D01*
X291336991Y-143662255D01*
X291316938Y-143577930D01*
X291289366Y-143527744D01*
X291251036Y-143451601D01*
X291240641Y-143400744D01*
X291223898Y-143338051D01*
X291183020Y-143245845D01*
X291145525Y-143176625D01*
X291090544Y-143081228D01*
X291047130Y-143003130D01*
X291030072Y-142970250D01*
X290972106Y-142871437D01*
X290887438Y-142756847D01*
X290786577Y-142637568D01*
X290680032Y-142524691D01*
X290578311Y-142429307D01*
X290491923Y-142362505D01*
X290431377Y-142335376D01*
X290428365Y-142335249D01*
X290376897Y-142311567D01*
X290363266Y-142295562D01*
X290316930Y-142253892D01*
X290235178Y-142202165D01*
X290141810Y-142153262D01*
X290060623Y-142120061D01*
X290025910Y-142112999D01*
X289967577Y-142090564D01*
X289944543Y-142069643D01*
X289892952Y-142039425D01*
X289804633Y-142013631D01*
X289761296Y-142006101D01*
X289662015Y-141985653D01*
X289584845Y-141957847D01*
X289566208Y-141946270D01*
X289504250Y-141924637D01*
X289382383Y-141911312D01*
X289203694Y-141906628D01*
X289197880Y-141906625D01*
X289038090Y-141909069D01*
X288927804Y-141917689D01*
X288853164Y-141934415D01*
X288800316Y-141961174D01*
X288798873Y-141962187D01*
X288723862Y-142001772D01*
X288655146Y-142017304D01*
X288612704Y-142005767D01*
X288607500Y-141991080D01*
X288585022Y-141951084D01*
X288526477Y-141883697D01*
X288445204Y-141801422D01*
X288354539Y-141716763D01*
X288267819Y-141642221D01*
X288198382Y-141590302D01*
X288161808Y-141573250D01*
X288096324Y-141550398D01*
X288067751Y-141525625D01*
X288017616Y-141485479D01*
X287991955Y-141478000D01*
X287943014Y-141463934D01*
X287864809Y-141428793D01*
X287837208Y-141414499D01*
X287729119Y-141372290D01*
X287616474Y-141350589D01*
X287599553Y-141349874D01*
X287496325Y-141336731D01*
X287406358Y-141306299D01*
X287401000Y-141303375D01*
X287320733Y-141278367D01*
X287195762Y-141262656D01*
X287044197Y-141256243D01*
X286884149Y-141259126D01*
G37*
X286884149Y-141259126D02*
X286733731Y-141271306D01*
X286611053Y-141292784D01*
X286575500Y-141303375D01*
X286466080Y-141330063D01*
X286330393Y-141347345D01*
X286245198Y-141351000D01*
X286122167Y-141358260D01*
X286025005Y-141377493D01*
X285987253Y-141394120D01*
X285914743Y-141428261D01*
X285817045Y-141456679D01*
X285799247Y-141460243D01*
X285700459Y-141486675D01*
X285619406Y-141521983D01*
X285609620Y-141528248D01*
X285537365Y-141563889D01*
X285490751Y-141573250D01*
X285433791Y-141588695D01*
X285348851Y-141626507D01*
X285260830Y-141673897D01*
X285194630Y-141718075D01*
X285178500Y-141733618D01*
X285141411Y-141762227D01*
X285080481Y-141798536D01*
X284961947Y-141868916D01*
X284831916Y-141955481D01*
X284709199Y-142044813D01*
X284612608Y-142123496D01*
X284577654Y-142157137D01*
X284537879Y-142195627D01*
X284495251Y-142219901D01*
X284434720Y-142233216D01*
X284341234Y-142238830D01*
X284199744Y-142239999D01*
X284194784Y-142239999D01*
X284026550Y-142243753D01*
X283912087Y-142255802D01*
X283842066Y-142277330D01*
X283827256Y-142286615D01*
X283747334Y-142323276D01*
X283680187Y-142334240D01*
X283609717Y-142345832D01*
X283574828Y-142367481D01*
X283534559Y-142402122D01*
X283462803Y-142443751D01*
X283453892Y-142448107D01*
X283355818Y-142496511D01*
X283248603Y-142551348D01*
X283235563Y-142558177D01*
X283153608Y-142613239D01*
X283045148Y-142702681D01*
X282921317Y-142815387D01*
X282793253Y-142940238D01*
X282672090Y-143066120D01*
X282568965Y-143181914D01*
X282495013Y-143276505D01*
X282465269Y-143327143D01*
X282427531Y-143405431D01*
X282394397Y-143454915D01*
X282388581Y-143459853D01*
X282363986Y-143500397D01*
X282341562Y-143576273D01*
X282339288Y-143587683D01*
X282310507Y-143693300D01*
X282272384Y-143786471D01*
X282243912Y-143883113D01*
X282228534Y-144035431D01*
X282225946Y-144149112D01*
X282225751Y-144423100D01*
X282074938Y-144543585D01*
X281979337Y-144624277D01*
X281893916Y-144703623D01*
X281853689Y-144745847D01*
X281790631Y-144817829D01*
X281738650Y-144875250D01*
X281690515Y-144947111D01*
X281673844Y-144986375D01*
X281640676Y-145049138D01*
X281581931Y-145129883D01*
X281558696Y-145157364D01*
X281500589Y-145234794D01*
X281467033Y-145302053D01*
X281463750Y-145320164D01*
X281440873Y-145387885D01*
X281420463Y-145411400D01*
X281392464Y-145461680D01*
X281367749Y-145551472D01*
X281357211Y-145617191D01*
X281335074Y-145743034D01*
X281302077Y-145865670D01*
X281285868Y-145910023D01*
X281251150Y-146041708D01*
X281253686Y-146196259D01*
X281254148Y-146200244D01*
X281263248Y-146297619D01*
X281258360Y-146347651D01*
X281235681Y-146365672D01*
X281212674Y-146367500D01*
X281155699Y-146349601D01*
X281138352Y-146327812D01*
X281106049Y-146307379D01*
X281021664Y-146292189D01*
X280880794Y-146281632D01*
X280773700Y-146277461D01*
X280590864Y-146275579D01*
X280448322Y-146286534D01*
X280325537Y-146316130D01*
X280201973Y-146370171D01*
X280057092Y-146454458D01*
X279984743Y-146500405D01*
X279883012Y-146578672D01*
X279780797Y-146678363D01*
X279690121Y-146785056D01*
X279623007Y-146884328D01*
X279591478Y-146961759D01*
X279590500Y-146973320D01*
X279567707Y-147037542D01*
X279542875Y-147065999D01*
X279503212Y-147128934D01*
X279495055Y-147173075D01*
X279479426Y-147247520D01*
X279441971Y-147333657D01*
X279440720Y-147335875D01*
X279408833Y-147426666D01*
X279389172Y-147552780D01*
X279381765Y-147695358D01*
X279386636Y-147835540D01*
X279403811Y-147954467D01*
X279433314Y-148033281D01*
X279439772Y-148041571D01*
X279483374Y-148120783D01*
X279495250Y-148183799D01*
X279512935Y-148261291D01*
X279542875Y-148304250D01*
X279583230Y-148358470D01*
X279590500Y-148387823D01*
X279612777Y-148440333D01*
X279654000Y-148486241D01*
X279701678Y-148535964D01*
X279717500Y-148566689D01*
X279741704Y-148616998D01*
X279805556Y-148691419D01*
X279895914Y-148778770D01*
X279999637Y-148867869D01*
X280103587Y-148947534D01*
X280194621Y-149006583D01*
X280259599Y-149033833D01*
X280267250Y-149034500D01*
X280317749Y-149048610D01*
X280396928Y-149083853D01*
X280424293Y-149098000D01*
X280479896Y-149123719D01*
X280542501Y-149141445D01*
X280624699Y-149152555D01*
X280739081Y-149158424D01*
X280898239Y-149160430D01*
X280995323Y-149160422D01*
X281184314Y-149158685D01*
X281322609Y-149153597D01*
X281422984Y-149143781D01*
X281498212Y-149127863D01*
X281561068Y-149104466D01*
X281574875Y-149098000D01*
X281658683Y-149060296D01*
X281719254Y-149038026D01*
X281731539Y-149035577D01*
X281797198Y-149016623D01*
X281890799Y-148971367D01*
X281990083Y-148912391D01*
X282072791Y-148852278D01*
X282099014Y-148827844D01*
X282191184Y-148761782D01*
X282283805Y-148759216D01*
X282376709Y-148820145D01*
X282385964Y-148829682D01*
X282459299Y-148895247D01*
X282568876Y-148979020D01*
X282696479Y-149068542D01*
X282823892Y-149151358D01*
X282932900Y-149215011D01*
X282987750Y-149241203D01*
X283045336Y-149267475D01*
X283129244Y-149309525D01*
X283152791Y-149321823D01*
X283242119Y-149361420D01*
X283317718Y-149382625D01*
X283331466Y-149383750D01*
X283403134Y-149406877D01*
X283432250Y-149431375D01*
X283492687Y-149468317D01*
X283555201Y-149480077D01*
X283636645Y-149494640D01*
X283737128Y-149529608D01*
X283765625Y-149542500D01*
X283878883Y-149582885D01*
X283997524Y-149604796D01*
X284019625Y-149605932D01*
X284118088Y-149618791D01*
X284197912Y-149647814D01*
X284208256Y-149654634D01*
X284283050Y-149683987D01*
X284413068Y-149698929D01*
X284516709Y-149701250D01*
X284671633Y-149708636D01*
X284817599Y-149728287D01*
X284910844Y-149751263D01*
X285026336Y-149778840D01*
X285176103Y-149792489D01*
X285373834Y-149793413D01*
X285387267Y-149793096D01*
X285716378Y-149784915D01*
X285827157Y-149929999D01*
X285913718Y-150032529D01*
X286016005Y-150137528D01*
X286121664Y-150234126D01*
X286218340Y-150311452D01*
X286293678Y-150358638D01*
X286325005Y-150368000D01*
X286389777Y-150390741D01*
X286413208Y-150411356D01*
X286464799Y-150441574D01*
X286553118Y-150467368D01*
X286596455Y-150474898D01*
X286694989Y-150494851D01*
X286770758Y-150521485D01*
X286788930Y-150532605D01*
X286843128Y-150551900D01*
X286942548Y-150566867D01*
X287069010Y-150576678D01*
X287204332Y-150580509D01*
X287330335Y-150577533D01*
X287428836Y-150566924D01*
X287448625Y-150562575D01*
X287542874Y-150531598D01*
X287613226Y-150500513D01*
X287694213Y-150474218D01*
X287791705Y-150463250D01*
X287791901Y-150463250D01*
X287877842Y-150450163D01*
X287938277Y-150418384D01*
X287940750Y-150415625D01*
X287999880Y-150375032D01*
X288033430Y-150368000D01*
X288101851Y-150344216D01*
X288195022Y-150281046D01*
X288300762Y-150190759D01*
X288406893Y-150085626D01*
X288501234Y-149977918D01*
X288571605Y-149879905D01*
X288605828Y-149803857D01*
X288607309Y-149789848D01*
X288619314Y-149739365D01*
X288650338Y-149653811D01*
X288677236Y-149589475D01*
X288720727Y-149497582D01*
X288758741Y-149449738D01*
X288809468Y-149431064D01*
X288875865Y-149427022D01*
X288986803Y-149419248D01*
X289089009Y-149404244D01*
X289099625Y-149401932D01*
X289185741Y-149382615D01*
X288303644Y-149382615D01*
X288285413Y-149486637D01*
X288273649Y-149533574D01*
X288199443Y-149724205D01*
X288089129Y-149879871D01*
X287951841Y-149987922D01*
X287941835Y-149993182D01*
X287862734Y-150037742D01*
X287807219Y-150076406D01*
X287802805Y-150080495D01*
X287750395Y-150103422D01*
X287666938Y-150114885D01*
X287656588Y-150115125D01*
X287554449Y-150129060D01*
X287465485Y-150161066D01*
X287464500Y-150161625D01*
X287371177Y-150191635D01*
X287240212Y-150205551D01*
X287095390Y-150203373D01*
X286960498Y-150185101D01*
X286882023Y-150161625D01*
X286784165Y-150129641D01*
X286695178Y-150114245D01*
X286686283Y-150114000D01*
X286611766Y-150092548D01*
X286512260Y-150035688D01*
X286400892Y-149954664D01*
X286290787Y-149860721D01*
X286195074Y-149765101D01*
X286126877Y-149679050D01*
X286099326Y-149613812D01*
X286099250Y-149611163D01*
X286087010Y-149566458D01*
X286055976Y-149487308D01*
X286036448Y-149442779D01*
X285981554Y-149252131D01*
X285988399Y-149063126D01*
X286035750Y-148923375D01*
X286074419Y-148828259D01*
X286096377Y-148745175D01*
X286098173Y-148726286D01*
X286120384Y-148674634D01*
X286177418Y-148596077D01*
X286256426Y-148504190D01*
X286344562Y-148412542D01*
X286428978Y-148334706D01*
X286496826Y-148284255D01*
X286527734Y-148272500D01*
X286579987Y-148250259D01*
X286607250Y-148224875D01*
X286661023Y-148199044D01*
X286759048Y-148182960D01*
X286882829Y-148176622D01*
X287013871Y-148180030D01*
X287133678Y-148193184D01*
X287223754Y-148216084D01*
X287242250Y-148224875D01*
X287325171Y-148259514D01*
X287388142Y-148271374D01*
X287459409Y-148294852D01*
X287512125Y-148336000D01*
X287564992Y-148383372D01*
X287599351Y-148399500D01*
X287647171Y-148420920D01*
X287726350Y-148477981D01*
X287824939Y-148559885D01*
X287930988Y-148655830D01*
X288032549Y-148755019D01*
X288117672Y-148846652D01*
X288173339Y-148918263D01*
X288214941Y-149001434D01*
X288256889Y-149114427D01*
X288276123Y-149179922D01*
X288300468Y-149291787D01*
X288303644Y-149382615D01*
X289185741Y-149382615D01*
X289194172Y-149380724D01*
X289265510Y-149365545D01*
X289331440Y-149328098D01*
X289379898Y-149267688D01*
X289418507Y-149215060D01*
X289446074Y-149220467D01*
X289491668Y-149247538D01*
X289554407Y-149256750D01*
X289638091Y-149271865D01*
X289737065Y-149309295D01*
X289758793Y-149320250D01*
X289809426Y-149344031D01*
X289866052Y-149361036D01*
X289939840Y-149372336D01*
X290041958Y-149379003D01*
X290183578Y-149382109D01*
X290375869Y-149382727D01*
X290409198Y-149382672D01*
X290612567Y-149381368D01*
X290763768Y-149377687D01*
X290874120Y-149370556D01*
X290954942Y-149358902D01*
X291017552Y-149341655D01*
X291068125Y-149320250D01*
X291157945Y-149282028D01*
X291230514Y-149259915D01*
X291246800Y-149257827D01*
X291309784Y-149234100D01*
X291338000Y-149209125D01*
X291389648Y-149168900D01*
X291416697Y-149161500D01*
X291461801Y-149143379D01*
X291537294Y-149096600D01*
X291601405Y-149050375D01*
X291685337Y-148989980D01*
X291750686Y-148949621D01*
X291776850Y-148939250D01*
X291817262Y-148916969D01*
X291886234Y-148858496D01*
X291971629Y-148776381D01*
X292061311Y-148683176D01*
X292143143Y-148591433D01*
X292204987Y-148513703D01*
X292232974Y-148467534D01*
X292266538Y-148383625D01*
X292303295Y-148469404D01*
X292347906Y-148547873D01*
X292409468Y-148627444D01*
X292471923Y-148689869D01*
X292519208Y-148716901D01*
X292521215Y-148717000D01*
X292564396Y-148735010D01*
X292628586Y-148778543D01*
X292631087Y-148780500D01*
X292704638Y-148825479D01*
X292767145Y-148844000D01*
X292834879Y-148866878D01*
X292858413Y-148887302D01*
X292919621Y-148921620D01*
X293030114Y-148947412D01*
X293176252Y-148964672D01*
X293344395Y-148973393D01*
X293520903Y-148973570D01*
X293692134Y-148965197D01*
X293844449Y-148948268D01*
X293964207Y-148922777D01*
X294037768Y-148888718D01*
X294038834Y-148887811D01*
X294105504Y-148850550D01*
X294187617Y-148824939D01*
X294261969Y-148798323D01*
X294303330Y-148761737D01*
X294303599Y-148761062D01*
X294345710Y-148723735D01*
X294379593Y-148717000D01*
X294434555Y-148694985D01*
X294517730Y-148636981D01*
X294615815Y-148555046D01*
X294715507Y-148461238D01*
X294803504Y-148367616D01*
X294866502Y-148286239D01*
X294879843Y-148263542D01*
X294947502Y-148083735D01*
X294988011Y-147869737D01*
X294996371Y-147682186D01*
X294621615Y-147682186D01*
X294620778Y-147832552D01*
X294614871Y-147935832D01*
X294600980Y-148008400D01*
X294576188Y-148066635D01*
X294544144Y-148117424D01*
X294465511Y-148206573D01*
X294352856Y-148304491D01*
X294227795Y-148394809D01*
X294111943Y-148461157D01*
X294065650Y-148479779D01*
X293988520Y-148516422D01*
X293948651Y-148546563D01*
X293896983Y-148566655D01*
X293797470Y-148581206D01*
X293664697Y-148590278D01*
X293513252Y-148593936D01*
X293357719Y-148592244D01*
X293212685Y-148585265D01*
X293092734Y-148573063D01*
X293012454Y-148555701D01*
X292989000Y-148542375D01*
X292937353Y-148502150D01*
X292910304Y-148494750D01*
X292865375Y-148476624D01*
X292789759Y-148429748D01*
X292722790Y-148381482D01*
X292620443Y-148314827D01*
X292517567Y-148265770D01*
X292464224Y-148250328D01*
X292386895Y-148232998D01*
X292359378Y-148203895D01*
X292375058Y-148146502D01*
X292401430Y-148093566D01*
X292427277Y-148006655D01*
X292443272Y-147877287D01*
X292449273Y-147725758D01*
X292448217Y-147686546D01*
X292100000Y-147686546D01*
X292091559Y-147891962D01*
X292061518Y-148056966D01*
X292002801Y-148202963D01*
X291908329Y-148351359D01*
X291858649Y-148416558D01*
X291753260Y-148526134D01*
X291609738Y-148642258D01*
X291441956Y-148756831D01*
X291263788Y-148861754D01*
X291089107Y-148948929D01*
X290931787Y-149010258D01*
X290805700Y-149037643D01*
X290793608Y-149038256D01*
X290681240Y-149046659D01*
X290578015Y-149062701D01*
X290560125Y-149066922D01*
X290470170Y-149080686D01*
X290401375Y-149077905D01*
X290339379Y-149068594D01*
X290235508Y-149057100D01*
X290111229Y-149045778D01*
X290099750Y-149044845D01*
X289961250Y-149026795D01*
X289840956Y-149000103D01*
X289125804Y-149000103D01*
X289049215Y-149063870D01*
X288952836Y-149114368D01*
X288840866Y-149131139D01*
X288736003Y-149114452D01*
X288660948Y-149064579D01*
X288656926Y-149059185D01*
X288618802Y-148979755D01*
X288607500Y-148920198D01*
X288588069Y-148847623D01*
X288562991Y-148814835D01*
X288519727Y-148755222D01*
X288499970Y-148704142D01*
X288471165Y-148655505D01*
X288408774Y-148580274D01*
X288325350Y-148490893D01*
X288233445Y-148399806D01*
X288145610Y-148319457D01*
X288074398Y-148262291D01*
X288032566Y-148240750D01*
X288003939Y-148225015D01*
X288016992Y-148191985D01*
X288062948Y-148162918D01*
X288064972Y-148162256D01*
X288117236Y-148130415D01*
X288195052Y-148065798D01*
X288278473Y-147985492D01*
X288360686Y-147906423D01*
X288429984Y-147849889D01*
X288471500Y-147828002D01*
X288471752Y-147828000D01*
X288509194Y-147807156D01*
X288512250Y-147794376D01*
X288531702Y-147775413D01*
X288544000Y-147780375D01*
X288559922Y-147819810D01*
X288571315Y-147904504D01*
X288575749Y-148016247D01*
X288575750Y-148018066D01*
X288580316Y-148145688D01*
X288598927Y-148247957D01*
X288638958Y-148353448D01*
X288687933Y-148452755D01*
X288746856Y-148561362D01*
X288799379Y-148649132D01*
X288835380Y-148699293D01*
X288838746Y-148702552D01*
X288881092Y-148743221D01*
X288949017Y-148812626D01*
X289001590Y-148867916D01*
X289125804Y-149000103D01*
X289840956Y-149000103D01*
X289832555Y-148998239D01*
X289743828Y-148966606D01*
X289657122Y-148928941D01*
X289587727Y-148908640D01*
X289575604Y-148907500D01*
X289531565Y-148885507D01*
X289457830Y-148827391D01*
X289366273Y-148744946D01*
X289268768Y-148649966D01*
X289177190Y-148554247D01*
X289103412Y-148469581D01*
X289059310Y-148407763D01*
X289052000Y-148387429D01*
X289031025Y-148328393D01*
X289001774Y-148290308D01*
X288968330Y-148223412D01*
X288943696Y-148108028D01*
X288927851Y-147958555D01*
X288920778Y-147789390D01*
X288922455Y-147614929D01*
X288932864Y-147449568D01*
X288951986Y-147307706D01*
X288979800Y-147203739D01*
X289003294Y-147162445D01*
X289042850Y-147095497D01*
X289052000Y-147053069D01*
X289073437Y-147012139D01*
X289132523Y-146936084D01*
X289221420Y-146834089D01*
X289332292Y-146715339D01*
X289395294Y-146650757D01*
X289738588Y-146304000D01*
X289897226Y-146304000D01*
X290008583Y-146294401D01*
X290096213Y-146269624D01*
X290117495Y-146257384D01*
X290177227Y-146236034D01*
X290282852Y-146220309D01*
X290419831Y-146210223D01*
X290573623Y-146205792D01*
X290729688Y-146207031D01*
X290873485Y-146213956D01*
X290990474Y-146226580D01*
X291066116Y-146244921D01*
X291084001Y-146256375D01*
X291144755Y-146293371D01*
X291204287Y-146304000D01*
X291247387Y-146306504D01*
X291286867Y-146319253D01*
X291333687Y-146350101D01*
X291398805Y-146406900D01*
X291493179Y-146497503D01*
X291544375Y-146547722D01*
X291680024Y-146684927D01*
X291778489Y-146795509D01*
X291851022Y-146893910D01*
X291908872Y-146994573D01*
X291935742Y-147050125D01*
X291986633Y-147157634D01*
X292034627Y-147254831D01*
X292054553Y-147293148D01*
X292081685Y-147383823D01*
X292096642Y-147533628D01*
X292100000Y-147686546D01*
X292448217Y-147686546D01*
X292445141Y-147572363D01*
X292430736Y-147437398D01*
X292406608Y-147342792D01*
X292371549Y-147240109D01*
X292342686Y-147125337D01*
X292340421Y-147113625D01*
X292313470Y-147018031D01*
X292276801Y-146943242D01*
X292268829Y-146933063D01*
X292239728Y-146872427D01*
X292258308Y-146828147D01*
X292315565Y-146819579D01*
X292321004Y-146820873D01*
X292389098Y-146817096D01*
X292452358Y-146793014D01*
X292538403Y-146763000D01*
X292639323Y-146749640D01*
X292640623Y-146749625D01*
X292739696Y-146734312D01*
X292823375Y-146698925D01*
X292824887Y-146697883D01*
X292895514Y-146672240D01*
X293012890Y-146653971D01*
X293160818Y-146643122D01*
X293323102Y-146639741D01*
X293483545Y-146643872D01*
X293625949Y-146655561D01*
X293734118Y-146674856D01*
X293784221Y-146695156D01*
X293872153Y-146735569D01*
X293946987Y-146748500D01*
X294020089Y-146761913D01*
X294058985Y-146788481D01*
X294099845Y-146829688D01*
X294172378Y-146885774D01*
X294204156Y-146907544D01*
X294285386Y-146973618D01*
X294382310Y-147070203D01*
X294472128Y-147174186D01*
X294620318Y-147361747D01*
X294621615Y-147682186D01*
X294996371Y-147682186D01*
X294997973Y-147646248D01*
X294985113Y-147498453D01*
X294964460Y-147379537D01*
X294942757Y-147281844D01*
X294924571Y-147225833D01*
X294923982Y-147224750D01*
X294893816Y-147168297D01*
X294849341Y-147081977D01*
X294829961Y-147043694D01*
X294781606Y-146968149D01*
X294705813Y-146872142D01*
X294613742Y-146767369D01*
X294516553Y-146665523D01*
X294425405Y-146578300D01*
X294351458Y-146517394D01*
X294305879Y-146494500D01*
X294254427Y-146472297D01*
X294227251Y-146446875D01*
X294167456Y-146411026D01*
X294100251Y-146399250D01*
X294021130Y-146383205D01*
X293973948Y-146352465D01*
X293917857Y-146316397D01*
X293831664Y-146289701D01*
X293819248Y-146287530D01*
X293720794Y-146270633D01*
X293595437Y-146247221D01*
X293520813Y-146232516D01*
X293338251Y-146195651D01*
X293338248Y-146194648D01*
X292978360Y-146194648D01*
X292972531Y-146244836D01*
X292956637Y-146266762D01*
X292928739Y-146272122D01*
X292916242Y-146272250D01*
X292843195Y-146287038D01*
X292750360Y-146323759D01*
X292726708Y-146335750D01*
X292640401Y-146375853D01*
X292570784Y-146397827D01*
X292557452Y-146399250D01*
X292495798Y-146413326D01*
X292413940Y-146447594D01*
X292406524Y-146451385D01*
X292324703Y-146493352D01*
X292261725Y-146524611D01*
X292258750Y-146526025D01*
X292219392Y-146571972D01*
X292201079Y-146632639D01*
X292186811Y-146696134D01*
X292161332Y-146709053D01*
X292119079Y-146669225D01*
X292055284Y-146575743D01*
X291975346Y-146463554D01*
X291881656Y-146351130D01*
X291850515Y-146318167D01*
X291748672Y-146226117D01*
X291629526Y-146134372D01*
X291507836Y-146052591D01*
X291398362Y-145990433D01*
X291315865Y-145957558D01*
X291295195Y-145954750D01*
X291212277Y-145936525D01*
X291162503Y-145911013D01*
X291111952Y-145892337D01*
X291014888Y-145876305D01*
X290866586Y-145862426D01*
X290662320Y-145850210D01*
X290512711Y-145843546D01*
X290305024Y-145834709D01*
X290151587Y-145826550D01*
X290043184Y-145817755D01*
X289970596Y-145807010D01*
X289924606Y-145793000D01*
X289895995Y-145774410D01*
X289877711Y-145752990D01*
X289834140Y-145680692D01*
X289814000Y-145634016D01*
X289779150Y-145571757D01*
X289705363Y-145474670D01*
X289600344Y-145351018D01*
X289471798Y-145209063D01*
X289327431Y-145057068D01*
X289174948Y-144903294D01*
X289022054Y-144756004D01*
X288876455Y-144623460D01*
X288850387Y-144600743D01*
X288776070Y-144531097D01*
X288730866Y-144477900D01*
X288724245Y-144453715D01*
X288770096Y-144444193D01*
X288852847Y-144439133D01*
X288883251Y-144438864D01*
X288995025Y-144424986D01*
X289068082Y-144387454D01*
X289128458Y-144345826D01*
X289166510Y-144335500D01*
X289227996Y-144319489D01*
X289283305Y-144291621D01*
X289353224Y-144264078D01*
X289459314Y-144239340D01*
X289542034Y-144227156D01*
X289651792Y-144209743D01*
X289739617Y-144186138D01*
X289777020Y-144167848D01*
X289824283Y-144151773D01*
X289925303Y-144138835D01*
X290082841Y-144128828D01*
X290299657Y-144121545D01*
X290434880Y-144118798D01*
X290655044Y-144115856D01*
X290821306Y-144115856D01*
X290943218Y-144119347D01*
X291030333Y-144126881D01*
X291092204Y-144139009D01*
X291138384Y-144156281D01*
X291145352Y-144159763D01*
X291229726Y-144189528D01*
X291349305Y-144215307D01*
X291457958Y-144229420D01*
X291578933Y-144245351D01*
X291682855Y-144268690D01*
X291741696Y-144291642D01*
X291818998Y-144325845D01*
X291871775Y-144335500D01*
X291938236Y-144355482D01*
X292004750Y-144399000D01*
X292069730Y-144444561D01*
X292118749Y-144462500D01*
X292163213Y-144485023D01*
X292236653Y-144544738D01*
X292327630Y-144629860D01*
X292424702Y-144728603D01*
X292516428Y-144829184D01*
X292591369Y-144919816D01*
X292638082Y-144988716D01*
X292645494Y-145005079D01*
X292675582Y-145069811D01*
X292703368Y-145097485D01*
X292703834Y-145097500D01*
X292728269Y-145124801D01*
X292750371Y-145190453D01*
X292750394Y-145190556D01*
X292780038Y-145270942D01*
X292816416Y-145321443D01*
X292851186Y-145380233D01*
X292862000Y-145443573D01*
X292878332Y-145533435D01*
X292904940Y-145590497D01*
X292926538Y-145650804D01*
X292946687Y-145758523D01*
X292962682Y-145897579D01*
X292967589Y-145962687D01*
X292976066Y-146104497D01*
X292978360Y-146194648D01*
X293338248Y-146194648D01*
X293337493Y-145956138D01*
X293331635Y-145786922D01*
X293312285Y-145634909D01*
X293275045Y-145483690D01*
X293215514Y-145316858D01*
X293129291Y-145118005D01*
X293090201Y-145034000D01*
X293015975Y-144891183D01*
X292928159Y-144743390D01*
X292845451Y-144622041D01*
X292843558Y-144619548D01*
X292757232Y-144516339D01*
X292657881Y-144412763D01*
X292557855Y-144320010D01*
X292469503Y-144249270D01*
X292405174Y-144211733D01*
X292389922Y-144208500D01*
X292345865Y-144184842D01*
X292331766Y-144167034D01*
X292281937Y-144121601D01*
X292194840Y-144069362D01*
X292093974Y-144021943D01*
X292002836Y-143990968D01*
X291964085Y-143985124D01*
X291883038Y-143968446D01*
X291814250Y-143938625D01*
X291727720Y-143907417D01*
X291623557Y-143892334D01*
X291614370Y-143892125D01*
X291500198Y-143867095D01*
X291466875Y-143844825D01*
X291077241Y-143844825D01*
X291077092Y-143844992D01*
X291038721Y-143846590D01*
X290962012Y-143829643D01*
X290911276Y-143813906D01*
X290814175Y-143792784D01*
X290672358Y-143776976D01*
X290500111Y-143766537D01*
X290311721Y-143761524D01*
X290121472Y-143761992D01*
X289943652Y-143767998D01*
X289792544Y-143779598D01*
X289682437Y-143796849D01*
X289644174Y-143808924D01*
X289552030Y-143838315D01*
X289433108Y-143861353D01*
X289377116Y-143867794D01*
X289268345Y-143885781D01*
X289180731Y-143915912D01*
X289152366Y-143933995D01*
X289084852Y-143975319D01*
X289038560Y-143986250D01*
X288970870Y-144011056D01*
X288887719Y-144074259D01*
X288804998Y-144159035D01*
X288738596Y-144248558D01*
X288704404Y-144326004D01*
X288702750Y-144341806D01*
X288690439Y-144413200D01*
X288653762Y-144425968D01*
X288599088Y-144386051D01*
X288516452Y-144335217D01*
X288404195Y-144302257D01*
X288293536Y-144294231D01*
X288239673Y-144304777D01*
X288180053Y-144347928D01*
X288163001Y-144426430D01*
X288163000Y-144426876D01*
X288171580Y-144483485D01*
X288205104Y-144534107D01*
X288275255Y-144592418D01*
X288345563Y-144640614D01*
X288484143Y-144743490D01*
X288658919Y-144891988D01*
X288866003Y-145082483D01*
X289101502Y-145311353D01*
X289361527Y-145574971D01*
X289473558Y-145691456D01*
X289688740Y-145916729D01*
X289590988Y-145991302D01*
X289405073Y-146140026D01*
X289228822Y-146293799D01*
X289073286Y-146442141D01*
X288949516Y-146574573D01*
X288875541Y-146669794D01*
X288812055Y-146761798D01*
X288759656Y-146831230D01*
X288731375Y-146861556D01*
X288708832Y-146903871D01*
X288702750Y-146952861D01*
X288683302Y-147028253D01*
X288655125Y-147066000D01*
X288614747Y-147115931D01*
X288607014Y-147141325D01*
X288590735Y-147198905D01*
X288579578Y-147219644D01*
X288552537Y-147233349D01*
X288504570Y-147209041D01*
X288426405Y-147141684D01*
X288413377Y-147129345D01*
X288312103Y-147039009D01*
X288187829Y-146936769D01*
X288083625Y-146856846D01*
X287983499Y-146782634D01*
X287899070Y-146718630D01*
X287847544Y-146677892D01*
X287845500Y-146676151D01*
X287792316Y-146640090D01*
X287703622Y-146588932D01*
X287623250Y-146546437D01*
X287510704Y-146487232D01*
X287406116Y-146428859D01*
X287353375Y-146397215D01*
X287262885Y-146345243D01*
X287178884Y-146305158D01*
X287178750Y-146305105D01*
X287090444Y-146265853D01*
X287009490Y-146225258D01*
X286929161Y-146190833D01*
X286865742Y-146177000D01*
X286799767Y-146159471D01*
X286740825Y-146127231D01*
X286645248Y-146087704D01*
X286561569Y-146098654D01*
X286503620Y-146150729D01*
X286485231Y-146234577D01*
X286497345Y-146291855D01*
X286554984Y-146377081D01*
X286658307Y-146458459D01*
X286766000Y-146512831D01*
X286847742Y-146549594D01*
X286960917Y-146605330D01*
X287081650Y-146667817D01*
X287186065Y-146724832D01*
X287226375Y-146748500D01*
X287308190Y-146795780D01*
X287418044Y-146855619D01*
X287496250Y-146896544D01*
X287613364Y-146963880D01*
X287748659Y-147052279D01*
X287865625Y-147137175D01*
X287960751Y-147208818D01*
X288036756Y-147262083D01*
X288079824Y-147287386D01*
X288083400Y-147288250D01*
X288127818Y-147311095D01*
X288185773Y-147364635D01*
X288236118Y-147426376D01*
X288257702Y-147473644D01*
X288236596Y-147516708D01*
X288181116Y-147586215D01*
X288114843Y-147655539D01*
X287991445Y-147795462D01*
X287928154Y-147916832D01*
X287925161Y-148019278D01*
X287926116Y-148022409D01*
X287935340Y-148089482D01*
X287904816Y-148110705D01*
X287832971Y-148086163D01*
X287742507Y-148032200D01*
X287641188Y-147973602D01*
X287548548Y-147933647D01*
X287496975Y-147922240D01*
X287408256Y-147902751D01*
X287355245Y-147874615D01*
X287284906Y-147846332D01*
X287162795Y-147831224D01*
X287035875Y-147828000D01*
X286871622Y-147833958D01*
X286763665Y-147852431D01*
X286716506Y-147874615D01*
X286648065Y-147903064D01*
X286547789Y-147920150D01*
X286503737Y-147922240D01*
X286399156Y-147931802D01*
X286304998Y-147965509D01*
X286194280Y-148033268D01*
X286186237Y-148038830D01*
X286044874Y-148143301D01*
X285935938Y-148236529D01*
X285867199Y-148311268D01*
X285846132Y-148355924D01*
X285823276Y-148404651D01*
X285798466Y-148430552D01*
X285760540Y-148487372D01*
X285732451Y-148572120D01*
X285731432Y-148577315D01*
X285711500Y-148656339D01*
X285683018Y-148679236D01*
X285631364Y-148653090D01*
X285608995Y-148636615D01*
X285529849Y-148605951D01*
X285400301Y-148591088D01*
X285346061Y-148590000D01*
X285233089Y-148586429D01*
X285161843Y-148568697D01*
X285126588Y-148526272D01*
X285121588Y-148448624D01*
X285141107Y-148325222D01*
X285157940Y-148244604D01*
X285183469Y-148113022D01*
X285202095Y-147992647D01*
X285210164Y-147907464D01*
X285210250Y-147901320D01*
X285229622Y-147801158D01*
X285283988Y-147664995D01*
X285367721Y-147505640D01*
X285426000Y-147410021D01*
X285539108Y-147238399D01*
X285644741Y-147087782D01*
X285734210Y-146970203D01*
X285789162Y-146907141D01*
X285860944Y-146825574D01*
X285919157Y-146746906D01*
X285952533Y-146683631D01*
X285947086Y-146635946D01*
X285922320Y-146596093D01*
X285869639Y-146542182D01*
X285808186Y-146532085D01*
X285723844Y-146566257D01*
X285662057Y-146604432D01*
X285508272Y-146718088D01*
X285383396Y-146842336D01*
X285265229Y-146999934D01*
X285242000Y-147035070D01*
X285186926Y-147111720D01*
X285146750Y-147160255D01*
X285090737Y-147237497D01*
X285026626Y-147349678D01*
X284963011Y-147478412D01*
X284908487Y-147605315D01*
X284871647Y-147711998D01*
X284860657Y-147772310D01*
X284850933Y-147865664D01*
X284826767Y-147981793D01*
X284813032Y-148031483D01*
X284784897Y-148142054D01*
X284767968Y-148242988D01*
X284765750Y-148277546D01*
X284764738Y-148316929D01*
X284755494Y-148344634D01*
X284728712Y-148362388D01*
X284675085Y-148371918D01*
X284585305Y-148374949D01*
X284450065Y-148373208D01*
X284273921Y-148368783D01*
X284097178Y-148361274D01*
X283969813Y-148348107D01*
X283877804Y-148327191D01*
X283814016Y-148300215D01*
X283729201Y-148261525D01*
X283660661Y-148241511D01*
X283650921Y-148240750D01*
X283587622Y-148217998D01*
X283559250Y-148193125D01*
X283490694Y-148148720D01*
X283416207Y-148155318D01*
X283351213Y-148204118D01*
X283311131Y-148286322D01*
X283305250Y-148338068D01*
X283318824Y-148407580D01*
X283368020Y-148471012D01*
X283437014Y-148526300D01*
X283526632Y-148581972D01*
X283606585Y-148616367D01*
X283636325Y-148621750D01*
X283713500Y-148639751D01*
X283776412Y-148672559D01*
X283812113Y-148691282D01*
X283863520Y-148704326D01*
X283940334Y-148712309D01*
X284052255Y-148715851D01*
X284208984Y-148715572D01*
X284401395Y-148712466D01*
X284604268Y-148709109D01*
X284752933Y-148708670D01*
X284856644Y-148711794D01*
X284924651Y-148719131D01*
X284966208Y-148731326D01*
X284990566Y-148749027D01*
X284994732Y-148753975D01*
X285072193Y-148817531D01*
X285189048Y-148874694D01*
X285321244Y-148916480D01*
X285444726Y-148933906D01*
X285474565Y-148933188D01*
X285607125Y-148923375D01*
X285616554Y-149158528D01*
X285618928Y-149279559D01*
X285616376Y-149378796D01*
X285609462Y-149436398D01*
X285608587Y-149439015D01*
X285590635Y-149458565D01*
X285548205Y-149469551D01*
X285470757Y-149472615D01*
X285347749Y-149468396D01*
X285234033Y-149461779D01*
X285080907Y-149448764D01*
X284943630Y-149431053D01*
X284839248Y-149411194D01*
X284791140Y-149395604D01*
X284713301Y-149372463D01*
X284597593Y-149356757D01*
X284488642Y-149352000D01*
X284348586Y-149344827D01*
X284245875Y-149324984D01*
X284209253Y-149308319D01*
X284141797Y-149278664D01*
X284040255Y-149252114D01*
X283981535Y-149242059D01*
X283880197Y-149220977D01*
X283803195Y-149191998D01*
X283779210Y-149174615D01*
X283717609Y-149136414D01*
X283679324Y-149129750D01*
X283605143Y-149115226D01*
X283532399Y-149085703D01*
X283439543Y-149039800D01*
X283368750Y-149007521D01*
X283234107Y-148940367D01*
X283064624Y-148841485D01*
X282874426Y-148719583D01*
X282677636Y-148583366D01*
X282659622Y-148570367D01*
X282535036Y-148485798D01*
X282416707Y-148415334D01*
X282321350Y-148368465D01*
X282280925Y-148355386D01*
X282222718Y-148349113D01*
X282168893Y-148359364D01*
X282104658Y-148392971D01*
X282015225Y-148456769D01*
X281946420Y-148509955D01*
X281839682Y-148588590D01*
X281745844Y-148648970D01*
X281679789Y-148681857D01*
X281664036Y-148685250D01*
X281599923Y-148699767D01*
X281512396Y-148735898D01*
X281487208Y-148748750D01*
X281422026Y-148777903D01*
X281346855Y-148796776D01*
X281246534Y-148807390D01*
X281105901Y-148811767D01*
X281010958Y-148812250D01*
X280843131Y-148810335D01*
X280723564Y-148803243D01*
X280637097Y-148788952D01*
X280568568Y-148765441D01*
X280534708Y-148748750D01*
X280449872Y-148708775D01*
X280383196Y-148686745D01*
X280370561Y-148685250D01*
X280326216Y-148663341D01*
X280254849Y-148606756D01*
X280170343Y-148529202D01*
X280086580Y-148444389D01*
X280017439Y-148366024D01*
X279976804Y-148307816D01*
X279971500Y-148291162D01*
X279952124Y-148239622D01*
X279908000Y-148177250D01*
X279861259Y-148102545D01*
X279843375Y-148037454D01*
X279826830Y-147959738D01*
X279796875Y-147891500D01*
X279766319Y-147805070D01*
X279752267Y-147696840D01*
X279754948Y-147590123D01*
X279774585Y-147508232D01*
X279792913Y-147482038D01*
X279825806Y-147428824D01*
X279852502Y-147342437D01*
X279856789Y-147319400D01*
X279875849Y-147240236D01*
X279898878Y-147196216D01*
X279905853Y-147193000D01*
X279932937Y-147165822D01*
X279954668Y-147105687D01*
X279988013Y-147015614D01*
X280050157Y-146934985D01*
X280151772Y-146852901D01*
X280282937Y-146770446D01*
X280391968Y-146709814D01*
X280478361Y-146674660D01*
X280568311Y-146658137D01*
X280688016Y-146653398D01*
X280731314Y-146653250D01*
X280874237Y-146657359D01*
X280964966Y-146670886D01*
X281014349Y-146695622D01*
X281019250Y-146700875D01*
X281078380Y-146741467D01*
X281111930Y-146748500D01*
X281178108Y-146767047D01*
X281227105Y-146796125D01*
X281414466Y-146934760D01*
X281564283Y-147032987D01*
X281684194Y-147095019D01*
X281781836Y-147125066D01*
X281831474Y-147129500D01*
X281878397Y-147106330D01*
X281890997Y-147045134D01*
X281873457Y-146958382D01*
X281829957Y-146858543D01*
X281764677Y-146758087D01*
X281681798Y-146669483D01*
X281675406Y-146664013D01*
X281568313Y-146573875D01*
X281593815Y-146319625D01*
X281612500Y-146180831D01*
X281638106Y-146050800D01*
X281665452Y-145955322D01*
X281668533Y-145947582D01*
X281702118Y-145833607D01*
X281717628Y-145714726D01*
X281717750Y-145705657D01*
X281729987Y-145610044D01*
X281761216Y-145545860D01*
X281765375Y-145541999D01*
X281805600Y-145490352D01*
X281813001Y-145463303D01*
X281831121Y-145418199D01*
X281877900Y-145342706D01*
X281924126Y-145278595D01*
X281984450Y-145195491D01*
X282024893Y-145131931D01*
X282035455Y-145107342D01*
X282054781Y-145071470D01*
X282104887Y-145003789D01*
X282164926Y-144930812D01*
X282240465Y-144847217D01*
X282298473Y-144802135D01*
X282360435Y-144783981D01*
X282442533Y-144781125D01*
X282551424Y-144791609D01*
X282646437Y-144816538D01*
X282670250Y-144827625D01*
X282759094Y-144860353D01*
X282860750Y-144875202D01*
X282962219Y-144891095D01*
X283074347Y-144927733D01*
X283098875Y-144938750D01*
X283194769Y-144977482D01*
X283279395Y-144999416D01*
X283298599Y-145001172D01*
X283376181Y-145021273D01*
X283459647Y-145069212D01*
X283527681Y-145129443D01*
X283558964Y-145186421D01*
X283559250Y-145191253D01*
X283545017Y-145250710D01*
X283509857Y-145333873D01*
X283500598Y-145351970D01*
X283455280Y-145469817D01*
X283426558Y-145608639D01*
X283417258Y-145744474D01*
X283430207Y-145853358D01*
X283438675Y-145876795D01*
X283493102Y-145942025D01*
X283565253Y-145950219D01*
X283647013Y-145902347D01*
X283698357Y-145845743D01*
X283750998Y-145759076D01*
X283779712Y-145677472D01*
X283781500Y-145659131D01*
X283799084Y-145583408D01*
X283827085Y-145543693D01*
X283867412Y-145485735D01*
X283892625Y-145414999D01*
X283922426Y-145335257D01*
X283958166Y-145286306D01*
X283997016Y-145224117D01*
X284003750Y-145185889D01*
X284030569Y-145126728D01*
X284064315Y-145107467D01*
X284124605Y-145069411D01*
X284144197Y-145039002D01*
X284179072Y-144967308D01*
X284236871Y-144868961D01*
X284303647Y-144765719D01*
X284365451Y-144679341D01*
X284401813Y-144637125D01*
X284438314Y-144596423D01*
X284499151Y-144522587D01*
X284559369Y-144446625D01*
X284644935Y-144343100D01*
X284733263Y-144246368D01*
X284812517Y-144168375D01*
X284870861Y-144121066D01*
X284890531Y-144112390D01*
X284921535Y-144092267D01*
X284985345Y-144040363D01*
X285067375Y-143968598D01*
X285182581Y-143873744D01*
X285311571Y-143780463D01*
X285392142Y-143729386D01*
X285483695Y-143673314D01*
X285551366Y-143626351D01*
X285576578Y-143603303D01*
X285620487Y-143577750D01*
X285652737Y-143573500D01*
X285722302Y-143550515D01*
X285747415Y-143528990D01*
X285805121Y-143487972D01*
X285870365Y-143463136D01*
X285975815Y-143417014D01*
X286051803Y-143346276D01*
X286091738Y-143264534D01*
X286089029Y-143185397D01*
X286037086Y-143122474D01*
X286035750Y-143121631D01*
X286009805Y-143088737D01*
X285735192Y-143088737D01*
X285712181Y-143137576D01*
X285654729Y-143182959D01*
X285576121Y-143210329D01*
X285491088Y-143236476D01*
X285432361Y-143272276D01*
X285429744Y-143275196D01*
X285380195Y-143313558D01*
X285357175Y-143319713D01*
X285308120Y-143337874D01*
X285221658Y-143386365D01*
X285110613Y-143456669D01*
X284987808Y-143540270D01*
X284866067Y-143628648D01*
X284758213Y-143713288D01*
X284734113Y-143733558D01*
X284571471Y-143879057D01*
X284412356Y-144032613D01*
X284265700Y-144184589D01*
X284140434Y-144325345D01*
X284045489Y-144445244D01*
X283989796Y-144534647D01*
X283987875Y-144538882D01*
X283946442Y-144611461D01*
X283885789Y-144694772D01*
X283820040Y-144771970D01*
X283763321Y-144826213D01*
X283733875Y-144841760D01*
X283685859Y-144823972D01*
X283640495Y-144794865D01*
X283570371Y-144757817D01*
X283525320Y-144748250D01*
X283460741Y-144725439D01*
X283432250Y-144700625D01*
X283371955Y-144664176D01*
X283308830Y-144653000D01*
X283226601Y-144637929D01*
X283128454Y-144600597D01*
X283106458Y-144589500D01*
X282977046Y-144543051D01*
X282837053Y-144525513D01*
X282723389Y-144520670D01*
X282651394Y-144499249D01*
X282611826Y-144449585D01*
X282595437Y-144360011D01*
X282592984Y-144218861D01*
X282592995Y-144217538D01*
X282603110Y-144038802D01*
X282630664Y-143914208D01*
X282648362Y-143875125D01*
X282684661Y-143802303D01*
X282701639Y-143752720D01*
X282701805Y-143750211D01*
X282725700Y-143670005D01*
X282790500Y-143560571D01*
X282887105Y-143431823D01*
X283006418Y-143293674D01*
X283139340Y-143156039D01*
X283276774Y-143028830D01*
X283409621Y-142921962D01*
X283528783Y-142845348D01*
X283535438Y-142841858D01*
X283619523Y-142794835D01*
X283674270Y-142757304D01*
X283686250Y-142742907D01*
X283714207Y-142724946D01*
X283783987Y-142705832D01*
X283811423Y-142700683D01*
X283901378Y-142676205D01*
X283965920Y-142642332D01*
X283974060Y-142634393D01*
X284029172Y-142603736D01*
X284114638Y-142588239D01*
X284126701Y-142587856D01*
X284235299Y-142575515D01*
X284351751Y-142547039D01*
X284367846Y-142541597D01*
X284449117Y-142519103D01*
X284502528Y-142516264D01*
X284510721Y-142520854D01*
X284564731Y-142567834D01*
X284652894Y-142619698D01*
X284748584Y-142662944D01*
X284825173Y-142684072D01*
X284833468Y-142684500D01*
X284910102Y-142699397D01*
X285005029Y-142736357D01*
X285028043Y-142748000D01*
X285121779Y-142788739D01*
X285206198Y-142810416D01*
X285222123Y-142811500D01*
X285298079Y-142830434D01*
X285337250Y-142859125D01*
X285397221Y-142899756D01*
X285431467Y-142906750D01*
X285492960Y-142928915D01*
X285543625Y-142970250D01*
X285605686Y-143018316D01*
X285654380Y-143033750D01*
X285717885Y-143049707D01*
X285735192Y-143088737D01*
X286009805Y-143088737D01*
X285983560Y-143055465D01*
X285972250Y-142995699D01*
X285948337Y-142924354D01*
X285886191Y-142832836D01*
X285800203Y-142735772D01*
X285704762Y-142647784D01*
X285614259Y-142583497D01*
X285543085Y-142557534D01*
X285541055Y-142557500D01*
X285491247Y-142535374D01*
X285464250Y-142509874D01*
X285403958Y-142473431D01*
X285340805Y-142462250D01*
X285263925Y-142448427D01*
X285172053Y-142414183D01*
X285088328Y-142370352D01*
X285035886Y-142327768D01*
X285029598Y-142316513D01*
X285048759Y-142283946D01*
X285108928Y-142235448D01*
X285193831Y-142182488D01*
X285281688Y-142138870D01*
X285328294Y-142103901D01*
X285337250Y-142082273D01*
X285362623Y-142052467D01*
X285380594Y-142049499D01*
X285434475Y-142031073D01*
X285503786Y-141986688D01*
X285504664Y-141985999D01*
X285580843Y-141940802D01*
X285647933Y-141922499D01*
X285720347Y-141899589D01*
X285750000Y-141874875D01*
X285808194Y-141840950D01*
X285889699Y-141827250D01*
X285987103Y-141810605D01*
X286063251Y-141775853D01*
X286140487Y-141745068D01*
X286278454Y-141717454D01*
X286474438Y-141693532D01*
X286506878Y-141690459D01*
X286856984Y-141666685D01*
X287165715Y-141662965D01*
X287428328Y-141678997D01*
X287640081Y-141714478D01*
X287796235Y-141769106D01*
X287804236Y-141773253D01*
X287880909Y-141809325D01*
X287935557Y-141826913D01*
X287939998Y-141827250D01*
X287982669Y-141845088D01*
X288054193Y-141890173D01*
X288137602Y-141949861D01*
X288215925Y-142011507D01*
X288272191Y-142062468D01*
X288290000Y-142088027D01*
X288260522Y-142098624D01*
X288181154Y-142106989D01*
X288065494Y-142112027D01*
X287979968Y-142113000D01*
X287819881Y-142115798D01*
X287706020Y-142125882D01*
X287621291Y-142145786D01*
X287551458Y-142176500D01*
X287464070Y-142216697D01*
X287392293Y-142238630D01*
X287378488Y-142239999D01*
X287324100Y-142255129D01*
X287221547Y-142298307D01*
X287077877Y-142366217D01*
X286900137Y-142455542D01*
X286719188Y-142550267D01*
X286659452Y-142591504D01*
X286572191Y-142662862D01*
X286475043Y-142749823D01*
X286463223Y-142760936D01*
X286368830Y-142855004D01*
X286316999Y-142921119D01*
X286300232Y-142970398D01*
X286304024Y-142996954D01*
X286308649Y-143069294D01*
X286293677Y-143165003D01*
X286287822Y-143186415D01*
X286270923Y-143301831D01*
X286291818Y-143390639D01*
X286345966Y-143440276D01*
X286381836Y-143446500D01*
X286447057Y-143465370D01*
X286520664Y-143510000D01*
X286583233Y-143554027D01*
X286623896Y-143573452D01*
X286624863Y-143573500D01*
X286660546Y-143592115D01*
X286727568Y-143640049D01*
X286783949Y-143684625D01*
X286864677Y-143746246D01*
X286928141Y-143786598D01*
X286952272Y-143795750D01*
X286986593Y-143816518D01*
X287056422Y-143873173D01*
X287151832Y-143957238D01*
X287262899Y-144060236D01*
X287271073Y-144068002D01*
X287403509Y-144190535D01*
X287500769Y-144271496D01*
X287570340Y-144316348D01*
X287619704Y-144330554D01*
X287629895Y-144329940D01*
X287690707Y-144294797D01*
X287712894Y-144219055D01*
X287695409Y-144113298D01*
X287659663Y-144028350D01*
X287616768Y-143964778D01*
X287544243Y-143876528D01*
X287452862Y-143774713D01*
X287353399Y-143670444D01*
X287256628Y-143574834D01*
X287173323Y-143498997D01*
X287114259Y-143454044D01*
X287095540Y-143446500D01*
X287056257Y-143429356D01*
X286983654Y-143384996D01*
X286915871Y-143338750D01*
X286811035Y-143274385D01*
X286706253Y-143225961D01*
X286653337Y-143210181D01*
X286582925Y-143193432D01*
X286565718Y-143173591D01*
X286590677Y-143141037D01*
X286629942Y-143089423D01*
X286639000Y-143063232D01*
X286663733Y-143035218D01*
X286674896Y-143033750D01*
X286718950Y-143016551D01*
X286794671Y-142972221D01*
X286857459Y-142930026D01*
X286955007Y-142864000D01*
X287044396Y-142808358D01*
X287083500Y-142786751D01*
X287159297Y-142747120D01*
X287258796Y-142692837D01*
X287302807Y-142668224D01*
X287393318Y-142622247D01*
X287466790Y-142593774D01*
X287490807Y-142589250D01*
X287550825Y-142569193D01*
X287596356Y-142537231D01*
X287650552Y-142508357D01*
X287745385Y-142487656D01*
X287890486Y-142473315D01*
X287957189Y-142469345D01*
X288100747Y-142460417D01*
X288195330Y-142449224D01*
X288255446Y-142432019D01*
X288295601Y-142405055D01*
X288322197Y-142375095D01*
X288362803Y-142304670D01*
X288355916Y-142245068D01*
X288351684Y-142236606D01*
X288337464Y-142196928D01*
X288361305Y-142180008D01*
X288433877Y-142176500D01*
X288569776Y-142207157D01*
X288657174Y-142259589D01*
X288743007Y-142313740D01*
X288814301Y-142326363D01*
X288853493Y-142319251D01*
X288929308Y-142305405D01*
X289043645Y-142291732D01*
X289170100Y-142281311D01*
X289307559Y-142276949D01*
X289399263Y-142286182D01*
X289461885Y-142310983D01*
X289470852Y-142316900D01*
X289552022Y-142351350D01*
X289651889Y-142366923D01*
X289658427Y-142366999D01*
X289747326Y-142379471D01*
X289809833Y-142410192D01*
X289814001Y-142414624D01*
X289868933Y-142455015D01*
X289898910Y-142462249D01*
X289988638Y-142486758D01*
X290110006Y-142557109D01*
X290256299Y-142668537D01*
X290420801Y-142816278D01*
X290480750Y-142875000D01*
X290614132Y-143013548D01*
X290715137Y-143134213D01*
X290800187Y-143259648D01*
X290885702Y-143412508D01*
X290923269Y-143485523D01*
X290988521Y-143618648D01*
X291039249Y-143730652D01*
X291070479Y-143809917D01*
X291077241Y-143844825D01*
X291466875Y-143844825D01*
X291405388Y-143803734D01*
X291347178Y-143716324D01*
X291336991Y-143662255D01*
X291316938Y-143577930D01*
X291289366Y-143527744D01*
X291251036Y-143451601D01*
X291240641Y-143400744D01*
X291223898Y-143338051D01*
X291183020Y-143245845D01*
X291145525Y-143176625D01*
X291090544Y-143081228D01*
X291047130Y-143003130D01*
X291030072Y-142970250D01*
X290972106Y-142871437D01*
X290887438Y-142756847D01*
X290786577Y-142637568D01*
X290680032Y-142524691D01*
X290578311Y-142429307D01*
X290491923Y-142362505D01*
X290431377Y-142335376D01*
X290428365Y-142335249D01*
X290376897Y-142311567D01*
X290363266Y-142295562D01*
X290316930Y-142253892D01*
X290235178Y-142202165D01*
X290141810Y-142153262D01*
X290060623Y-142120061D01*
X290025910Y-142112999D01*
X289967577Y-142090564D01*
X289944543Y-142069643D01*
X289892952Y-142039425D01*
X289804633Y-142013631D01*
X289761296Y-142006101D01*
X289662015Y-141985653D01*
X289584845Y-141957847D01*
X289566208Y-141946270D01*
X289504250Y-141924637D01*
X289382383Y-141911312D01*
X289203694Y-141906628D01*
X289197880Y-141906625D01*
X289038090Y-141909069D01*
X288927804Y-141917689D01*
X288853164Y-141934415D01*
X288800316Y-141961174D01*
X288798873Y-141962187D01*
X288723862Y-142001772D01*
X288655146Y-142017304D01*
X288612704Y-142005767D01*
X288607500Y-141991080D01*
X288585022Y-141951084D01*
X288526477Y-141883697D01*
X288445204Y-141801422D01*
X288354539Y-141716763D01*
X288267819Y-141642221D01*
X288198382Y-141590302D01*
X288161808Y-141573250D01*
X288096324Y-141550398D01*
X288067751Y-141525625D01*
X288017616Y-141485479D01*
X287991955Y-141478000D01*
X287943014Y-141463934D01*
X287864809Y-141428793D01*
X287837208Y-141414499D01*
X287729119Y-141372290D01*
X287616474Y-141350589D01*
X287599553Y-141349874D01*
X287496325Y-141336731D01*
X287406358Y-141306299D01*
X287401000Y-141303375D01*
X287320733Y-141278367D01*
X287195762Y-141262656D01*
X287044197Y-141256243D01*
X286884149Y-141259126D01*
%TD*%
D11*
%TO.C,U2*%
G36*
X139706045Y-110774239D02*
G01*
X143383000Y-107097284D01*
X147059955Y-110774239D01*
X143383000Y-114451194D01*
X139706045Y-110774239D01*
G37*
G36*
G01*
X138831000Y-111613929D02*
X139502752Y-110942177D01*
G75*
G02*
X139591140Y-110942177I44194J-44194D01*
G01*
X139679528Y-111030565D01*
G75*
G02*
X139679528Y-111118953I-44194J-44194D01*
G01*
X139007776Y-111790705D01*
G75*
G02*
X138919388Y-111790705I-44194J44194D01*
G01*
X138831000Y-111702317D01*
G75*
G02*
X138831000Y-111613929I44194J44194D01*
G01*
G37*
G36*
G01*
X139184554Y-111967482D02*
X139856306Y-111295730D01*
G75*
G02*
X139944694Y-111295730I44194J-44194D01*
G01*
X140033082Y-111384118D01*
G75*
G02*
X140033082Y-111472506I-44194J-44194D01*
G01*
X139361330Y-112144258D01*
G75*
G02*
X139272942Y-112144258I-44194J44194D01*
G01*
X139184554Y-112055870D01*
G75*
G02*
X139184554Y-111967482I44194J44194D01*
G01*
G37*
G36*
G01*
X139538107Y-112321036D02*
X140209859Y-111649284D01*
G75*
G02*
X140298247Y-111649284I44194J-44194D01*
G01*
X140386635Y-111737672D01*
G75*
G02*
X140386635Y-111826060I-44194J-44194D01*
G01*
X139714883Y-112497812D01*
G75*
G02*
X139626495Y-112497812I-44194J44194D01*
G01*
X139538107Y-112409424D01*
G75*
G02*
X139538107Y-112321036I44194J44194D01*
G01*
G37*
G36*
G01*
X139891660Y-112674589D02*
X140563412Y-112002837D01*
G75*
G02*
X140651800Y-112002837I44194J-44194D01*
G01*
X140740188Y-112091225D01*
G75*
G02*
X140740188Y-112179613I-44194J-44194D01*
G01*
X140068436Y-112851365D01*
G75*
G02*
X139980048Y-112851365I-44194J44194D01*
G01*
X139891660Y-112762977D01*
G75*
G02*
X139891660Y-112674589I44194J44194D01*
G01*
G37*
G36*
G01*
X140245214Y-113028142D02*
X140916966Y-112356390D01*
G75*
G02*
X141005354Y-112356390I44194J-44194D01*
G01*
X141093742Y-112444778D01*
G75*
G02*
X141093742Y-112533166I-44194J-44194D01*
G01*
X140421990Y-113204918D01*
G75*
G02*
X140333602Y-113204918I-44194J44194D01*
G01*
X140245214Y-113116530D01*
G75*
G02*
X140245214Y-113028142I44194J44194D01*
G01*
G37*
G36*
G01*
X140598767Y-113381696D02*
X141270519Y-112709944D01*
G75*
G02*
X141358907Y-112709944I44194J-44194D01*
G01*
X141447295Y-112798332D01*
G75*
G02*
X141447295Y-112886720I-44194J-44194D01*
G01*
X140775543Y-113558472D01*
G75*
G02*
X140687155Y-113558472I-44194J44194D01*
G01*
X140598767Y-113470084D01*
G75*
G02*
X140598767Y-113381696I44194J44194D01*
G01*
G37*
G36*
G01*
X140952321Y-113735249D02*
X141624073Y-113063497D01*
G75*
G02*
X141712461Y-113063497I44194J-44194D01*
G01*
X141800849Y-113151885D01*
G75*
G02*
X141800849Y-113240273I-44194J-44194D01*
G01*
X141129097Y-113912025D01*
G75*
G02*
X141040709Y-113912025I-44194J44194D01*
G01*
X140952321Y-113823637D01*
G75*
G02*
X140952321Y-113735249I44194J44194D01*
G01*
G37*
G36*
G01*
X141305874Y-114088803D02*
X141977626Y-113417051D01*
G75*
G02*
X142066014Y-113417051I44194J-44194D01*
G01*
X142154402Y-113505439D01*
G75*
G02*
X142154402Y-113593827I-44194J-44194D01*
G01*
X141482650Y-114265579D01*
G75*
G02*
X141394262Y-114265579I-44194J44194D01*
G01*
X141305874Y-114177191D01*
G75*
G02*
X141305874Y-114088803I44194J44194D01*
G01*
G37*
G36*
G01*
X141659427Y-114442356D02*
X142331179Y-113770604D01*
G75*
G02*
X142419567Y-113770604I44194J-44194D01*
G01*
X142507955Y-113858992D01*
G75*
G02*
X142507955Y-113947380I-44194J-44194D01*
G01*
X141836203Y-114619132D01*
G75*
G02*
X141747815Y-114619132I-44194J44194D01*
G01*
X141659427Y-114530744D01*
G75*
G02*
X141659427Y-114442356I44194J44194D01*
G01*
G37*
G36*
G01*
X142012981Y-114795909D02*
X142684733Y-114124157D01*
G75*
G02*
X142773121Y-114124157I44194J-44194D01*
G01*
X142861509Y-114212545D01*
G75*
G02*
X142861509Y-114300933I-44194J-44194D01*
G01*
X142189757Y-114972685D01*
G75*
G02*
X142101369Y-114972685I-44194J44194D01*
G01*
X142012981Y-114884297D01*
G75*
G02*
X142012981Y-114795909I44194J44194D01*
G01*
G37*
G36*
G01*
X142366534Y-115149463D02*
X143038286Y-114477711D01*
G75*
G02*
X143126674Y-114477711I44194J-44194D01*
G01*
X143215062Y-114566099D01*
G75*
G02*
X143215062Y-114654487I-44194J-44194D01*
G01*
X142543310Y-115326239D01*
G75*
G02*
X142454922Y-115326239I-44194J44194D01*
G01*
X142366534Y-115237851D01*
G75*
G02*
X142366534Y-115149463I44194J44194D01*
G01*
G37*
G36*
G01*
X143550938Y-114566099D02*
X143639326Y-114477711D01*
G75*
G02*
X143727714Y-114477711I44194J-44194D01*
G01*
X144399466Y-115149463D01*
G75*
G02*
X144399466Y-115237851I-44194J-44194D01*
G01*
X144311078Y-115326239D01*
G75*
G02*
X144222690Y-115326239I-44194J44194D01*
G01*
X143550938Y-114654487D01*
G75*
G02*
X143550938Y-114566099I44194J44194D01*
G01*
G37*
G36*
G01*
X143904491Y-114212545D02*
X143992879Y-114124157D01*
G75*
G02*
X144081267Y-114124157I44194J-44194D01*
G01*
X144753019Y-114795909D01*
G75*
G02*
X144753019Y-114884297I-44194J-44194D01*
G01*
X144664631Y-114972685D01*
G75*
G02*
X144576243Y-114972685I-44194J44194D01*
G01*
X143904491Y-114300933D01*
G75*
G02*
X143904491Y-114212545I44194J44194D01*
G01*
G37*
G36*
G01*
X144258045Y-113858992D02*
X144346433Y-113770604D01*
G75*
G02*
X144434821Y-113770604I44194J-44194D01*
G01*
X145106573Y-114442356D01*
G75*
G02*
X145106573Y-114530744I-44194J-44194D01*
G01*
X145018185Y-114619132D01*
G75*
G02*
X144929797Y-114619132I-44194J44194D01*
G01*
X144258045Y-113947380D01*
G75*
G02*
X144258045Y-113858992I44194J44194D01*
G01*
G37*
G36*
G01*
X144611598Y-113505439D02*
X144699986Y-113417051D01*
G75*
G02*
X144788374Y-113417051I44194J-44194D01*
G01*
X145460126Y-114088803D01*
G75*
G02*
X145460126Y-114177191I-44194J-44194D01*
G01*
X145371738Y-114265579D01*
G75*
G02*
X145283350Y-114265579I-44194J44194D01*
G01*
X144611598Y-113593827D01*
G75*
G02*
X144611598Y-113505439I44194J44194D01*
G01*
G37*
G36*
G01*
X144965151Y-113151885D02*
X145053539Y-113063497D01*
G75*
G02*
X145141927Y-113063497I44194J-44194D01*
G01*
X145813679Y-113735249D01*
G75*
G02*
X145813679Y-113823637I-44194J-44194D01*
G01*
X145725291Y-113912025D01*
G75*
G02*
X145636903Y-113912025I-44194J44194D01*
G01*
X144965151Y-113240273D01*
G75*
G02*
X144965151Y-113151885I44194J44194D01*
G01*
G37*
G36*
G01*
X145318705Y-112798332D02*
X145407093Y-112709944D01*
G75*
G02*
X145495481Y-112709944I44194J-44194D01*
G01*
X146167233Y-113381696D01*
G75*
G02*
X146167233Y-113470084I-44194J-44194D01*
G01*
X146078845Y-113558472D01*
G75*
G02*
X145990457Y-113558472I-44194J44194D01*
G01*
X145318705Y-112886720D01*
G75*
G02*
X145318705Y-112798332I44194J44194D01*
G01*
G37*
G36*
G01*
X145672258Y-112444778D02*
X145760646Y-112356390D01*
G75*
G02*
X145849034Y-112356390I44194J-44194D01*
G01*
X146520786Y-113028142D01*
G75*
G02*
X146520786Y-113116530I-44194J-44194D01*
G01*
X146432398Y-113204918D01*
G75*
G02*
X146344010Y-113204918I-44194J44194D01*
G01*
X145672258Y-112533166D01*
G75*
G02*
X145672258Y-112444778I44194J44194D01*
G01*
G37*
G36*
G01*
X146025812Y-112091225D02*
X146114200Y-112002837D01*
G75*
G02*
X146202588Y-112002837I44194J-44194D01*
G01*
X146874340Y-112674589D01*
G75*
G02*
X146874340Y-112762977I-44194J-44194D01*
G01*
X146785952Y-112851365D01*
G75*
G02*
X146697564Y-112851365I-44194J44194D01*
G01*
X146025812Y-112179613D01*
G75*
G02*
X146025812Y-112091225I44194J44194D01*
G01*
G37*
G36*
G01*
X146379365Y-111737672D02*
X146467753Y-111649284D01*
G75*
G02*
X146556141Y-111649284I44194J-44194D01*
G01*
X147227893Y-112321036D01*
G75*
G02*
X147227893Y-112409424I-44194J-44194D01*
G01*
X147139505Y-112497812D01*
G75*
G02*
X147051117Y-112497812I-44194J44194D01*
G01*
X146379365Y-111826060D01*
G75*
G02*
X146379365Y-111737672I44194J44194D01*
G01*
G37*
G36*
G01*
X146732918Y-111384118D02*
X146821306Y-111295730D01*
G75*
G02*
X146909694Y-111295730I44194J-44194D01*
G01*
X147581446Y-111967482D01*
G75*
G02*
X147581446Y-112055870I-44194J-44194D01*
G01*
X147493058Y-112144258D01*
G75*
G02*
X147404670Y-112144258I-44194J44194D01*
G01*
X146732918Y-111472506D01*
G75*
G02*
X146732918Y-111384118I44194J44194D01*
G01*
G37*
G36*
G01*
X147086472Y-111030565D02*
X147174860Y-110942177D01*
G75*
G02*
X147263248Y-110942177I44194J-44194D01*
G01*
X147935000Y-111613929D01*
G75*
G02*
X147935000Y-111702317I-44194J-44194D01*
G01*
X147846612Y-111790705D01*
G75*
G02*
X147758224Y-111790705I-44194J44194D01*
G01*
X147086472Y-111118953D01*
G75*
G02*
X147086472Y-111030565I44194J44194D01*
G01*
G37*
G36*
G01*
X147086472Y-110429525D02*
X147758224Y-109757773D01*
G75*
G02*
X147846612Y-109757773I44194J-44194D01*
G01*
X147935000Y-109846161D01*
G75*
G02*
X147935000Y-109934549I-44194J-44194D01*
G01*
X147263248Y-110606301D01*
G75*
G02*
X147174860Y-110606301I-44194J44194D01*
G01*
X147086472Y-110517913D01*
G75*
G02*
X147086472Y-110429525I44194J44194D01*
G01*
G37*
G36*
G01*
X146732918Y-110075972D02*
X147404670Y-109404220D01*
G75*
G02*
X147493058Y-109404220I44194J-44194D01*
G01*
X147581446Y-109492608D01*
G75*
G02*
X147581446Y-109580996I-44194J-44194D01*
G01*
X146909694Y-110252748D01*
G75*
G02*
X146821306Y-110252748I-44194J44194D01*
G01*
X146732918Y-110164360D01*
G75*
G02*
X146732918Y-110075972I44194J44194D01*
G01*
G37*
G36*
G01*
X146379365Y-109722418D02*
X147051117Y-109050666D01*
G75*
G02*
X147139505Y-109050666I44194J-44194D01*
G01*
X147227893Y-109139054D01*
G75*
G02*
X147227893Y-109227442I-44194J-44194D01*
G01*
X146556141Y-109899194D01*
G75*
G02*
X146467753Y-109899194I-44194J44194D01*
G01*
X146379365Y-109810806D01*
G75*
G02*
X146379365Y-109722418I44194J44194D01*
G01*
G37*
G36*
G01*
X146025812Y-109368865D02*
X146697564Y-108697113D01*
G75*
G02*
X146785952Y-108697113I44194J-44194D01*
G01*
X146874340Y-108785501D01*
G75*
G02*
X146874340Y-108873889I-44194J-44194D01*
G01*
X146202588Y-109545641D01*
G75*
G02*
X146114200Y-109545641I-44194J44194D01*
G01*
X146025812Y-109457253D01*
G75*
G02*
X146025812Y-109368865I44194J44194D01*
G01*
G37*
G36*
G01*
X145672258Y-109015312D02*
X146344010Y-108343560D01*
G75*
G02*
X146432398Y-108343560I44194J-44194D01*
G01*
X146520786Y-108431948D01*
G75*
G02*
X146520786Y-108520336I-44194J-44194D01*
G01*
X145849034Y-109192088D01*
G75*
G02*
X145760646Y-109192088I-44194J44194D01*
G01*
X145672258Y-109103700D01*
G75*
G02*
X145672258Y-109015312I44194J44194D01*
G01*
G37*
G36*
G01*
X145318705Y-108661758D02*
X145990457Y-107990006D01*
G75*
G02*
X146078845Y-107990006I44194J-44194D01*
G01*
X146167233Y-108078394D01*
G75*
G02*
X146167233Y-108166782I-44194J-44194D01*
G01*
X145495481Y-108838534D01*
G75*
G02*
X145407093Y-108838534I-44194J44194D01*
G01*
X145318705Y-108750146D01*
G75*
G02*
X145318705Y-108661758I44194J44194D01*
G01*
G37*
G36*
G01*
X144965151Y-108308205D02*
X145636903Y-107636453D01*
G75*
G02*
X145725291Y-107636453I44194J-44194D01*
G01*
X145813679Y-107724841D01*
G75*
G02*
X145813679Y-107813229I-44194J-44194D01*
G01*
X145141927Y-108484981D01*
G75*
G02*
X145053539Y-108484981I-44194J44194D01*
G01*
X144965151Y-108396593D01*
G75*
G02*
X144965151Y-108308205I44194J44194D01*
G01*
G37*
G36*
G01*
X144611598Y-107954651D02*
X145283350Y-107282899D01*
G75*
G02*
X145371738Y-107282899I44194J-44194D01*
G01*
X145460126Y-107371287D01*
G75*
G02*
X145460126Y-107459675I-44194J-44194D01*
G01*
X144788374Y-108131427D01*
G75*
G02*
X144699986Y-108131427I-44194J44194D01*
G01*
X144611598Y-108043039D01*
G75*
G02*
X144611598Y-107954651I44194J44194D01*
G01*
G37*
G36*
G01*
X144258045Y-107601098D02*
X144929797Y-106929346D01*
G75*
G02*
X145018185Y-106929346I44194J-44194D01*
G01*
X145106573Y-107017734D01*
G75*
G02*
X145106573Y-107106122I-44194J-44194D01*
G01*
X144434821Y-107777874D01*
G75*
G02*
X144346433Y-107777874I-44194J44194D01*
G01*
X144258045Y-107689486D01*
G75*
G02*
X144258045Y-107601098I44194J44194D01*
G01*
G37*
G36*
G01*
X143904491Y-107247545D02*
X144576243Y-106575793D01*
G75*
G02*
X144664631Y-106575793I44194J-44194D01*
G01*
X144753019Y-106664181D01*
G75*
G02*
X144753019Y-106752569I-44194J-44194D01*
G01*
X144081267Y-107424321D01*
G75*
G02*
X143992879Y-107424321I-44194J44194D01*
G01*
X143904491Y-107335933D01*
G75*
G02*
X143904491Y-107247545I44194J44194D01*
G01*
G37*
G36*
G01*
X143550938Y-106893991D02*
X144222690Y-106222239D01*
G75*
G02*
X144311078Y-106222239I44194J-44194D01*
G01*
X144399466Y-106310627D01*
G75*
G02*
X144399466Y-106399015I-44194J-44194D01*
G01*
X143727714Y-107070767D01*
G75*
G02*
X143639326Y-107070767I-44194J44194D01*
G01*
X143550938Y-106982379D01*
G75*
G02*
X143550938Y-106893991I44194J44194D01*
G01*
G37*
G36*
G01*
X142366534Y-106310627D02*
X142454922Y-106222239D01*
G75*
G02*
X142543310Y-106222239I44194J-44194D01*
G01*
X143215062Y-106893991D01*
G75*
G02*
X143215062Y-106982379I-44194J-44194D01*
G01*
X143126674Y-107070767D01*
G75*
G02*
X143038286Y-107070767I-44194J44194D01*
G01*
X142366534Y-106399015D01*
G75*
G02*
X142366534Y-106310627I44194J44194D01*
G01*
G37*
G36*
G01*
X142012981Y-106664181D02*
X142101369Y-106575793D01*
G75*
G02*
X142189757Y-106575793I44194J-44194D01*
G01*
X142861509Y-107247545D01*
G75*
G02*
X142861509Y-107335933I-44194J-44194D01*
G01*
X142773121Y-107424321D01*
G75*
G02*
X142684733Y-107424321I-44194J44194D01*
G01*
X142012981Y-106752569D01*
G75*
G02*
X142012981Y-106664181I44194J44194D01*
G01*
G37*
G36*
G01*
X141659427Y-107017734D02*
X141747815Y-106929346D01*
G75*
G02*
X141836203Y-106929346I44194J-44194D01*
G01*
X142507955Y-107601098D01*
G75*
G02*
X142507955Y-107689486I-44194J-44194D01*
G01*
X142419567Y-107777874D01*
G75*
G02*
X142331179Y-107777874I-44194J44194D01*
G01*
X141659427Y-107106122D01*
G75*
G02*
X141659427Y-107017734I44194J44194D01*
G01*
G37*
G36*
G01*
X141305874Y-107371287D02*
X141394262Y-107282899D01*
G75*
G02*
X141482650Y-107282899I44194J-44194D01*
G01*
X142154402Y-107954651D01*
G75*
G02*
X142154402Y-108043039I-44194J-44194D01*
G01*
X142066014Y-108131427D01*
G75*
G02*
X141977626Y-108131427I-44194J44194D01*
G01*
X141305874Y-107459675D01*
G75*
G02*
X141305874Y-107371287I44194J44194D01*
G01*
G37*
G36*
G01*
X140952321Y-107724841D02*
X141040709Y-107636453D01*
G75*
G02*
X141129097Y-107636453I44194J-44194D01*
G01*
X141800849Y-108308205D01*
G75*
G02*
X141800849Y-108396593I-44194J-44194D01*
G01*
X141712461Y-108484981D01*
G75*
G02*
X141624073Y-108484981I-44194J44194D01*
G01*
X140952321Y-107813229D01*
G75*
G02*
X140952321Y-107724841I44194J44194D01*
G01*
G37*
G36*
G01*
X140598767Y-108078394D02*
X140687155Y-107990006D01*
G75*
G02*
X140775543Y-107990006I44194J-44194D01*
G01*
X141447295Y-108661758D01*
G75*
G02*
X141447295Y-108750146I-44194J-44194D01*
G01*
X141358907Y-108838534D01*
G75*
G02*
X141270519Y-108838534I-44194J44194D01*
G01*
X140598767Y-108166782D01*
G75*
G02*
X140598767Y-108078394I44194J44194D01*
G01*
G37*
G36*
G01*
X140245214Y-108431948D02*
X140333602Y-108343560D01*
G75*
G02*
X140421990Y-108343560I44194J-44194D01*
G01*
X141093742Y-109015312D01*
G75*
G02*
X141093742Y-109103700I-44194J-44194D01*
G01*
X141005354Y-109192088D01*
G75*
G02*
X140916966Y-109192088I-44194J44194D01*
G01*
X140245214Y-108520336D01*
G75*
G02*
X140245214Y-108431948I44194J44194D01*
G01*
G37*
G36*
G01*
X139891660Y-108785501D02*
X139980048Y-108697113D01*
G75*
G02*
X140068436Y-108697113I44194J-44194D01*
G01*
X140740188Y-109368865D01*
G75*
G02*
X140740188Y-109457253I-44194J-44194D01*
G01*
X140651800Y-109545641D01*
G75*
G02*
X140563412Y-109545641I-44194J44194D01*
G01*
X139891660Y-108873889D01*
G75*
G02*
X139891660Y-108785501I44194J44194D01*
G01*
G37*
G36*
G01*
X139538107Y-109139054D02*
X139626495Y-109050666D01*
G75*
G02*
X139714883Y-109050666I44194J-44194D01*
G01*
X140386635Y-109722418D01*
G75*
G02*
X140386635Y-109810806I-44194J-44194D01*
G01*
X140298247Y-109899194D01*
G75*
G02*
X140209859Y-109899194I-44194J44194D01*
G01*
X139538107Y-109227442D01*
G75*
G02*
X139538107Y-109139054I44194J44194D01*
G01*
G37*
G36*
G01*
X139184554Y-109492608D02*
X139272942Y-109404220D01*
G75*
G02*
X139361330Y-109404220I44194J-44194D01*
G01*
X140033082Y-110075972D01*
G75*
G02*
X140033082Y-110164360I-44194J-44194D01*
G01*
X139944694Y-110252748D01*
G75*
G02*
X139856306Y-110252748I-44194J44194D01*
G01*
X139184554Y-109580996D01*
G75*
G02*
X139184554Y-109492608I44194J44194D01*
G01*
G37*
G36*
G01*
X138831000Y-109846161D02*
X138919388Y-109757773D01*
G75*
G02*
X139007776Y-109757773I44194J-44194D01*
G01*
X139679528Y-110429525D01*
G75*
G02*
X139679528Y-110517913I-44194J-44194D01*
G01*
X139591140Y-110606301D01*
G75*
G02*
X139502752Y-110606301I-44194J44194D01*
G01*
X138831000Y-109934549D01*
G75*
G02*
X138831000Y-109846161I44194J44194D01*
G01*
G37*
%TD*%
D12*
%TO.C,SW56*%
X373987000Y-81400000D03*
D13*
X371487000Y-81400000D03*
X368987000Y-81400000D03*
D14*
X377087000Y-88900000D03*
X365887000Y-88900000D03*
D13*
X373987000Y-95900000D03*
X368987000Y-95900000D03*
%TD*%
D15*
%TO.C,REF\u002A\u002A*%
X366776000Y-88900000D03*
%TD*%
D16*
%TO.C,SW28*%
X360838750Y-86487000D03*
X360838750Y-110363000D03*
D17*
X376078750Y-86487000D03*
X376078750Y-110363000D03*
D18*
X374173750Y-98425000D03*
X364013750Y-98425000D03*
D19*
X365283750Y-95885000D03*
D16*
X369093750Y-98425000D03*
D19*
X371633750Y-93345000D03*
%TD*%
D20*
%TO.C,Y1*%
X149281408Y-99382013D03*
X147081408Y-99382013D03*
X147081408Y-101082013D03*
X149281408Y-101082013D03*
%TD*%
D21*
%TO.C,USB1*%
X145073000Y-80376000D03*
X136433000Y-80376000D03*
D22*
X145073000Y-84556000D03*
X136433000Y-84556000D03*
D23*
X137863000Y-84026000D03*
X143643000Y-84026000D03*
D24*
X140503000Y-85471000D03*
X141003000Y-85471000D03*
X141503000Y-85471000D03*
X140003000Y-85471000D03*
X142003000Y-85471000D03*
X139503000Y-85471000D03*
X142503000Y-85471000D03*
X139003000Y-85471000D03*
D25*
X138303000Y-85471000D03*
X143203000Y-85471000D03*
X137528000Y-85471000D03*
X143978000Y-85471000D03*
%TD*%
%TO.C,R7*%
G36*
G01*
X148357000Y-80347000D02*
X147807000Y-80347000D01*
G75*
G02*
X147607000Y-80147000I0J200000D01*
G01*
X147607000Y-79747000D01*
G75*
G02*
X147807000Y-79547000I200000J0D01*
G01*
X148357000Y-79547000D01*
G75*
G02*
X148557000Y-79747000I0J-200000D01*
G01*
X148557000Y-80147000D01*
G75*
G02*
X148357000Y-80347000I-200000J0D01*
G01*
G37*
G36*
G01*
X148357000Y-81997000D02*
X147807000Y-81997000D01*
G75*
G02*
X147607000Y-81797000I0J200000D01*
G01*
X147607000Y-81397000D01*
G75*
G02*
X147807000Y-81197000I200000J0D01*
G01*
X148357000Y-81197000D01*
G75*
G02*
X148557000Y-81397000I0J-200000D01*
G01*
X148557000Y-81797000D01*
G75*
G02*
X148357000Y-81997000I-200000J0D01*
G01*
G37*
%TD*%
%TO.C,R6*%
G36*
G01*
X145436000Y-87522000D02*
X144886000Y-87522000D01*
G75*
G02*
X144686000Y-87322000I0J200000D01*
G01*
X144686000Y-86922000D01*
G75*
G02*
X144886000Y-86722000I200000J0D01*
G01*
X145436000Y-86722000D01*
G75*
G02*
X145636000Y-86922000I0J-200000D01*
G01*
X145636000Y-87322000D01*
G75*
G02*
X145436000Y-87522000I-200000J0D01*
G01*
G37*
G36*
G01*
X145436000Y-89172000D02*
X144886000Y-89172000D01*
G75*
G02*
X144686000Y-88972000I0J200000D01*
G01*
X144686000Y-88572000D01*
G75*
G02*
X144886000Y-88372000I200000J0D01*
G01*
X145436000Y-88372000D01*
G75*
G02*
X145636000Y-88572000I0J-200000D01*
G01*
X145636000Y-88972000D01*
G75*
G02*
X145436000Y-89172000I-200000J0D01*
G01*
G37*
%TD*%
%TO.C,R5*%
G36*
G01*
X136673000Y-87522000D02*
X136123000Y-87522000D01*
G75*
G02*
X135923000Y-87322000I0J200000D01*
G01*
X135923000Y-86922000D01*
G75*
G02*
X136123000Y-86722000I200000J0D01*
G01*
X136673000Y-86722000D01*
G75*
G02*
X136873000Y-86922000I0J-200000D01*
G01*
X136873000Y-87322000D01*
G75*
G02*
X136673000Y-87522000I-200000J0D01*
G01*
G37*
G36*
G01*
X136673000Y-89172000D02*
X136123000Y-89172000D01*
G75*
G02*
X135923000Y-88972000I0J200000D01*
G01*
X135923000Y-88572000D01*
G75*
G02*
X136123000Y-88372000I200000J0D01*
G01*
X136673000Y-88372000D01*
G75*
G02*
X136873000Y-88572000I0J-200000D01*
G01*
X136873000Y-88972000D01*
G75*
G02*
X136673000Y-89172000I-200000J0D01*
G01*
G37*
%TD*%
%TO.C,R4*%
G36*
G01*
X144715338Y-116785571D02*
X144326429Y-116396662D01*
G75*
G02*
X144326429Y-116113820I141421J141421D01*
G01*
X144609272Y-115830977D01*
G75*
G02*
X144892114Y-115830977I141421J-141421D01*
G01*
X145281023Y-116219886D01*
G75*
G02*
X145281023Y-116502728I-141421J-141421D01*
G01*
X144998180Y-116785571D01*
G75*
G02*
X144715338Y-116785571I-141421J141421D01*
G01*
G37*
G36*
G01*
X143548612Y-117952297D02*
X143159703Y-117563388D01*
G75*
G02*
X143159703Y-117280546I141421J141421D01*
G01*
X143442546Y-116997703D01*
G75*
G02*
X143725388Y-116997703I141421J-141421D01*
G01*
X144114297Y-117386612D01*
G75*
G02*
X144114297Y-117669454I-141421J-141421D01*
G01*
X143831454Y-117952297D01*
G75*
G02*
X143548612Y-117952297I-141421J141421D01*
G01*
G37*
%TD*%
%TO.C,R3*%
G36*
G01*
X141753000Y-95016000D02*
X141203000Y-95016000D01*
G75*
G02*
X141003000Y-94816000I0J200000D01*
G01*
X141003000Y-94416000D01*
G75*
G02*
X141203000Y-94216000I200000J0D01*
G01*
X141753000Y-94216000D01*
G75*
G02*
X141953000Y-94416000I0J-200000D01*
G01*
X141953000Y-94816000D01*
G75*
G02*
X141753000Y-95016000I-200000J0D01*
G01*
G37*
G36*
G01*
X141753000Y-96666000D02*
X141203000Y-96666000D01*
G75*
G02*
X141003000Y-96466000I0J200000D01*
G01*
X141003000Y-96066000D01*
G75*
G02*
X141203000Y-95866000I200000J0D01*
G01*
X141753000Y-95866000D01*
G75*
G02*
X141953000Y-96066000I0J-200000D01*
G01*
X141953000Y-96466000D01*
G75*
G02*
X141753000Y-96666000I-200000J0D01*
G01*
G37*
%TD*%
%TO.C,R2*%
G36*
G01*
X139721000Y-95015000D02*
X139171000Y-95015000D01*
G75*
G02*
X138971000Y-94815000I0J200000D01*
G01*
X138971000Y-94415000D01*
G75*
G02*
X139171000Y-94215000I200000J0D01*
G01*
X139721000Y-94215000D01*
G75*
G02*
X139921000Y-94415000I0J-200000D01*
G01*
X139921000Y-94815000D01*
G75*
G02*
X139721000Y-95015000I-200000J0D01*
G01*
G37*
G36*
G01*
X139721000Y-96665000D02*
X139171000Y-96665000D01*
G75*
G02*
X138971000Y-96465000I0J200000D01*
G01*
X138971000Y-96065000D01*
G75*
G02*
X139171000Y-95865000I200000J0D01*
G01*
X139721000Y-95865000D01*
G75*
G02*
X139921000Y-96065000I0J-200000D01*
G01*
X139921000Y-96465000D01*
G75*
G02*
X139721000Y-96665000I-200000J0D01*
G01*
G37*
%TD*%
%TO.C,R1*%
G36*
G01*
X145995571Y-103442662D02*
X145606662Y-103831571D01*
G75*
G02*
X145323820Y-103831571I-141421J141421D01*
G01*
X145040977Y-103548728D01*
G75*
G02*
X145040977Y-103265886I141421J141421D01*
G01*
X145429886Y-102876977D01*
G75*
G02*
X145712728Y-102876977I141421J-141421D01*
G01*
X145995571Y-103159820D01*
G75*
G02*
X145995571Y-103442662I-141421J-141421D01*
G01*
G37*
G36*
G01*
X147162297Y-104609388D02*
X146773388Y-104998297D01*
G75*
G02*
X146490546Y-104998297I-141421J141421D01*
G01*
X146207703Y-104715454D01*
G75*
G02*
X146207703Y-104432612I141421J141421D01*
G01*
X146596612Y-104043703D01*
G75*
G02*
X146879454Y-104043703I141421J-141421D01*
G01*
X147162297Y-104326546D01*
G75*
G02*
X147162297Y-104609388I-141421J-141421D01*
G01*
G37*
%TD*%
D26*
%TO.C,J1*%
X118237000Y-100330000D03*
D27*
X118237000Y-102870000D03*
%TD*%
%TO.C,F1*%
G36*
G01*
X144643000Y-94345001D02*
X143393000Y-94345001D01*
G75*
G02*
X143143000Y-94095001I0J250000D01*
G01*
X143143000Y-93345001D01*
G75*
G02*
X143393000Y-93095001I250000J0D01*
G01*
X144643000Y-93095001D01*
G75*
G02*
X144893000Y-93345001I0J-250000D01*
G01*
X144893000Y-94095001D01*
G75*
G02*
X144643000Y-94345001I-250000J0D01*
G01*
G37*
G36*
G01*
X144643000Y-97145001D02*
X143393000Y-97145001D01*
G75*
G02*
X143143000Y-96895001I0J250000D01*
G01*
X143143000Y-96145001D01*
G75*
G02*
X143393000Y-95895001I250000J0D01*
G01*
X144643000Y-95895001D01*
G75*
G02*
X144893000Y-96145001I0J-250000D01*
G01*
X144893000Y-96895001D01*
G75*
G02*
X144643000Y-97145001I-250000J0D01*
G01*
G37*
%TD*%
D28*
%TO.C,D14*%
X141859000Y-91374000D03*
X141859000Y-89474000D03*
X139659000Y-89474000D03*
D20*
X139659000Y-91194000D03*
%TD*%
%TO.C,C10*%
G36*
G01*
X146808000Y-80460000D02*
X146308000Y-80460000D01*
G75*
G02*
X146083000Y-80235000I0J225000D01*
G01*
X146083000Y-79785000D01*
G75*
G02*
X146308000Y-79560000I225000J0D01*
G01*
X146808000Y-79560000D01*
G75*
G02*
X147033000Y-79785000I0J-225000D01*
G01*
X147033000Y-80235000D01*
G75*
G02*
X146808000Y-80460000I-225000J0D01*
G01*
G37*
G36*
G01*
X146808000Y-82010000D02*
X146308000Y-82010000D01*
G75*
G02*
X146083000Y-81785000I0J225000D01*
G01*
X146083000Y-81335000D01*
G75*
G02*
X146308000Y-81110000I225000J0D01*
G01*
X146808000Y-81110000D01*
G75*
G02*
X147033000Y-81335000I0J-225000D01*
G01*
X147033000Y-81785000D01*
G75*
G02*
X146808000Y-82010000I-225000J0D01*
G01*
G37*
%TD*%
%TO.C,C9*%
G36*
G01*
X141884587Y-103197967D02*
X141531033Y-102844413D01*
G75*
G02*
X141531033Y-102526215I159099J159099D01*
G01*
X141849231Y-102208017D01*
G75*
G02*
X142167429Y-102208017I159099J-159099D01*
G01*
X142520983Y-102561571D01*
G75*
G02*
X142520983Y-102879769I-159099J-159099D01*
G01*
X142202785Y-103197967D01*
G75*
G02*
X141884587Y-103197967I-159099J159099D01*
G01*
G37*
G36*
G01*
X140788571Y-104293983D02*
X140435017Y-103940429D01*
G75*
G02*
X140435017Y-103622231I159099J159099D01*
G01*
X140753215Y-103304033D01*
G75*
G02*
X141071413Y-103304033I159099J-159099D01*
G01*
X141424967Y-103657587D01*
G75*
G02*
X141424967Y-103975785I-159099J-159099D01*
G01*
X141106769Y-104293983D01*
G75*
G02*
X140788571Y-104293983I-159099J159099D01*
G01*
G37*
%TD*%
%TO.C,C8*%
G36*
G01*
X144799408Y-100583013D02*
X145299408Y-100583013D01*
G75*
G02*
X145524408Y-100808013I0J-225000D01*
G01*
X145524408Y-101258013D01*
G75*
G02*
X145299408Y-101483013I-225000J0D01*
G01*
X144799408Y-101483013D01*
G75*
G02*
X144574408Y-101258013I0J225000D01*
G01*
X144574408Y-100808013D01*
G75*
G02*
X144799408Y-100583013I225000J0D01*
G01*
G37*
G36*
G01*
X144799408Y-99033013D02*
X145299408Y-99033013D01*
G75*
G02*
X145524408Y-99258013I0J-225000D01*
G01*
X145524408Y-99708013D01*
G75*
G02*
X145299408Y-99933013I-225000J0D01*
G01*
X144799408Y-99933013D01*
G75*
G02*
X144574408Y-99708013I0J225000D01*
G01*
X144574408Y-99258013D01*
G75*
G02*
X144799408Y-99033013I225000J0D01*
G01*
G37*
%TD*%
%TO.C,C7*%
G36*
G01*
X151522408Y-99832012D02*
X151022408Y-99832012D01*
G75*
G02*
X150797408Y-99607012I0J225000D01*
G01*
X150797408Y-99157012D01*
G75*
G02*
X151022408Y-98932012I225000J0D01*
G01*
X151522408Y-98932012D01*
G75*
G02*
X151747408Y-99157012I0J-225000D01*
G01*
X151747408Y-99607012D01*
G75*
G02*
X151522408Y-99832012I-225000J0D01*
G01*
G37*
G36*
G01*
X151522408Y-101382012D02*
X151022408Y-101382012D01*
G75*
G02*
X150797408Y-101157012I0J225000D01*
G01*
X150797408Y-100707012D01*
G75*
G02*
X151022408Y-100482012I225000J0D01*
G01*
X151522408Y-100482012D01*
G75*
G02*
X151747408Y-100707012I0J-225000D01*
G01*
X151747408Y-101157012D01*
G75*
G02*
X151522408Y-101382012I-225000J0D01*
G01*
G37*
%TD*%
%TO.C,C6*%
G36*
G01*
X142987579Y-104126975D02*
X142634025Y-103773421D01*
G75*
G02*
X142634025Y-103455223I159099J159099D01*
G01*
X142952223Y-103137025D01*
G75*
G02*
X143270421Y-103137025I159099J-159099D01*
G01*
X143623975Y-103490579D01*
G75*
G02*
X143623975Y-103808777I-159099J-159099D01*
G01*
X143305777Y-104126975D01*
G75*
G02*
X142987579Y-104126975I-159099J159099D01*
G01*
G37*
G36*
G01*
X141891563Y-105222991D02*
X141538009Y-104869437D01*
G75*
G02*
X141538009Y-104551239I159099J159099D01*
G01*
X141856207Y-104233041D01*
G75*
G02*
X142174405Y-104233041I159099J-159099D01*
G01*
X142527959Y-104586595D01*
G75*
G02*
X142527959Y-104904793I-159099J-159099D01*
G01*
X142209761Y-105222991D01*
G75*
G02*
X141891563Y-105222991I-159099J159099D01*
G01*
G37*
%TD*%
%TO.C,C5*%
G36*
G01*
X145020975Y-104535421D02*
X144667421Y-104888975D01*
G75*
G02*
X144349223Y-104888975I-159099J159099D01*
G01*
X144031025Y-104570777D01*
G75*
G02*
X144031025Y-104252579I159099J159099D01*
G01*
X144384579Y-103899025D01*
G75*
G02*
X144702777Y-103899025I159099J-159099D01*
G01*
X145020975Y-104217223D01*
G75*
G02*
X145020975Y-104535421I-159099J-159099D01*
G01*
G37*
G36*
G01*
X146116991Y-105631437D02*
X145763437Y-105984991D01*
G75*
G02*
X145445239Y-105984991I-159099J159099D01*
G01*
X145127041Y-105666793D01*
G75*
G02*
X145127041Y-105348595I159099J159099D01*
G01*
X145480595Y-104995041D01*
G75*
G02*
X145798793Y-104995041I159099J-159099D01*
G01*
X146116991Y-105313239D01*
G75*
G02*
X146116991Y-105631437I-159099J-159099D01*
G01*
G37*
%TD*%
%TO.C,C4*%
G36*
G01*
X138680000Y-106977000D02*
X138180000Y-106977000D01*
G75*
G02*
X137955000Y-106752000I0J225000D01*
G01*
X137955000Y-106302000D01*
G75*
G02*
X138180000Y-106077000I225000J0D01*
G01*
X138680000Y-106077000D01*
G75*
G02*
X138905000Y-106302000I0J-225000D01*
G01*
X138905000Y-106752000D01*
G75*
G02*
X138680000Y-106977000I-225000J0D01*
G01*
G37*
G36*
G01*
X138680000Y-108527000D02*
X138180000Y-108527000D01*
G75*
G02*
X137955000Y-108302000I0J225000D01*
G01*
X137955000Y-107852000D01*
G75*
G02*
X138180000Y-107627000I225000J0D01*
G01*
X138680000Y-107627000D01*
G75*
G02*
X138905000Y-107852000I0J-225000D01*
G01*
X138905000Y-108302000D01*
G75*
G02*
X138680000Y-108527000I-225000J0D01*
G01*
G37*
%TD*%
%TO.C,C3*%
G36*
G01*
X140531000Y-116463000D02*
X140531000Y-116963000D01*
G75*
G02*
X140306000Y-117188000I-225000J0D01*
G01*
X139856000Y-117188000D01*
G75*
G02*
X139631000Y-116963000I0J225000D01*
G01*
X139631000Y-116463000D01*
G75*
G02*
X139856000Y-116238000I225000J0D01*
G01*
X140306000Y-116238000D01*
G75*
G02*
X140531000Y-116463000I0J-225000D01*
G01*
G37*
G36*
G01*
X142081000Y-116463000D02*
X142081000Y-116963000D01*
G75*
G02*
X141856000Y-117188000I-225000J0D01*
G01*
X141406000Y-117188000D01*
G75*
G02*
X141181000Y-116963000I0J225000D01*
G01*
X141181000Y-116463000D01*
G75*
G02*
X141406000Y-116238000I225000J0D01*
G01*
X141856000Y-116238000D01*
G75*
G02*
X142081000Y-116463000I0J-225000D01*
G01*
G37*
%TD*%
%TO.C,C2*%
G36*
G01*
X137193959Y-111313405D02*
X136840405Y-111666959D01*
G75*
G02*
X136522207Y-111666959I-159099J159099D01*
G01*
X136204009Y-111348761D01*
G75*
G02*
X136204009Y-111030563I159099J159099D01*
G01*
X136557563Y-110677009D01*
G75*
G02*
X136875761Y-110677009I159099J-159099D01*
G01*
X137193959Y-110995207D01*
G75*
G02*
X137193959Y-111313405I-159099J-159099D01*
G01*
G37*
G36*
G01*
X138289975Y-112409421D02*
X137936421Y-112762975D01*
G75*
G02*
X137618223Y-112762975I-159099J159099D01*
G01*
X137300025Y-112444777D01*
G75*
G02*
X137300025Y-112126579I159099J159099D01*
G01*
X137653579Y-111773025D01*
G75*
G02*
X137971777Y-111773025I159099J-159099D01*
G01*
X138289975Y-112091223D01*
G75*
G02*
X138289975Y-112409421I-159099J-159099D01*
G01*
G37*
%TD*%
%TO.C,C1*%
G36*
G01*
X149671595Y-111920959D02*
X149318041Y-111567405D01*
G75*
G02*
X149318041Y-111249207I159099J159099D01*
G01*
X149636239Y-110931009D01*
G75*
G02*
X149954437Y-110931009I159099J-159099D01*
G01*
X150307991Y-111284563D01*
G75*
G02*
X150307991Y-111602761I-159099J-159099D01*
G01*
X149989793Y-111920959D01*
G75*
G02*
X149671595Y-111920959I-159099J159099D01*
G01*
G37*
G36*
G01*
X148575579Y-113016975D02*
X148222025Y-112663421D01*
G75*
G02*
X148222025Y-112345223I159099J159099D01*
G01*
X148540223Y-112027025D01*
G75*
G02*
X148858421Y-112027025I159099J-159099D01*
G01*
X149211975Y-112380579D01*
G75*
G02*
X149211975Y-112698777I-159099J-159099D01*
G01*
X148893777Y-113016975D01*
G75*
G02*
X148575579Y-113016975I-159099J159099D01*
G01*
G37*
%TD*%
D16*
%TO.C,SW55*%
X304800000Y-137795000D03*
X190500000Y-137795000D03*
D17*
X304800000Y-153035000D03*
X190500000Y-153035000D03*
D18*
X252730000Y-146050000D03*
X242570000Y-146050000D03*
D19*
X243840000Y-143510000D03*
D16*
X247650000Y-146050000D03*
D19*
X250190000Y-140970000D03*
%TD*%
D16*
%TO.C,SW57*%
X371475000Y-116205000D03*
X347662500Y-116205000D03*
D17*
X371475000Y-100965000D03*
X347662500Y-100965000D03*
D18*
X364648750Y-107950000D03*
X354488750Y-107950000D03*
D19*
X355758750Y-105410000D03*
D16*
X359568750Y-107950000D03*
D19*
X362108750Y-102870000D03*
%TD*%
D18*
%TO.C,SW15*%
X371792500Y-88900000D03*
X361632500Y-88900000D03*
D19*
X362902500Y-86360000D03*
D16*
X366712500Y-88900000D03*
D19*
X369252500Y-83820000D03*
%TD*%
D18*
%TO.C,SW1*%
X352742500Y-88900000D03*
X342582500Y-88900000D03*
D19*
X343852500Y-86360000D03*
D16*
X347662500Y-88900000D03*
D19*
X350202500Y-83820000D03*
%TD*%
D16*
%TO.C,SW54*%
X285750000Y-137795000D03*
X247650000Y-137795000D03*
D17*
X285750000Y-153035000D03*
X247650000Y-153035000D03*
D18*
X271780000Y-146050000D03*
X261620000Y-146050000D03*
D16*
X266700000Y-146050000D03*
D19*
X262890000Y-143510000D03*
X269240000Y-140970000D03*
%TD*%
D16*
%TO.C,SW53*%
X228600000Y-137795000D03*
X190500000Y-137795000D03*
D17*
X228600000Y-153035000D03*
X190500000Y-153035000D03*
D18*
X214630000Y-146050000D03*
X204470000Y-146050000D03*
D16*
X209550000Y-146050000D03*
D19*
X205740000Y-143510000D03*
X212090000Y-140970000D03*
%TD*%
D18*
%TO.C,SW52*%
X374173750Y-146050000D03*
X364013750Y-146050000D03*
D19*
X365283750Y-143510000D03*
D16*
X369093750Y-146050000D03*
D19*
X371633750Y-140970000D03*
%TD*%
D18*
%TO.C,SW51*%
X352742500Y-146050000D03*
X342582500Y-146050000D03*
D19*
X343852500Y-143510000D03*
D16*
X347662500Y-146050000D03*
D19*
X350202500Y-140970000D03*
%TD*%
D18*
%TO.C,SW50*%
X331311250Y-146050000D03*
X321151250Y-146050000D03*
D19*
X322421250Y-143510000D03*
D16*
X326231250Y-146050000D03*
D19*
X328771250Y-140970000D03*
%TD*%
D18*
%TO.C,SW49*%
X309880000Y-146050000D03*
X299720000Y-146050000D03*
D19*
X300990000Y-143510000D03*
D16*
X304800000Y-146050000D03*
D19*
X307340000Y-140970000D03*
%TD*%
D16*
%TO.C,SW48*%
X280987500Y-137795000D03*
X257175000Y-137795000D03*
D17*
X280987500Y-153035000D03*
X257175000Y-153035000D03*
D18*
X274161250Y-146050000D03*
X264001250Y-146050000D03*
D19*
X265271250Y-143510000D03*
D16*
X269081250Y-146050000D03*
D19*
X271621250Y-140970000D03*
%TD*%
D16*
%TO.C,SW47*%
X233362500Y-137795000D03*
X209550000Y-137795000D03*
D17*
X233362500Y-153035000D03*
X209550000Y-153035000D03*
D18*
X226536250Y-146050000D03*
X216376250Y-146050000D03*
D19*
X217646250Y-143510000D03*
D16*
X221456250Y-146050000D03*
D19*
X223996250Y-140970000D03*
%TD*%
D18*
%TO.C,SW46*%
X195580000Y-146050000D03*
X185420000Y-146050000D03*
D19*
X186690000Y-143510000D03*
D16*
X190500000Y-146050000D03*
D19*
X193040000Y-140970000D03*
%TD*%
D18*
%TO.C,SW45*%
X174148750Y-146050000D03*
X163988750Y-146050000D03*
D19*
X165258750Y-143510000D03*
D16*
X169068750Y-146050000D03*
D19*
X171608750Y-140970000D03*
%TD*%
D18*
%TO.C,SW44*%
X152717500Y-146050000D03*
X142557500Y-146050000D03*
D19*
X143827500Y-143510000D03*
D16*
X147637500Y-146050000D03*
D19*
X150177500Y-140970000D03*
%TD*%
D18*
%TO.C,SW43*%
X131286250Y-146050000D03*
X121126250Y-146050000D03*
D19*
X122396250Y-143510000D03*
D16*
X126206250Y-146050000D03*
D19*
X128746250Y-140970000D03*
%TD*%
D18*
%TO.C,SW42*%
X369411250Y-127000000D03*
X359251250Y-127000000D03*
D19*
X360521250Y-124460000D03*
D16*
X364331250Y-127000000D03*
D19*
X366871250Y-121920000D03*
%TD*%
D18*
%TO.C,SW41*%
X343217500Y-127000000D03*
X333057500Y-127000000D03*
D19*
X334327500Y-124460000D03*
D16*
X338137500Y-127000000D03*
D19*
X340677500Y-121920000D03*
%TD*%
D18*
%TO.C,SW40*%
X324167500Y-127000000D03*
X314007500Y-127000000D03*
D19*
X315277500Y-124460000D03*
D16*
X319087500Y-127000000D03*
D19*
X321627500Y-121920000D03*
%TD*%
D18*
%TO.C,SW39*%
X305117500Y-127000000D03*
X294957500Y-127000000D03*
D19*
X296227500Y-124460000D03*
D16*
X300037500Y-127000000D03*
D19*
X302577500Y-121920000D03*
%TD*%
D18*
%TO.C,SW38*%
X286067500Y-127000000D03*
X275907500Y-127000000D03*
D19*
X277177500Y-124460000D03*
D16*
X280987500Y-127000000D03*
D19*
X283527500Y-121920000D03*
%TD*%
D18*
%TO.C,SW37*%
X267017500Y-127000000D03*
X256857500Y-127000000D03*
D19*
X258127500Y-124460000D03*
D16*
X261937500Y-127000000D03*
D19*
X264477500Y-121920000D03*
%TD*%
D18*
%TO.C,SW36*%
X247967500Y-127000000D03*
X237807500Y-127000000D03*
D19*
X239077500Y-124460000D03*
D16*
X242887500Y-127000000D03*
D19*
X245427500Y-121920000D03*
%TD*%
D18*
%TO.C,SW35*%
X228917500Y-127000000D03*
X218757500Y-127000000D03*
D19*
X220027500Y-124460000D03*
D16*
X223837500Y-127000000D03*
D19*
X226377500Y-121920000D03*
%TD*%
D18*
%TO.C,SW34*%
X209867500Y-127000000D03*
X199707500Y-127000000D03*
D19*
X200977500Y-124460000D03*
D16*
X204787500Y-127000000D03*
D19*
X207327500Y-121920000D03*
%TD*%
D18*
%TO.C,SW33*%
X190817500Y-127000000D03*
X180657500Y-127000000D03*
D19*
X181927500Y-124460000D03*
D16*
X185737500Y-127000000D03*
D19*
X188277500Y-121920000D03*
%TD*%
D18*
%TO.C,SW32*%
X171767500Y-127000000D03*
X161607500Y-127000000D03*
D19*
X162877500Y-124460000D03*
D16*
X166687500Y-127000000D03*
D19*
X169227500Y-121920000D03*
%TD*%
D18*
%TO.C,SW31*%
X152717500Y-127000000D03*
X142557500Y-127000000D03*
D19*
X143827500Y-124460000D03*
D16*
X147637500Y-127000000D03*
D19*
X150177500Y-121920000D03*
%TD*%
D18*
%TO.C,SW30*%
X131286250Y-127000000D03*
X121126250Y-127000000D03*
D19*
X122396250Y-124460000D03*
D16*
X126206250Y-127000000D03*
D19*
X128746250Y-121920000D03*
%TD*%
D16*
%TO.C,SW29*%
X147637500Y-135255000D03*
X123825000Y-135255000D03*
D17*
X147637500Y-120015000D03*
X123825000Y-120015000D03*
D18*
X140811250Y-127000000D03*
X130651250Y-127000000D03*
D19*
X131921250Y-124460000D03*
D16*
X135731250Y-127000000D03*
D19*
X138271250Y-121920000D03*
%TD*%
D18*
%TO.C,SW27*%
X352742500Y-107950000D03*
X342582500Y-107950000D03*
D19*
X343852500Y-105410000D03*
D16*
X347662500Y-107950000D03*
D19*
X350202500Y-102870000D03*
%TD*%
D18*
%TO.C,SW26*%
X333692500Y-107950000D03*
X323532500Y-107950000D03*
D19*
X324802500Y-105410000D03*
D16*
X328612500Y-107950000D03*
D19*
X331152500Y-102870000D03*
%TD*%
D18*
%TO.C,SW25*%
X314642500Y-107950000D03*
X304482500Y-107950000D03*
D19*
X305752500Y-105410000D03*
D16*
X309562500Y-107950000D03*
D19*
X312102500Y-102870000D03*
%TD*%
D18*
%TO.C,SW24*%
X295592500Y-107950000D03*
X285432500Y-107950000D03*
D19*
X286702500Y-105410000D03*
D16*
X290512500Y-107950000D03*
D19*
X293052500Y-102870000D03*
%TD*%
D18*
%TO.C,SW23*%
X276542500Y-107950000D03*
X266382500Y-107950000D03*
D19*
X267652500Y-105410000D03*
D16*
X271462500Y-107950000D03*
D19*
X274002500Y-102870000D03*
%TD*%
D18*
%TO.C,SW22*%
X257492500Y-107950000D03*
X247332500Y-107950000D03*
D19*
X248602500Y-105410000D03*
D16*
X252412500Y-107950000D03*
D19*
X254952500Y-102870000D03*
%TD*%
D18*
%TO.C,SW21*%
X238442500Y-107950000D03*
X228282500Y-107950000D03*
D19*
X229552500Y-105410000D03*
D16*
X233362500Y-107950000D03*
D19*
X235902500Y-102870000D03*
%TD*%
D18*
%TO.C,SW20*%
X219392500Y-107950000D03*
X209232500Y-107950000D03*
D19*
X210502500Y-105410000D03*
D16*
X214312500Y-107950000D03*
D19*
X216852500Y-102870000D03*
%TD*%
D18*
%TO.C,SW19*%
X200342500Y-107950000D03*
X190182500Y-107950000D03*
D19*
X191452500Y-105410000D03*
D16*
X195262500Y-107950000D03*
D19*
X197802500Y-102870000D03*
%TD*%
D18*
%TO.C,SW18*%
X181292500Y-107950000D03*
X171132500Y-107950000D03*
D19*
X172402500Y-105410000D03*
D16*
X176212500Y-107950000D03*
D19*
X178752500Y-102870000D03*
%TD*%
D18*
%TO.C,SW17*%
X162242500Y-107950000D03*
X152082500Y-107950000D03*
D19*
X153352500Y-105410000D03*
D16*
X157162500Y-107950000D03*
D19*
X159702500Y-102870000D03*
%TD*%
D18*
%TO.C,SW16*%
X136048750Y-107950000D03*
X125888750Y-107950000D03*
D19*
X127158750Y-105410000D03*
D16*
X130968750Y-107950000D03*
D19*
X133508750Y-102870000D03*
%TD*%
D18*
%TO.C,SW14*%
X347980000Y-88900000D03*
X337820000Y-88900000D03*
D19*
X339090000Y-86360000D03*
D16*
X342900000Y-88900000D03*
D19*
X345440000Y-83820000D03*
%TD*%
D18*
%TO.C,SW13*%
X328930000Y-88900000D03*
X318770000Y-88900000D03*
D19*
X320040000Y-86360000D03*
D16*
X323850000Y-88900000D03*
D19*
X326390000Y-83820000D03*
%TD*%
D18*
%TO.C,SW12*%
X309880000Y-88900000D03*
X299720000Y-88900000D03*
D19*
X300990000Y-86360000D03*
D16*
X304800000Y-88900000D03*
D19*
X307340000Y-83820000D03*
%TD*%
D18*
%TO.C,SW11*%
X290830000Y-88900000D03*
X280670000Y-88900000D03*
D19*
X281940000Y-86360000D03*
D16*
X285750000Y-88900000D03*
D19*
X288290000Y-83820000D03*
%TD*%
D18*
%TO.C,SW10*%
X271780000Y-88900000D03*
X261620000Y-88900000D03*
D19*
X262890000Y-86360000D03*
D16*
X266700000Y-88900000D03*
D19*
X269240000Y-83820000D03*
%TD*%
D18*
%TO.C,SW9*%
X252730000Y-88900000D03*
X242570000Y-88900000D03*
D19*
X243840000Y-86360000D03*
D16*
X247650000Y-88900000D03*
D19*
X250190000Y-83820000D03*
%TD*%
D18*
%TO.C,SW8*%
X233680000Y-88900000D03*
X223520000Y-88900000D03*
D19*
X224790000Y-86360000D03*
D16*
X228600000Y-88900000D03*
D19*
X231140000Y-83820000D03*
%TD*%
D18*
%TO.C,SW7*%
X214630000Y-88900000D03*
X204470000Y-88900000D03*
D19*
X205740000Y-86360000D03*
D16*
X209550000Y-88900000D03*
D19*
X212090000Y-83820000D03*
%TD*%
D18*
%TO.C,SW6*%
X195580000Y-88900000D03*
X185420000Y-88900000D03*
D19*
X186690000Y-86360000D03*
D16*
X190500000Y-88900000D03*
D19*
X193040000Y-83820000D03*
%TD*%
D18*
%TO.C,SW5*%
X176530000Y-88900000D03*
X166370000Y-88900000D03*
D19*
X167640000Y-86360000D03*
D16*
X171450000Y-88900000D03*
D19*
X173990000Y-83820000D03*
%TD*%
D18*
%TO.C,SW4*%
X157480000Y-88900000D03*
X147320000Y-88900000D03*
D19*
X148590000Y-86360000D03*
D16*
X152400000Y-88900000D03*
D19*
X154940000Y-83820000D03*
%TD*%
D18*
%TO.C,SW3*%
X133667500Y-88900000D03*
X123507500Y-88900000D03*
D19*
X124777500Y-86360000D03*
D16*
X128587500Y-88900000D03*
D19*
X131127500Y-83820000D03*
%TD*%
D18*
%TO.C,SW2*%
X376555000Y-88900000D03*
X366395000Y-88900000D03*
D19*
X367665000Y-86360000D03*
D16*
X371475000Y-88900000D03*
D19*
X374015000Y-83820000D03*
%TD*%
D29*
%TO.C,D26*%
X359984000Y-138970000D03*
X359034000Y-140970000D03*
X360934000Y-140970000D03*
%TD*%
%TO.C,D25*%
X315275000Y-138970000D03*
X314325000Y-140970000D03*
X316225000Y-140970000D03*
%TD*%
%TO.C,D24*%
X239903000Y-138938000D03*
X238953000Y-140938000D03*
X240853000Y-140938000D03*
%TD*%
%TO.C,D23*%
X180147000Y-138970000D03*
X179197000Y-140970000D03*
X181097000Y-140970000D03*
%TD*%
%TO.C,D22*%
X138115000Y-138970000D03*
X137165000Y-140970000D03*
X139065000Y-140970000D03*
%TD*%
D30*
%TO.C,D21*%
X354711000Y-121918000D03*
X354711000Y-118618000D03*
%TD*%
D29*
%TO.C,D20*%
X328615000Y-119920000D03*
X327665000Y-121920000D03*
X329565000Y-121920000D03*
%TD*%
%TO.C,D19*%
X290515000Y-119920000D03*
X289565000Y-121920000D03*
X291465000Y-121920000D03*
%TD*%
%TO.C,D18*%
X252415000Y-119920000D03*
X251465000Y-121920000D03*
X253365000Y-121920000D03*
%TD*%
%TO.C,D17*%
X214376000Y-119904000D03*
X213426000Y-121904000D03*
X215326000Y-121904000D03*
%TD*%
%TO.C,D16*%
X176337000Y-119920000D03*
X175387000Y-121920000D03*
X177287000Y-121920000D03*
%TD*%
%TO.C,D15*%
X142687000Y-119920000D03*
X141737000Y-121920000D03*
X143637000Y-121920000D03*
%TD*%
%TO.C,D13*%
X338140000Y-100870000D03*
X337190000Y-102870000D03*
X339090000Y-102870000D03*
%TD*%
%TO.C,D12*%
X300831250Y-100806250D03*
X299881250Y-102806250D03*
X301781250Y-102806250D03*
%TD*%
%TO.C,D11*%
X261874000Y-100854000D03*
X260924000Y-102854000D03*
X262824000Y-102854000D03*
%TD*%
%TO.C,D10*%
X223901000Y-100854000D03*
X222951000Y-102854000D03*
X224851000Y-102854000D03*
%TD*%
%TO.C,D9*%
X185801000Y-100870000D03*
X184851000Y-102870000D03*
X186751000Y-102870000D03*
%TD*%
%TO.C,D8*%
X154752000Y-100362000D03*
X153802000Y-102362000D03*
X155702000Y-102362000D03*
%TD*%
D30*
%TO.C,D7*%
X357632000Y-84455000D03*
X357632000Y-81155000D03*
%TD*%
D29*
%TO.C,D6*%
X334838000Y-81820000D03*
X333888000Y-83820000D03*
X335788000Y-83820000D03*
%TD*%
%TO.C,D5*%
X295275000Y-81804000D03*
X294325000Y-83804000D03*
X296225000Y-83804000D03*
%TD*%
%TO.C,D4*%
X257241000Y-81820000D03*
X256291000Y-83820000D03*
X258191000Y-83820000D03*
%TD*%
%TO.C,D3*%
X219014000Y-81820000D03*
X218064000Y-83820000D03*
X219964000Y-83820000D03*
%TD*%
%TO.C,D2*%
X180914000Y-81804000D03*
X179964000Y-83804000D03*
X181864000Y-83804000D03*
%TD*%
%TO.C,D1*%
X149418000Y-81804000D03*
X148468000Y-83804000D03*
X150368000Y-83804000D03*
%TD*%
M02*
