%TF.GenerationSoftware,KiCad,Pcbnew,5.1.10-88a1d61d58~90~ubuntu20.04.1*%
%TF.CreationDate,2021-09-07T19:06:16-07:00*%
%TF.ProjectId,bkc40,626b6334-302e-46b6-9963-61645f706362,rev?*%
%TF.SameCoordinates,Original*%
%TF.FileFunction,Legend,Bot*%
%TF.FilePolarity,Positive*%
%FSLAX46Y46*%
G04 Gerber Fmt 4.6, Leading zero omitted, Abs format (unit mm)*
G04 Created by KiCad (PCBNEW 5.1.10-88a1d61d58~90~ubuntu20.04.1) date 2021-09-07 19:06:16*
%MOMM*%
%LPD*%
G01*
G04 APERTURE LIST*
%ADD10C,0.150000*%
%ADD11C,0.120000*%
G04 APERTURE END LIST*
D10*
X367712523Y-93146571D02*
X367569666Y-93194190D01*
X367522047Y-93241809D01*
X367474428Y-93337047D01*
X367474428Y-93479904D01*
X367522047Y-93575142D01*
X367569666Y-93622761D01*
X367664904Y-93670380D01*
X368045857Y-93670380D01*
X368045857Y-92670380D01*
X367712523Y-92670380D01*
X367617285Y-92718000D01*
X367569666Y-92765619D01*
X367522047Y-92860857D01*
X367522047Y-92956095D01*
X367569666Y-93051333D01*
X367617285Y-93098952D01*
X367712523Y-93146571D01*
X368045857Y-93146571D01*
X367093476Y-93384666D02*
X366617285Y-93384666D01*
X367188714Y-93670380D02*
X366855380Y-92670380D01*
X366522047Y-93670380D01*
X366188714Y-93146571D02*
X365855380Y-93146571D01*
X365712523Y-93670380D02*
X366188714Y-93670380D01*
X366188714Y-92670380D01*
X365712523Y-92670380D01*
X116149380Y-100401618D02*
X115673190Y-100068284D01*
X116149380Y-99830189D02*
X115149380Y-99830189D01*
X115149380Y-100211141D01*
X115197000Y-100306379D01*
X115244619Y-100353999D01*
X115339857Y-100401618D01*
X115482714Y-100401618D01*
X115577952Y-100353999D01*
X115625571Y-100306379D01*
X115673190Y-100211141D01*
X115673190Y-99830189D01*
X115625571Y-100830189D02*
X115625571Y-101163522D01*
X116149380Y-101306379D02*
X116149380Y-100830189D01*
X115149380Y-100830189D01*
X115149380Y-101306379D01*
X116101761Y-101687332D02*
X116149380Y-101830189D01*
X116149380Y-102068284D01*
X116101761Y-102163522D01*
X116054142Y-102211141D01*
X115958904Y-102258760D01*
X115863666Y-102258760D01*
X115768428Y-102211141D01*
X115720809Y-102163522D01*
X115673190Y-102068284D01*
X115625571Y-101877808D01*
X115577952Y-101782570D01*
X115530333Y-101734951D01*
X115435095Y-101687332D01*
X115339857Y-101687332D01*
X115244619Y-101734951D01*
X115197000Y-101782570D01*
X115149380Y-101877808D01*
X115149380Y-102115903D01*
X115197000Y-102258760D01*
X115625571Y-102687332D02*
X115625571Y-103020665D01*
X116149380Y-103163522D02*
X116149380Y-102687332D01*
X115149380Y-102687332D01*
X115149380Y-103163522D01*
X115149380Y-103449237D02*
X115149380Y-104020665D01*
X116149380Y-103734951D02*
X115149380Y-103734951D01*
D11*
%TO.C,U2*%
X138790341Y-111286891D02*
X138277689Y-110774239D01*
X148488311Y-110774239D02*
X147975659Y-111286891D01*
X147975659Y-110261587D02*
X148488311Y-110774239D01*
X143383000Y-105668928D02*
X142870348Y-106181580D01*
X143895652Y-106181580D02*
X143383000Y-105668928D01*
X143383000Y-115879550D02*
X143895652Y-115366898D01*
X142870348Y-115366898D02*
X143383000Y-115879550D01*
%TO.C,Y1*%
X150181408Y-98582013D02*
X150181408Y-101882013D01*
X150181408Y-101882013D02*
X146181408Y-101882013D01*
%TO.C,R7*%
X148604500Y-81009258D02*
X148604500Y-80534742D01*
X147559500Y-81009258D02*
X147559500Y-80534742D01*
%TO.C,R6*%
X145683500Y-88184258D02*
X145683500Y-87709742D01*
X144638500Y-88184258D02*
X144638500Y-87709742D01*
%TO.C,R5*%
X136920500Y-88184258D02*
X136920500Y-87709742D01*
X135875500Y-88184258D02*
X135875500Y-87709742D01*
%TO.C,R4*%
X144422060Y-117428867D02*
X144757593Y-117093334D01*
X143683133Y-116689940D02*
X144018666Y-116354407D01*
%TO.C,R3*%
X142000500Y-95678258D02*
X142000500Y-95203742D01*
X140955500Y-95678258D02*
X140955500Y-95203742D01*
%TO.C,R2*%
X139968500Y-95677258D02*
X139968500Y-95202742D01*
X138923500Y-95677258D02*
X138923500Y-95202742D01*
%TO.C,R1*%
X146638867Y-103735940D02*
X146303334Y-103400407D01*
X145899940Y-104474867D02*
X145564407Y-104139334D01*
%TO.C,J1*%
X116907000Y-99000000D02*
X119567000Y-99000000D01*
X116907000Y-101600000D02*
X116907000Y-99000000D01*
X119567000Y-101600000D02*
X119567000Y-99000000D01*
X116907000Y-101600000D02*
X119567000Y-101600000D01*
X116907000Y-102870000D02*
X116907000Y-104200000D01*
X116907000Y-104200000D02*
X118237000Y-104200000D01*
%TO.C,F1*%
X144928000Y-95722065D02*
X144928000Y-94517937D01*
X143108000Y-95722065D02*
X143108000Y-94517937D01*
%TO.C,D14*%
X139559000Y-88874000D02*
X141959000Y-88874000D01*
X141959000Y-91974000D02*
X139009000Y-91974000D01*
%TO.C,C10*%
X147068000Y-80925580D02*
X147068000Y-80644420D01*
X146048000Y-80925580D02*
X146048000Y-80644420D01*
%TO.C,C9*%
X141739219Y-103711030D02*
X141938030Y-103512219D01*
X141017970Y-102989781D02*
X141216781Y-102790970D01*
%TO.C,C8*%
X144539408Y-100117433D02*
X144539408Y-100398593D01*
X145559408Y-100117433D02*
X145559408Y-100398593D01*
%TO.C,C7*%
X151782408Y-100297592D02*
X151782408Y-100016432D01*
X150762408Y-100297592D02*
X150762408Y-100016432D01*
%TO.C,C6*%
X142842211Y-104640038D02*
X143041022Y-104441227D01*
X142120962Y-103918789D02*
X142319773Y-103719978D01*
%TO.C,C5*%
X145534038Y-104680789D02*
X145335227Y-104481978D01*
X144812789Y-105402038D02*
X144613978Y-105203227D01*
%TO.C,C4*%
X138940000Y-107442580D02*
X138940000Y-107161420D01*
X137920000Y-107442580D02*
X137920000Y-107161420D01*
%TO.C,C3*%
X140996580Y-116203000D02*
X140715420Y-116203000D01*
X140996580Y-117223000D02*
X140715420Y-117223000D01*
%TO.C,C2*%
X137707022Y-111458773D02*
X137508211Y-111259962D01*
X136985773Y-112180022D02*
X136786962Y-111981211D01*
%TO.C,C1*%
X149526227Y-112434022D02*
X149725038Y-112235211D01*
X148804978Y-111712773D02*
X149003789Y-111513962D01*
%TO.C,D26*%
X358404000Y-139210000D02*
X359334000Y-139210000D01*
X361564000Y-139210000D02*
X360634000Y-139210000D01*
X361564000Y-139210000D02*
X361564000Y-141370000D01*
X358404000Y-139210000D02*
X358404000Y-140670000D01*
%TO.C,D25*%
X313695000Y-139210000D02*
X314625000Y-139210000D01*
X316855000Y-139210000D02*
X315925000Y-139210000D01*
X316855000Y-139210000D02*
X316855000Y-141370000D01*
X313695000Y-139210000D02*
X313695000Y-140670000D01*
%TO.C,D24*%
X238323000Y-139178000D02*
X239253000Y-139178000D01*
X241483000Y-139178000D02*
X240553000Y-139178000D01*
X241483000Y-139178000D02*
X241483000Y-141338000D01*
X238323000Y-139178000D02*
X238323000Y-140638000D01*
%TO.C,D23*%
X178567000Y-139210000D02*
X179497000Y-139210000D01*
X181727000Y-139210000D02*
X180797000Y-139210000D01*
X181727000Y-139210000D02*
X181727000Y-141370000D01*
X178567000Y-139210000D02*
X178567000Y-140670000D01*
%TO.C,D22*%
X136535000Y-139210000D02*
X137465000Y-139210000D01*
X139695000Y-139210000D02*
X138765000Y-139210000D01*
X139695000Y-139210000D02*
X139695000Y-141370000D01*
X136535000Y-139210000D02*
X136535000Y-140670000D01*
%TO.C,D21*%
X353711000Y-118018000D02*
X355711000Y-118018000D01*
X355711000Y-118018000D02*
X355711000Y-121918000D01*
X353711000Y-118018000D02*
X353711000Y-121918000D01*
%TO.C,D20*%
X327035000Y-120160000D02*
X327965000Y-120160000D01*
X330195000Y-120160000D02*
X329265000Y-120160000D01*
X330195000Y-120160000D02*
X330195000Y-122320000D01*
X327035000Y-120160000D02*
X327035000Y-121620000D01*
%TO.C,D19*%
X288935000Y-120160000D02*
X289865000Y-120160000D01*
X292095000Y-120160000D02*
X291165000Y-120160000D01*
X292095000Y-120160000D02*
X292095000Y-122320000D01*
X288935000Y-120160000D02*
X288935000Y-121620000D01*
%TO.C,D18*%
X250835000Y-120160000D02*
X251765000Y-120160000D01*
X253995000Y-120160000D02*
X253065000Y-120160000D01*
X253995000Y-120160000D02*
X253995000Y-122320000D01*
X250835000Y-120160000D02*
X250835000Y-121620000D01*
%TO.C,D17*%
X212796000Y-120144000D02*
X213726000Y-120144000D01*
X215956000Y-120144000D02*
X215026000Y-120144000D01*
X215956000Y-120144000D02*
X215956000Y-122304000D01*
X212796000Y-120144000D02*
X212796000Y-121604000D01*
%TO.C,D16*%
X174757000Y-120160000D02*
X175687000Y-120160000D01*
X177917000Y-120160000D02*
X176987000Y-120160000D01*
X177917000Y-120160000D02*
X177917000Y-122320000D01*
X174757000Y-120160000D02*
X174757000Y-121620000D01*
%TO.C,D15*%
X141107000Y-120160000D02*
X142037000Y-120160000D01*
X144267000Y-120160000D02*
X143337000Y-120160000D01*
X144267000Y-120160000D02*
X144267000Y-122320000D01*
X141107000Y-120160000D02*
X141107000Y-121620000D01*
%TO.C,D13*%
X336560000Y-101110000D02*
X337490000Y-101110000D01*
X339720000Y-101110000D02*
X338790000Y-101110000D01*
X339720000Y-101110000D02*
X339720000Y-103270000D01*
X336560000Y-101110000D02*
X336560000Y-102570000D01*
%TO.C,D12*%
X299251250Y-101046250D02*
X300181250Y-101046250D01*
X302411250Y-101046250D02*
X301481250Y-101046250D01*
X302411250Y-101046250D02*
X302411250Y-103206250D01*
X299251250Y-101046250D02*
X299251250Y-102506250D01*
%TO.C,D11*%
X260294000Y-101094000D02*
X261224000Y-101094000D01*
X263454000Y-101094000D02*
X262524000Y-101094000D01*
X263454000Y-101094000D02*
X263454000Y-103254000D01*
X260294000Y-101094000D02*
X260294000Y-102554000D01*
%TO.C,D10*%
X222321000Y-101094000D02*
X223251000Y-101094000D01*
X225481000Y-101094000D02*
X224551000Y-101094000D01*
X225481000Y-101094000D02*
X225481000Y-103254000D01*
X222321000Y-101094000D02*
X222321000Y-102554000D01*
%TO.C,D9*%
X184221000Y-101110000D02*
X185151000Y-101110000D01*
X187381000Y-101110000D02*
X186451000Y-101110000D01*
X187381000Y-101110000D02*
X187381000Y-103270000D01*
X184221000Y-101110000D02*
X184221000Y-102570000D01*
%TO.C,D8*%
X153172000Y-100602000D02*
X154102000Y-100602000D01*
X156332000Y-100602000D02*
X155402000Y-100602000D01*
X156332000Y-100602000D02*
X156332000Y-102762000D01*
X153172000Y-100602000D02*
X153172000Y-102062000D01*
%TO.C,D7*%
X356632000Y-80555000D02*
X358632000Y-80555000D01*
X358632000Y-80555000D02*
X358632000Y-84455000D01*
X356632000Y-80555000D02*
X356632000Y-84455000D01*
%TO.C,D6*%
X333258000Y-82060000D02*
X334188000Y-82060000D01*
X336418000Y-82060000D02*
X335488000Y-82060000D01*
X336418000Y-82060000D02*
X336418000Y-84220000D01*
X333258000Y-82060000D02*
X333258000Y-83520000D01*
%TO.C,D5*%
X293695000Y-82044000D02*
X294625000Y-82044000D01*
X296855000Y-82044000D02*
X295925000Y-82044000D01*
X296855000Y-82044000D02*
X296855000Y-84204000D01*
X293695000Y-82044000D02*
X293695000Y-83504000D01*
%TO.C,D4*%
X255661000Y-82060000D02*
X256591000Y-82060000D01*
X258821000Y-82060000D02*
X257891000Y-82060000D01*
X258821000Y-82060000D02*
X258821000Y-84220000D01*
X255661000Y-82060000D02*
X255661000Y-83520000D01*
%TO.C,D3*%
X217434000Y-82060000D02*
X218364000Y-82060000D01*
X220594000Y-82060000D02*
X219664000Y-82060000D01*
X220594000Y-82060000D02*
X220594000Y-84220000D01*
X217434000Y-82060000D02*
X217434000Y-83520000D01*
%TO.C,D2*%
X179334000Y-82044000D02*
X180264000Y-82044000D01*
X182494000Y-82044000D02*
X181564000Y-82044000D01*
X182494000Y-82044000D02*
X182494000Y-84204000D01*
X179334000Y-82044000D02*
X179334000Y-83504000D01*
%TO.C,D1*%
X147838000Y-82044000D02*
X148768000Y-82044000D01*
X150998000Y-82044000D02*
X150068000Y-82044000D01*
X150998000Y-82044000D02*
X150998000Y-84204000D01*
X147838000Y-82044000D02*
X147838000Y-83504000D01*
%TO.C,U2*%
D10*
X140900718Y-114334016D02*
X140328298Y-114906436D01*
X140227283Y-114940108D01*
X140159939Y-114940108D01*
X140058924Y-114906436D01*
X139924237Y-114771749D01*
X139890565Y-114670734D01*
X139890565Y-114603390D01*
X139924237Y-114502375D01*
X140496657Y-113929955D01*
X140126267Y-113694253D02*
X140126267Y-113626910D01*
X140092596Y-113525894D01*
X139924237Y-113357536D01*
X139823222Y-113323864D01*
X139755878Y-113323864D01*
X139654863Y-113357536D01*
X139587519Y-113424879D01*
X139520176Y-113559566D01*
X139520176Y-114367688D01*
X139082443Y-113929955D01*
%TO.C,Y1*%
X148657598Y-97758203D02*
X148657598Y-98234393D01*
X148990931Y-97234393D02*
X148657598Y-97758203D01*
X148324265Y-97234393D01*
X147467122Y-98234393D02*
X148038550Y-98234393D01*
X147752836Y-98234393D02*
X147752836Y-97234393D01*
X147848074Y-97377251D01*
X147943312Y-97472489D01*
X148038550Y-97520108D01*
%TO.C,USB1*%
X142491095Y-86478380D02*
X142491095Y-87287904D01*
X142443476Y-87383142D01*
X142395857Y-87430761D01*
X142300619Y-87478380D01*
X142110142Y-87478380D01*
X142014904Y-87430761D01*
X141967285Y-87383142D01*
X141919666Y-87287904D01*
X141919666Y-86478380D01*
X141491095Y-87430761D02*
X141348238Y-87478380D01*
X141110142Y-87478380D01*
X141014904Y-87430761D01*
X140967285Y-87383142D01*
X140919666Y-87287904D01*
X140919666Y-87192666D01*
X140967285Y-87097428D01*
X141014904Y-87049809D01*
X141110142Y-87002190D01*
X141300619Y-86954571D01*
X141395857Y-86906952D01*
X141443476Y-86859333D01*
X141491095Y-86764095D01*
X141491095Y-86668857D01*
X141443476Y-86573619D01*
X141395857Y-86526000D01*
X141300619Y-86478380D01*
X141062523Y-86478380D01*
X140919666Y-86526000D01*
X140157761Y-86954571D02*
X140014904Y-87002190D01*
X139967285Y-87049809D01*
X139919666Y-87145047D01*
X139919666Y-87287904D01*
X139967285Y-87383142D01*
X140014904Y-87430761D01*
X140110142Y-87478380D01*
X140491095Y-87478380D01*
X140491095Y-86478380D01*
X140157761Y-86478380D01*
X140062523Y-86526000D01*
X140014904Y-86573619D01*
X139967285Y-86668857D01*
X139967285Y-86764095D01*
X140014904Y-86859333D01*
X140062523Y-86906952D01*
X140157761Y-86954571D01*
X140491095Y-86954571D01*
X138967285Y-87478380D02*
X139538714Y-87478380D01*
X139253000Y-87478380D02*
X139253000Y-86478380D01*
X139348238Y-86621238D01*
X139443476Y-86716476D01*
X139538714Y-86764095D01*
%TO.C,R7*%
X149964380Y-80605333D02*
X149488190Y-80272000D01*
X149964380Y-80033904D02*
X148964380Y-80033904D01*
X148964380Y-80414857D01*
X149012000Y-80510095D01*
X149059619Y-80557714D01*
X149154857Y-80605333D01*
X149297714Y-80605333D01*
X149392952Y-80557714D01*
X149440571Y-80510095D01*
X149488190Y-80414857D01*
X149488190Y-80033904D01*
X148964380Y-80938666D02*
X148964380Y-81605333D01*
X149964380Y-81176761D01*
%TO.C,R6*%
X147043380Y-87780333D02*
X146567190Y-87447000D01*
X147043380Y-87208904D02*
X146043380Y-87208904D01*
X146043380Y-87589857D01*
X146091000Y-87685095D01*
X146138619Y-87732714D01*
X146233857Y-87780333D01*
X146376714Y-87780333D01*
X146471952Y-87732714D01*
X146519571Y-87685095D01*
X146567190Y-87589857D01*
X146567190Y-87208904D01*
X146043380Y-88637476D02*
X146043380Y-88447000D01*
X146091000Y-88351761D01*
X146138619Y-88304142D01*
X146281476Y-88208904D01*
X146471952Y-88161285D01*
X146852904Y-88161285D01*
X146948142Y-88208904D01*
X146995761Y-88256523D01*
X147043380Y-88351761D01*
X147043380Y-88542238D01*
X146995761Y-88637476D01*
X146948142Y-88685095D01*
X146852904Y-88732714D01*
X146614809Y-88732714D01*
X146519571Y-88685095D01*
X146471952Y-88637476D01*
X146424333Y-88542238D01*
X146424333Y-88351761D01*
X146471952Y-88256523D01*
X146519571Y-88208904D01*
X146614809Y-88161285D01*
%TO.C,R5*%
X138280380Y-87780333D02*
X137804190Y-87447000D01*
X138280380Y-87208904D02*
X137280380Y-87208904D01*
X137280380Y-87589857D01*
X137328000Y-87685095D01*
X137375619Y-87732714D01*
X137470857Y-87780333D01*
X137613714Y-87780333D01*
X137708952Y-87732714D01*
X137756571Y-87685095D01*
X137804190Y-87589857D01*
X137804190Y-87208904D01*
X137280380Y-88685095D02*
X137280380Y-88208904D01*
X137756571Y-88161285D01*
X137708952Y-88208904D01*
X137661333Y-88304142D01*
X137661333Y-88542238D01*
X137708952Y-88637476D01*
X137756571Y-88685095D01*
X137851809Y-88732714D01*
X138089904Y-88732714D01*
X138185142Y-88685095D01*
X138232761Y-88637476D01*
X138280380Y-88542238D01*
X138280380Y-88304142D01*
X138232761Y-88208904D01*
X138185142Y-88161285D01*
%TO.C,R4*%
X145669258Y-118104830D02*
X145568243Y-117532410D01*
X146073319Y-117700769D02*
X145366213Y-116993662D01*
X145096838Y-117263036D01*
X145063167Y-117364051D01*
X145063167Y-117431395D01*
X145096838Y-117532410D01*
X145197854Y-117633425D01*
X145298869Y-117667097D01*
X145366213Y-117667097D01*
X145467228Y-117633425D01*
X145736602Y-117364051D01*
X144591762Y-118239517D02*
X145063167Y-118710922D01*
X144490747Y-117801784D02*
X145164182Y-118138502D01*
X144726449Y-118576235D01*
%TO.C,R3*%
X143360380Y-95274333D02*
X142884190Y-94941000D01*
X143360380Y-94702904D02*
X142360380Y-94702904D01*
X142360380Y-95083857D01*
X142408000Y-95179095D01*
X142455619Y-95226714D01*
X142550857Y-95274333D01*
X142693714Y-95274333D01*
X142788952Y-95226714D01*
X142836571Y-95179095D01*
X142884190Y-95083857D01*
X142884190Y-94702904D01*
X142360380Y-95607666D02*
X142360380Y-96226714D01*
X142741333Y-95893380D01*
X142741333Y-96036238D01*
X142788952Y-96131476D01*
X142836571Y-96179095D01*
X142931809Y-96226714D01*
X143169904Y-96226714D01*
X143265142Y-96179095D01*
X143312761Y-96131476D01*
X143360380Y-96036238D01*
X143360380Y-95750523D01*
X143312761Y-95655285D01*
X143265142Y-95607666D01*
%TO.C,R2*%
X141328380Y-95273333D02*
X140852190Y-94940000D01*
X141328380Y-94701904D02*
X140328380Y-94701904D01*
X140328380Y-95082857D01*
X140376000Y-95178095D01*
X140423619Y-95225714D01*
X140518857Y-95273333D01*
X140661714Y-95273333D01*
X140756952Y-95225714D01*
X140804571Y-95178095D01*
X140852190Y-95082857D01*
X140852190Y-94701904D01*
X140423619Y-95654285D02*
X140376000Y-95701904D01*
X140328380Y-95797142D01*
X140328380Y-96035238D01*
X140376000Y-96130476D01*
X140423619Y-96178095D01*
X140518857Y-96225714D01*
X140614095Y-96225714D01*
X140756952Y-96178095D01*
X141328380Y-95606666D01*
X141328380Y-96225714D01*
%TO.C,R1*%
X146910769Y-103364206D02*
X147483189Y-103263191D01*
X147314830Y-103768267D02*
X148021937Y-103061161D01*
X147752563Y-102791786D01*
X147651548Y-102758115D01*
X147584204Y-102758115D01*
X147483189Y-102791786D01*
X147382174Y-102892802D01*
X147348502Y-102993817D01*
X147348502Y-103061161D01*
X147382174Y-103162176D01*
X147651548Y-103431550D01*
X146237334Y-102690771D02*
X146641395Y-103094832D01*
X146439364Y-102892802D02*
X147146471Y-102185695D01*
X147112800Y-102354054D01*
X147112800Y-102488741D01*
X147146471Y-102589756D01*
%TO.C,J1*%
X118570333Y-104652380D02*
X118570333Y-105366666D01*
X118617952Y-105509523D01*
X118713190Y-105604761D01*
X118856047Y-105652380D01*
X118951285Y-105652380D01*
X117570333Y-105652380D02*
X118141761Y-105652380D01*
X117856047Y-105652380D02*
X117856047Y-104652380D01*
X117951285Y-104795238D01*
X118046523Y-104890476D01*
X118141761Y-104938095D01*
%TO.C,F1*%
X145766571Y-94786667D02*
X145766571Y-94453334D01*
X146290380Y-94453334D02*
X145290380Y-94453334D01*
X145290380Y-94929524D01*
X146290380Y-95834286D02*
X146290380Y-95262858D01*
X146290380Y-95548572D02*
X145290380Y-95548572D01*
X145433238Y-95453334D01*
X145528476Y-95358096D01*
X145576095Y-95262858D01*
%TO.C,D14*%
X141993285Y-93256380D02*
X141993285Y-92256380D01*
X141755190Y-92256380D01*
X141612333Y-92304000D01*
X141517095Y-92399238D01*
X141469476Y-92494476D01*
X141421857Y-92684952D01*
X141421857Y-92827809D01*
X141469476Y-93018285D01*
X141517095Y-93113523D01*
X141612333Y-93208761D01*
X141755190Y-93256380D01*
X141993285Y-93256380D01*
X140469476Y-93256380D02*
X141040904Y-93256380D01*
X140755190Y-93256380D02*
X140755190Y-92256380D01*
X140850428Y-92399238D01*
X140945666Y-92494476D01*
X141040904Y-92542095D01*
X139612333Y-92589714D02*
X139612333Y-93256380D01*
X139850428Y-92208761D02*
X140088523Y-92923047D01*
X139469476Y-92923047D01*
%TO.C,C10*%
X148345142Y-80142142D02*
X148392761Y-80094523D01*
X148440380Y-79951666D01*
X148440380Y-79856428D01*
X148392761Y-79713571D01*
X148297523Y-79618333D01*
X148202285Y-79570714D01*
X148011809Y-79523095D01*
X147868952Y-79523095D01*
X147678476Y-79570714D01*
X147583238Y-79618333D01*
X147488000Y-79713571D01*
X147440380Y-79856428D01*
X147440380Y-79951666D01*
X147488000Y-80094523D01*
X147535619Y-80142142D01*
X148440380Y-81094523D02*
X148440380Y-80523095D01*
X148440380Y-80808809D02*
X147440380Y-80808809D01*
X147583238Y-80713571D01*
X147678476Y-80618333D01*
X147726095Y-80523095D01*
X147440380Y-81713571D02*
X147440380Y-81808809D01*
X147488000Y-81904047D01*
X147535619Y-81951666D01*
X147630857Y-81999285D01*
X147821333Y-82046904D01*
X148059428Y-82046904D01*
X148249904Y-81999285D01*
X148345142Y-81951666D01*
X148392761Y-81904047D01*
X148440380Y-81808809D01*
X148440380Y-81713571D01*
X148392761Y-81618333D01*
X148345142Y-81570714D01*
X148249904Y-81523095D01*
X148059428Y-81475476D01*
X147821333Y-81475476D01*
X147630857Y-81523095D01*
X147535619Y-81570714D01*
X147488000Y-81618333D01*
X147440380Y-81713571D01*
%TO.C,C9*%
X142859552Y-104396850D02*
X142926895Y-104396850D01*
X143061582Y-104329506D01*
X143128926Y-104262163D01*
X143196269Y-104127475D01*
X143196269Y-103992788D01*
X143162598Y-103891773D01*
X143061582Y-103723414D01*
X142960567Y-103622399D01*
X142792208Y-103521384D01*
X142691193Y-103487712D01*
X142556506Y-103487712D01*
X142421819Y-103555056D01*
X142354475Y-103622399D01*
X142287132Y-103757086D01*
X142287132Y-103824430D01*
X142590178Y-104800911D02*
X142455491Y-104935598D01*
X142354475Y-104969269D01*
X142287132Y-104969269D01*
X142118773Y-104935598D01*
X141950414Y-104834582D01*
X141681040Y-104565208D01*
X141647369Y-104464193D01*
X141647369Y-104396850D01*
X141681040Y-104295834D01*
X141815727Y-104161147D01*
X141916743Y-104127475D01*
X141984086Y-104127475D01*
X142085101Y-104161147D01*
X142253460Y-104329506D01*
X142287132Y-104430521D01*
X142287132Y-104497865D01*
X142253460Y-104598880D01*
X142118773Y-104733567D01*
X142017758Y-104767239D01*
X141950414Y-104767239D01*
X141849399Y-104733567D01*
%TO.C,C8*%
X143976550Y-100091346D02*
X144024169Y-100043727D01*
X144071788Y-99900870D01*
X144071788Y-99805632D01*
X144024169Y-99662774D01*
X143928931Y-99567536D01*
X143833693Y-99519917D01*
X143643217Y-99472298D01*
X143500360Y-99472298D01*
X143309884Y-99519917D01*
X143214646Y-99567536D01*
X143119408Y-99662774D01*
X143071788Y-99805632D01*
X143071788Y-99900870D01*
X143119408Y-100043727D01*
X143167027Y-100091346D01*
X143500360Y-100662774D02*
X143452741Y-100567536D01*
X143405122Y-100519917D01*
X143309884Y-100472298D01*
X143262265Y-100472298D01*
X143167027Y-100519917D01*
X143119408Y-100567536D01*
X143071788Y-100662774D01*
X143071788Y-100853251D01*
X143119408Y-100948489D01*
X143167027Y-100996108D01*
X143262265Y-101043727D01*
X143309884Y-101043727D01*
X143405122Y-100996108D01*
X143452741Y-100948489D01*
X143500360Y-100853251D01*
X143500360Y-100662774D01*
X143547979Y-100567536D01*
X143595598Y-100519917D01*
X143690836Y-100472298D01*
X143881312Y-100472298D01*
X143976550Y-100519917D01*
X144024169Y-100567536D01*
X144071788Y-100662774D01*
X144071788Y-100853251D01*
X144024169Y-100948489D01*
X143976550Y-100996108D01*
X143881312Y-101043727D01*
X143690836Y-101043727D01*
X143595598Y-100996108D01*
X143547979Y-100948489D01*
X143500360Y-100853251D01*
%TO.C,C7*%
X153059550Y-99990345D02*
X153107169Y-99942726D01*
X153154788Y-99799869D01*
X153154788Y-99704631D01*
X153107169Y-99561773D01*
X153011931Y-99466535D01*
X152916693Y-99418916D01*
X152726217Y-99371297D01*
X152583360Y-99371297D01*
X152392884Y-99418916D01*
X152297646Y-99466535D01*
X152202408Y-99561773D01*
X152154788Y-99704631D01*
X152154788Y-99799869D01*
X152202408Y-99942726D01*
X152250027Y-99990345D01*
X152154788Y-100323678D02*
X152154788Y-100990345D01*
X153154788Y-100561773D01*
%TO.C,C6*%
X143962544Y-105325858D02*
X144029887Y-105325858D01*
X144164574Y-105258514D01*
X144231918Y-105191171D01*
X144299261Y-105056483D01*
X144299261Y-104921796D01*
X144265590Y-104820781D01*
X144164574Y-104652422D01*
X144063559Y-104551407D01*
X143895200Y-104450392D01*
X143794185Y-104416720D01*
X143659498Y-104416720D01*
X143524811Y-104484064D01*
X143457467Y-104551407D01*
X143390124Y-104686094D01*
X143390124Y-104753438D01*
X142716689Y-105292186D02*
X142851376Y-105157499D01*
X142952391Y-105123827D01*
X143019735Y-105123827D01*
X143188093Y-105157499D01*
X143356452Y-105258514D01*
X143625826Y-105527888D01*
X143659498Y-105628903D01*
X143659498Y-105696247D01*
X143625826Y-105797262D01*
X143491139Y-105931949D01*
X143390124Y-105965621D01*
X143322780Y-105965621D01*
X143221765Y-105931949D01*
X143053406Y-105763590D01*
X143019735Y-105662575D01*
X143019735Y-105595232D01*
X143053406Y-105494216D01*
X143188093Y-105359529D01*
X143289109Y-105325858D01*
X143356452Y-105325858D01*
X143457467Y-105359529D01*
%TO.C,C5*%
X145950483Y-104301234D02*
X145950483Y-104368577D01*
X146017827Y-104503264D01*
X146085171Y-104570608D01*
X146219858Y-104637951D01*
X146354545Y-104637951D01*
X146455560Y-104604280D01*
X146623919Y-104503264D01*
X146724934Y-104402249D01*
X146825949Y-104233890D01*
X146859621Y-104132875D01*
X146859621Y-103998188D01*
X146792277Y-103863501D01*
X146724934Y-103796157D01*
X146590247Y-103728814D01*
X146522903Y-103728814D01*
X145950483Y-103021707D02*
X146287201Y-103358425D01*
X145984155Y-103728814D01*
X145984155Y-103661470D01*
X145950483Y-103560455D01*
X145782125Y-103392096D01*
X145681109Y-103358425D01*
X145613766Y-103358425D01*
X145512751Y-103392096D01*
X145344392Y-103560455D01*
X145310720Y-103661470D01*
X145310720Y-103728814D01*
X145344392Y-103829829D01*
X145512751Y-103998188D01*
X145613766Y-104031860D01*
X145681109Y-104031860D01*
%TO.C,C4*%
X140217142Y-107135333D02*
X140264761Y-107087714D01*
X140312380Y-106944857D01*
X140312380Y-106849619D01*
X140264761Y-106706761D01*
X140169523Y-106611523D01*
X140074285Y-106563904D01*
X139883809Y-106516285D01*
X139740952Y-106516285D01*
X139550476Y-106563904D01*
X139455238Y-106611523D01*
X139360000Y-106706761D01*
X139312380Y-106849619D01*
X139312380Y-106944857D01*
X139360000Y-107087714D01*
X139407619Y-107135333D01*
X139645714Y-107992476D02*
X140312380Y-107992476D01*
X139264761Y-107754380D02*
X139979047Y-107516285D01*
X139979047Y-108135333D01*
%TO.C,C3*%
X141022666Y-115640142D02*
X141070285Y-115687761D01*
X141213142Y-115735380D01*
X141308380Y-115735380D01*
X141451238Y-115687761D01*
X141546476Y-115592523D01*
X141594095Y-115497285D01*
X141641714Y-115306809D01*
X141641714Y-115163952D01*
X141594095Y-114973476D01*
X141546476Y-114878238D01*
X141451238Y-114783000D01*
X141308380Y-114735380D01*
X141213142Y-114735380D01*
X141070285Y-114783000D01*
X141022666Y-114830619D01*
X140689333Y-114735380D02*
X140070285Y-114735380D01*
X140403619Y-115116333D01*
X140260761Y-115116333D01*
X140165523Y-115163952D01*
X140117904Y-115211571D01*
X140070285Y-115306809D01*
X140070285Y-115544904D01*
X140117904Y-115640142D01*
X140165523Y-115687761D01*
X140260761Y-115735380D01*
X140546476Y-115735380D01*
X140641714Y-115687761D01*
X140689333Y-115640142D01*
%TO.C,C2*%
X138123467Y-111079218D02*
X138123467Y-111146561D01*
X138190811Y-111281248D01*
X138258155Y-111348592D01*
X138392842Y-111415935D01*
X138527529Y-111415935D01*
X138628544Y-111382264D01*
X138796903Y-111281248D01*
X138897918Y-111180233D01*
X138998933Y-111011874D01*
X139032605Y-110910859D01*
X139032605Y-110776172D01*
X138965261Y-110641485D01*
X138897918Y-110574141D01*
X138763231Y-110506798D01*
X138695887Y-110506798D01*
X138426513Y-110237424D02*
X138426513Y-110170080D01*
X138392842Y-110069065D01*
X138224483Y-109900706D01*
X138123467Y-109867035D01*
X138056124Y-109867035D01*
X137955109Y-109900706D01*
X137887765Y-109968050D01*
X137820422Y-110102737D01*
X137820422Y-110910859D01*
X137382689Y-110473126D01*
%TO.C,C1*%
X150646560Y-113119842D02*
X150713903Y-113119842D01*
X150848590Y-113052498D01*
X150915934Y-112985155D01*
X150983277Y-112850467D01*
X150983277Y-112715780D01*
X150949606Y-112614765D01*
X150848590Y-112446406D01*
X150747575Y-112345391D01*
X150579216Y-112244376D01*
X150478201Y-112210704D01*
X150343514Y-112210704D01*
X150208827Y-112278048D01*
X150141483Y-112345391D01*
X150074140Y-112480078D01*
X150074140Y-112547422D01*
X150040468Y-113860620D02*
X150444529Y-113456559D01*
X150242499Y-113658590D02*
X149535392Y-112951483D01*
X149703751Y-112985155D01*
X149838438Y-112985155D01*
X149939453Y-112951483D01*
%TO.C,D26*%
X362936380Y-138755714D02*
X361936380Y-138755714D01*
X361936380Y-138993809D01*
X361984000Y-139136666D01*
X362079238Y-139231904D01*
X362174476Y-139279523D01*
X362364952Y-139327142D01*
X362507809Y-139327142D01*
X362698285Y-139279523D01*
X362793523Y-139231904D01*
X362888761Y-139136666D01*
X362936380Y-138993809D01*
X362936380Y-138755714D01*
X362031619Y-139708095D02*
X361984000Y-139755714D01*
X361936380Y-139850952D01*
X361936380Y-140089047D01*
X361984000Y-140184285D01*
X362031619Y-140231904D01*
X362126857Y-140279523D01*
X362222095Y-140279523D01*
X362364952Y-140231904D01*
X362936380Y-139660476D01*
X362936380Y-140279523D01*
X361936380Y-141136666D02*
X361936380Y-140946190D01*
X361984000Y-140850952D01*
X362031619Y-140803333D01*
X362174476Y-140708095D01*
X362364952Y-140660476D01*
X362745904Y-140660476D01*
X362841142Y-140708095D01*
X362888761Y-140755714D01*
X362936380Y-140850952D01*
X362936380Y-141041428D01*
X362888761Y-141136666D01*
X362841142Y-141184285D01*
X362745904Y-141231904D01*
X362507809Y-141231904D01*
X362412571Y-141184285D01*
X362364952Y-141136666D01*
X362317333Y-141041428D01*
X362317333Y-140850952D01*
X362364952Y-140755714D01*
X362412571Y-140708095D01*
X362507809Y-140660476D01*
%TO.C,D25*%
X318227380Y-138755714D02*
X317227380Y-138755714D01*
X317227380Y-138993809D01*
X317275000Y-139136666D01*
X317370238Y-139231904D01*
X317465476Y-139279523D01*
X317655952Y-139327142D01*
X317798809Y-139327142D01*
X317989285Y-139279523D01*
X318084523Y-139231904D01*
X318179761Y-139136666D01*
X318227380Y-138993809D01*
X318227380Y-138755714D01*
X317322619Y-139708095D02*
X317275000Y-139755714D01*
X317227380Y-139850952D01*
X317227380Y-140089047D01*
X317275000Y-140184285D01*
X317322619Y-140231904D01*
X317417857Y-140279523D01*
X317513095Y-140279523D01*
X317655952Y-140231904D01*
X318227380Y-139660476D01*
X318227380Y-140279523D01*
X317227380Y-141184285D02*
X317227380Y-140708095D01*
X317703571Y-140660476D01*
X317655952Y-140708095D01*
X317608333Y-140803333D01*
X317608333Y-141041428D01*
X317655952Y-141136666D01*
X317703571Y-141184285D01*
X317798809Y-141231904D01*
X318036904Y-141231904D01*
X318132142Y-141184285D01*
X318179761Y-141136666D01*
X318227380Y-141041428D01*
X318227380Y-140803333D01*
X318179761Y-140708095D01*
X318132142Y-140660476D01*
%TO.C,D24*%
X242855380Y-138723714D02*
X241855380Y-138723714D01*
X241855380Y-138961809D01*
X241903000Y-139104666D01*
X241998238Y-139199904D01*
X242093476Y-139247523D01*
X242283952Y-139295142D01*
X242426809Y-139295142D01*
X242617285Y-139247523D01*
X242712523Y-139199904D01*
X242807761Y-139104666D01*
X242855380Y-138961809D01*
X242855380Y-138723714D01*
X241950619Y-139676095D02*
X241903000Y-139723714D01*
X241855380Y-139818952D01*
X241855380Y-140057047D01*
X241903000Y-140152285D01*
X241950619Y-140199904D01*
X242045857Y-140247523D01*
X242141095Y-140247523D01*
X242283952Y-140199904D01*
X242855380Y-139628476D01*
X242855380Y-140247523D01*
X242188714Y-141104666D02*
X242855380Y-141104666D01*
X241807761Y-140866571D02*
X242522047Y-140628476D01*
X242522047Y-141247523D01*
%TO.C,D23*%
X183099380Y-138755714D02*
X182099380Y-138755714D01*
X182099380Y-138993809D01*
X182147000Y-139136666D01*
X182242238Y-139231904D01*
X182337476Y-139279523D01*
X182527952Y-139327142D01*
X182670809Y-139327142D01*
X182861285Y-139279523D01*
X182956523Y-139231904D01*
X183051761Y-139136666D01*
X183099380Y-138993809D01*
X183099380Y-138755714D01*
X182194619Y-139708095D02*
X182147000Y-139755714D01*
X182099380Y-139850952D01*
X182099380Y-140089047D01*
X182147000Y-140184285D01*
X182194619Y-140231904D01*
X182289857Y-140279523D01*
X182385095Y-140279523D01*
X182527952Y-140231904D01*
X183099380Y-139660476D01*
X183099380Y-140279523D01*
X182099380Y-140612857D02*
X182099380Y-141231904D01*
X182480333Y-140898571D01*
X182480333Y-141041428D01*
X182527952Y-141136666D01*
X182575571Y-141184285D01*
X182670809Y-141231904D01*
X182908904Y-141231904D01*
X183004142Y-141184285D01*
X183051761Y-141136666D01*
X183099380Y-141041428D01*
X183099380Y-140755714D01*
X183051761Y-140660476D01*
X183004142Y-140612857D01*
%TO.C,D22*%
X141067380Y-138755714D02*
X140067380Y-138755714D01*
X140067380Y-138993809D01*
X140115000Y-139136666D01*
X140210238Y-139231904D01*
X140305476Y-139279523D01*
X140495952Y-139327142D01*
X140638809Y-139327142D01*
X140829285Y-139279523D01*
X140924523Y-139231904D01*
X141019761Y-139136666D01*
X141067380Y-138993809D01*
X141067380Y-138755714D01*
X140162619Y-139708095D02*
X140115000Y-139755714D01*
X140067380Y-139850952D01*
X140067380Y-140089047D01*
X140115000Y-140184285D01*
X140162619Y-140231904D01*
X140257857Y-140279523D01*
X140353095Y-140279523D01*
X140495952Y-140231904D01*
X141067380Y-139660476D01*
X141067380Y-140279523D01*
X140162619Y-140660476D02*
X140115000Y-140708095D01*
X140067380Y-140803333D01*
X140067380Y-141041428D01*
X140115000Y-141136666D01*
X140162619Y-141184285D01*
X140257857Y-141231904D01*
X140353095Y-141231904D01*
X140495952Y-141184285D01*
X141067380Y-140612857D01*
X141067380Y-141231904D01*
%TO.C,D21*%
X353163380Y-119053714D02*
X352163380Y-119053714D01*
X352163380Y-119291809D01*
X352211000Y-119434666D01*
X352306238Y-119529904D01*
X352401476Y-119577523D01*
X352591952Y-119625142D01*
X352734809Y-119625142D01*
X352925285Y-119577523D01*
X353020523Y-119529904D01*
X353115761Y-119434666D01*
X353163380Y-119291809D01*
X353163380Y-119053714D01*
X352258619Y-120006095D02*
X352211000Y-120053714D01*
X352163380Y-120148952D01*
X352163380Y-120387047D01*
X352211000Y-120482285D01*
X352258619Y-120529904D01*
X352353857Y-120577523D01*
X352449095Y-120577523D01*
X352591952Y-120529904D01*
X353163380Y-119958476D01*
X353163380Y-120577523D01*
X353163380Y-121529904D02*
X353163380Y-120958476D01*
X353163380Y-121244190D02*
X352163380Y-121244190D01*
X352306238Y-121148952D01*
X352401476Y-121053714D01*
X352449095Y-120958476D01*
%TO.C,D20*%
X331567380Y-119705714D02*
X330567380Y-119705714D01*
X330567380Y-119943809D01*
X330615000Y-120086666D01*
X330710238Y-120181904D01*
X330805476Y-120229523D01*
X330995952Y-120277142D01*
X331138809Y-120277142D01*
X331329285Y-120229523D01*
X331424523Y-120181904D01*
X331519761Y-120086666D01*
X331567380Y-119943809D01*
X331567380Y-119705714D01*
X330662619Y-120658095D02*
X330615000Y-120705714D01*
X330567380Y-120800952D01*
X330567380Y-121039047D01*
X330615000Y-121134285D01*
X330662619Y-121181904D01*
X330757857Y-121229523D01*
X330853095Y-121229523D01*
X330995952Y-121181904D01*
X331567380Y-120610476D01*
X331567380Y-121229523D01*
X330567380Y-121848571D02*
X330567380Y-121943809D01*
X330615000Y-122039047D01*
X330662619Y-122086666D01*
X330757857Y-122134285D01*
X330948333Y-122181904D01*
X331186428Y-122181904D01*
X331376904Y-122134285D01*
X331472142Y-122086666D01*
X331519761Y-122039047D01*
X331567380Y-121943809D01*
X331567380Y-121848571D01*
X331519761Y-121753333D01*
X331472142Y-121705714D01*
X331376904Y-121658095D01*
X331186428Y-121610476D01*
X330948333Y-121610476D01*
X330757857Y-121658095D01*
X330662619Y-121705714D01*
X330615000Y-121753333D01*
X330567380Y-121848571D01*
%TO.C,D19*%
X293467380Y-119705714D02*
X292467380Y-119705714D01*
X292467380Y-119943809D01*
X292515000Y-120086666D01*
X292610238Y-120181904D01*
X292705476Y-120229523D01*
X292895952Y-120277142D01*
X293038809Y-120277142D01*
X293229285Y-120229523D01*
X293324523Y-120181904D01*
X293419761Y-120086666D01*
X293467380Y-119943809D01*
X293467380Y-119705714D01*
X293467380Y-121229523D02*
X293467380Y-120658095D01*
X293467380Y-120943809D02*
X292467380Y-120943809D01*
X292610238Y-120848571D01*
X292705476Y-120753333D01*
X292753095Y-120658095D01*
X293467380Y-121705714D02*
X293467380Y-121896190D01*
X293419761Y-121991428D01*
X293372142Y-122039047D01*
X293229285Y-122134285D01*
X293038809Y-122181904D01*
X292657857Y-122181904D01*
X292562619Y-122134285D01*
X292515000Y-122086666D01*
X292467380Y-121991428D01*
X292467380Y-121800952D01*
X292515000Y-121705714D01*
X292562619Y-121658095D01*
X292657857Y-121610476D01*
X292895952Y-121610476D01*
X292991190Y-121658095D01*
X293038809Y-121705714D01*
X293086428Y-121800952D01*
X293086428Y-121991428D01*
X293038809Y-122086666D01*
X292991190Y-122134285D01*
X292895952Y-122181904D01*
%TO.C,D18*%
X255367380Y-119705714D02*
X254367380Y-119705714D01*
X254367380Y-119943809D01*
X254415000Y-120086666D01*
X254510238Y-120181904D01*
X254605476Y-120229523D01*
X254795952Y-120277142D01*
X254938809Y-120277142D01*
X255129285Y-120229523D01*
X255224523Y-120181904D01*
X255319761Y-120086666D01*
X255367380Y-119943809D01*
X255367380Y-119705714D01*
X255367380Y-121229523D02*
X255367380Y-120658095D01*
X255367380Y-120943809D02*
X254367380Y-120943809D01*
X254510238Y-120848571D01*
X254605476Y-120753333D01*
X254653095Y-120658095D01*
X254795952Y-121800952D02*
X254748333Y-121705714D01*
X254700714Y-121658095D01*
X254605476Y-121610476D01*
X254557857Y-121610476D01*
X254462619Y-121658095D01*
X254415000Y-121705714D01*
X254367380Y-121800952D01*
X254367380Y-121991428D01*
X254415000Y-122086666D01*
X254462619Y-122134285D01*
X254557857Y-122181904D01*
X254605476Y-122181904D01*
X254700714Y-122134285D01*
X254748333Y-122086666D01*
X254795952Y-121991428D01*
X254795952Y-121800952D01*
X254843571Y-121705714D01*
X254891190Y-121658095D01*
X254986428Y-121610476D01*
X255176904Y-121610476D01*
X255272142Y-121658095D01*
X255319761Y-121705714D01*
X255367380Y-121800952D01*
X255367380Y-121991428D01*
X255319761Y-122086666D01*
X255272142Y-122134285D01*
X255176904Y-122181904D01*
X254986428Y-122181904D01*
X254891190Y-122134285D01*
X254843571Y-122086666D01*
X254795952Y-121991428D01*
%TO.C,D17*%
X217328380Y-119689714D02*
X216328380Y-119689714D01*
X216328380Y-119927809D01*
X216376000Y-120070666D01*
X216471238Y-120165904D01*
X216566476Y-120213523D01*
X216756952Y-120261142D01*
X216899809Y-120261142D01*
X217090285Y-120213523D01*
X217185523Y-120165904D01*
X217280761Y-120070666D01*
X217328380Y-119927809D01*
X217328380Y-119689714D01*
X217328380Y-121213523D02*
X217328380Y-120642095D01*
X217328380Y-120927809D02*
X216328380Y-120927809D01*
X216471238Y-120832571D01*
X216566476Y-120737333D01*
X216614095Y-120642095D01*
X216328380Y-121546857D02*
X216328380Y-122213523D01*
X217328380Y-121784952D01*
%TO.C,D16*%
X179289380Y-119705714D02*
X178289380Y-119705714D01*
X178289380Y-119943809D01*
X178337000Y-120086666D01*
X178432238Y-120181904D01*
X178527476Y-120229523D01*
X178717952Y-120277142D01*
X178860809Y-120277142D01*
X179051285Y-120229523D01*
X179146523Y-120181904D01*
X179241761Y-120086666D01*
X179289380Y-119943809D01*
X179289380Y-119705714D01*
X179289380Y-121229523D02*
X179289380Y-120658095D01*
X179289380Y-120943809D02*
X178289380Y-120943809D01*
X178432238Y-120848571D01*
X178527476Y-120753333D01*
X178575095Y-120658095D01*
X178289380Y-122086666D02*
X178289380Y-121896190D01*
X178337000Y-121800952D01*
X178384619Y-121753333D01*
X178527476Y-121658095D01*
X178717952Y-121610476D01*
X179098904Y-121610476D01*
X179194142Y-121658095D01*
X179241761Y-121705714D01*
X179289380Y-121800952D01*
X179289380Y-121991428D01*
X179241761Y-122086666D01*
X179194142Y-122134285D01*
X179098904Y-122181904D01*
X178860809Y-122181904D01*
X178765571Y-122134285D01*
X178717952Y-122086666D01*
X178670333Y-121991428D01*
X178670333Y-121800952D01*
X178717952Y-121705714D01*
X178765571Y-121658095D01*
X178860809Y-121610476D01*
%TO.C,D15*%
X145639380Y-119705714D02*
X144639380Y-119705714D01*
X144639380Y-119943809D01*
X144687000Y-120086666D01*
X144782238Y-120181904D01*
X144877476Y-120229523D01*
X145067952Y-120277142D01*
X145210809Y-120277142D01*
X145401285Y-120229523D01*
X145496523Y-120181904D01*
X145591761Y-120086666D01*
X145639380Y-119943809D01*
X145639380Y-119705714D01*
X145639380Y-121229523D02*
X145639380Y-120658095D01*
X145639380Y-120943809D02*
X144639380Y-120943809D01*
X144782238Y-120848571D01*
X144877476Y-120753333D01*
X144925095Y-120658095D01*
X144639380Y-122134285D02*
X144639380Y-121658095D01*
X145115571Y-121610476D01*
X145067952Y-121658095D01*
X145020333Y-121753333D01*
X145020333Y-121991428D01*
X145067952Y-122086666D01*
X145115571Y-122134285D01*
X145210809Y-122181904D01*
X145448904Y-122181904D01*
X145544142Y-122134285D01*
X145591761Y-122086666D01*
X145639380Y-121991428D01*
X145639380Y-121753333D01*
X145591761Y-121658095D01*
X145544142Y-121610476D01*
%TO.C,D13*%
X341092380Y-100655714D02*
X340092380Y-100655714D01*
X340092380Y-100893809D01*
X340140000Y-101036666D01*
X340235238Y-101131904D01*
X340330476Y-101179523D01*
X340520952Y-101227142D01*
X340663809Y-101227142D01*
X340854285Y-101179523D01*
X340949523Y-101131904D01*
X341044761Y-101036666D01*
X341092380Y-100893809D01*
X341092380Y-100655714D01*
X341092380Y-102179523D02*
X341092380Y-101608095D01*
X341092380Y-101893809D02*
X340092380Y-101893809D01*
X340235238Y-101798571D01*
X340330476Y-101703333D01*
X340378095Y-101608095D01*
X340092380Y-102512857D02*
X340092380Y-103131904D01*
X340473333Y-102798571D01*
X340473333Y-102941428D01*
X340520952Y-103036666D01*
X340568571Y-103084285D01*
X340663809Y-103131904D01*
X340901904Y-103131904D01*
X340997142Y-103084285D01*
X341044761Y-103036666D01*
X341092380Y-102941428D01*
X341092380Y-102655714D01*
X341044761Y-102560476D01*
X340997142Y-102512857D01*
%TO.C,D12*%
X303783630Y-100591964D02*
X302783630Y-100591964D01*
X302783630Y-100830059D01*
X302831250Y-100972916D01*
X302926488Y-101068154D01*
X303021726Y-101115773D01*
X303212202Y-101163392D01*
X303355059Y-101163392D01*
X303545535Y-101115773D01*
X303640773Y-101068154D01*
X303736011Y-100972916D01*
X303783630Y-100830059D01*
X303783630Y-100591964D01*
X303783630Y-102115773D02*
X303783630Y-101544345D01*
X303783630Y-101830059D02*
X302783630Y-101830059D01*
X302926488Y-101734821D01*
X303021726Y-101639583D01*
X303069345Y-101544345D01*
X302878869Y-102496726D02*
X302831250Y-102544345D01*
X302783630Y-102639583D01*
X302783630Y-102877678D01*
X302831250Y-102972916D01*
X302878869Y-103020535D01*
X302974107Y-103068154D01*
X303069345Y-103068154D01*
X303212202Y-103020535D01*
X303783630Y-102449107D01*
X303783630Y-103068154D01*
%TO.C,D11*%
X264826380Y-100639714D02*
X263826380Y-100639714D01*
X263826380Y-100877809D01*
X263874000Y-101020666D01*
X263969238Y-101115904D01*
X264064476Y-101163523D01*
X264254952Y-101211142D01*
X264397809Y-101211142D01*
X264588285Y-101163523D01*
X264683523Y-101115904D01*
X264778761Y-101020666D01*
X264826380Y-100877809D01*
X264826380Y-100639714D01*
X264826380Y-102163523D02*
X264826380Y-101592095D01*
X264826380Y-101877809D02*
X263826380Y-101877809D01*
X263969238Y-101782571D01*
X264064476Y-101687333D01*
X264112095Y-101592095D01*
X264826380Y-103115904D02*
X264826380Y-102544476D01*
X264826380Y-102830190D02*
X263826380Y-102830190D01*
X263969238Y-102734952D01*
X264064476Y-102639714D01*
X264112095Y-102544476D01*
%TO.C,D10*%
X226853380Y-100639714D02*
X225853380Y-100639714D01*
X225853380Y-100877809D01*
X225901000Y-101020666D01*
X225996238Y-101115904D01*
X226091476Y-101163523D01*
X226281952Y-101211142D01*
X226424809Y-101211142D01*
X226615285Y-101163523D01*
X226710523Y-101115904D01*
X226805761Y-101020666D01*
X226853380Y-100877809D01*
X226853380Y-100639714D01*
X226853380Y-102163523D02*
X226853380Y-101592095D01*
X226853380Y-101877809D02*
X225853380Y-101877809D01*
X225996238Y-101782571D01*
X226091476Y-101687333D01*
X226139095Y-101592095D01*
X225853380Y-102782571D02*
X225853380Y-102877809D01*
X225901000Y-102973047D01*
X225948619Y-103020666D01*
X226043857Y-103068285D01*
X226234333Y-103115904D01*
X226472428Y-103115904D01*
X226662904Y-103068285D01*
X226758142Y-103020666D01*
X226805761Y-102973047D01*
X226853380Y-102877809D01*
X226853380Y-102782571D01*
X226805761Y-102687333D01*
X226758142Y-102639714D01*
X226662904Y-102592095D01*
X226472428Y-102544476D01*
X226234333Y-102544476D01*
X226043857Y-102592095D01*
X225948619Y-102639714D01*
X225901000Y-102687333D01*
X225853380Y-102782571D01*
%TO.C,D9*%
X188753380Y-101131904D02*
X187753380Y-101131904D01*
X187753380Y-101370000D01*
X187801000Y-101512857D01*
X187896238Y-101608095D01*
X187991476Y-101655714D01*
X188181952Y-101703333D01*
X188324809Y-101703333D01*
X188515285Y-101655714D01*
X188610523Y-101608095D01*
X188705761Y-101512857D01*
X188753380Y-101370000D01*
X188753380Y-101131904D01*
X188753380Y-102179523D02*
X188753380Y-102370000D01*
X188705761Y-102465238D01*
X188658142Y-102512857D01*
X188515285Y-102608095D01*
X188324809Y-102655714D01*
X187943857Y-102655714D01*
X187848619Y-102608095D01*
X187801000Y-102560476D01*
X187753380Y-102465238D01*
X187753380Y-102274761D01*
X187801000Y-102179523D01*
X187848619Y-102131904D01*
X187943857Y-102084285D01*
X188181952Y-102084285D01*
X188277190Y-102131904D01*
X188324809Y-102179523D01*
X188372428Y-102274761D01*
X188372428Y-102465238D01*
X188324809Y-102560476D01*
X188277190Y-102608095D01*
X188181952Y-102655714D01*
%TO.C,D8*%
X157704380Y-100623904D02*
X156704380Y-100623904D01*
X156704380Y-100862000D01*
X156752000Y-101004857D01*
X156847238Y-101100095D01*
X156942476Y-101147714D01*
X157132952Y-101195333D01*
X157275809Y-101195333D01*
X157466285Y-101147714D01*
X157561523Y-101100095D01*
X157656761Y-101004857D01*
X157704380Y-100862000D01*
X157704380Y-100623904D01*
X157132952Y-101766761D02*
X157085333Y-101671523D01*
X157037714Y-101623904D01*
X156942476Y-101576285D01*
X156894857Y-101576285D01*
X156799619Y-101623904D01*
X156752000Y-101671523D01*
X156704380Y-101766761D01*
X156704380Y-101957238D01*
X156752000Y-102052476D01*
X156799619Y-102100095D01*
X156894857Y-102147714D01*
X156942476Y-102147714D01*
X157037714Y-102100095D01*
X157085333Y-102052476D01*
X157132952Y-101957238D01*
X157132952Y-101766761D01*
X157180571Y-101671523D01*
X157228190Y-101623904D01*
X157323428Y-101576285D01*
X157513904Y-101576285D01*
X157609142Y-101623904D01*
X157656761Y-101671523D01*
X157704380Y-101766761D01*
X157704380Y-101957238D01*
X157656761Y-102052476D01*
X157609142Y-102100095D01*
X157513904Y-102147714D01*
X157323428Y-102147714D01*
X157228190Y-102100095D01*
X157180571Y-102052476D01*
X157132952Y-101957238D01*
%TO.C,D7*%
X356084380Y-82066904D02*
X355084380Y-82066904D01*
X355084380Y-82305000D01*
X355132000Y-82447857D01*
X355227238Y-82543095D01*
X355322476Y-82590714D01*
X355512952Y-82638333D01*
X355655809Y-82638333D01*
X355846285Y-82590714D01*
X355941523Y-82543095D01*
X356036761Y-82447857D01*
X356084380Y-82305000D01*
X356084380Y-82066904D01*
X355084380Y-82971666D02*
X355084380Y-83638333D01*
X356084380Y-83209761D01*
%TO.C,D6*%
X337790380Y-82081904D02*
X336790380Y-82081904D01*
X336790380Y-82320000D01*
X336838000Y-82462857D01*
X336933238Y-82558095D01*
X337028476Y-82605714D01*
X337218952Y-82653333D01*
X337361809Y-82653333D01*
X337552285Y-82605714D01*
X337647523Y-82558095D01*
X337742761Y-82462857D01*
X337790380Y-82320000D01*
X337790380Y-82081904D01*
X336790380Y-83510476D02*
X336790380Y-83320000D01*
X336838000Y-83224761D01*
X336885619Y-83177142D01*
X337028476Y-83081904D01*
X337218952Y-83034285D01*
X337599904Y-83034285D01*
X337695142Y-83081904D01*
X337742761Y-83129523D01*
X337790380Y-83224761D01*
X337790380Y-83415238D01*
X337742761Y-83510476D01*
X337695142Y-83558095D01*
X337599904Y-83605714D01*
X337361809Y-83605714D01*
X337266571Y-83558095D01*
X337218952Y-83510476D01*
X337171333Y-83415238D01*
X337171333Y-83224761D01*
X337218952Y-83129523D01*
X337266571Y-83081904D01*
X337361809Y-83034285D01*
%TO.C,D5*%
X298227380Y-82065904D02*
X297227380Y-82065904D01*
X297227380Y-82304000D01*
X297275000Y-82446857D01*
X297370238Y-82542095D01*
X297465476Y-82589714D01*
X297655952Y-82637333D01*
X297798809Y-82637333D01*
X297989285Y-82589714D01*
X298084523Y-82542095D01*
X298179761Y-82446857D01*
X298227380Y-82304000D01*
X298227380Y-82065904D01*
X297227380Y-83542095D02*
X297227380Y-83065904D01*
X297703571Y-83018285D01*
X297655952Y-83065904D01*
X297608333Y-83161142D01*
X297608333Y-83399238D01*
X297655952Y-83494476D01*
X297703571Y-83542095D01*
X297798809Y-83589714D01*
X298036904Y-83589714D01*
X298132142Y-83542095D01*
X298179761Y-83494476D01*
X298227380Y-83399238D01*
X298227380Y-83161142D01*
X298179761Y-83065904D01*
X298132142Y-83018285D01*
%TO.C,D4*%
X260193380Y-82081904D02*
X259193380Y-82081904D01*
X259193380Y-82320000D01*
X259241000Y-82462857D01*
X259336238Y-82558095D01*
X259431476Y-82605714D01*
X259621952Y-82653333D01*
X259764809Y-82653333D01*
X259955285Y-82605714D01*
X260050523Y-82558095D01*
X260145761Y-82462857D01*
X260193380Y-82320000D01*
X260193380Y-82081904D01*
X259526714Y-83510476D02*
X260193380Y-83510476D01*
X259145761Y-83272380D02*
X259860047Y-83034285D01*
X259860047Y-83653333D01*
%TO.C,D3*%
X221966380Y-82081904D02*
X220966380Y-82081904D01*
X220966380Y-82320000D01*
X221014000Y-82462857D01*
X221109238Y-82558095D01*
X221204476Y-82605714D01*
X221394952Y-82653333D01*
X221537809Y-82653333D01*
X221728285Y-82605714D01*
X221823523Y-82558095D01*
X221918761Y-82462857D01*
X221966380Y-82320000D01*
X221966380Y-82081904D01*
X220966380Y-82986666D02*
X220966380Y-83605714D01*
X221347333Y-83272380D01*
X221347333Y-83415238D01*
X221394952Y-83510476D01*
X221442571Y-83558095D01*
X221537809Y-83605714D01*
X221775904Y-83605714D01*
X221871142Y-83558095D01*
X221918761Y-83510476D01*
X221966380Y-83415238D01*
X221966380Y-83129523D01*
X221918761Y-83034285D01*
X221871142Y-82986666D01*
%TO.C,D2*%
X183866380Y-82065904D02*
X182866380Y-82065904D01*
X182866380Y-82304000D01*
X182914000Y-82446857D01*
X183009238Y-82542095D01*
X183104476Y-82589714D01*
X183294952Y-82637333D01*
X183437809Y-82637333D01*
X183628285Y-82589714D01*
X183723523Y-82542095D01*
X183818761Y-82446857D01*
X183866380Y-82304000D01*
X183866380Y-82065904D01*
X182961619Y-83018285D02*
X182914000Y-83065904D01*
X182866380Y-83161142D01*
X182866380Y-83399238D01*
X182914000Y-83494476D01*
X182961619Y-83542095D01*
X183056857Y-83589714D01*
X183152095Y-83589714D01*
X183294952Y-83542095D01*
X183866380Y-82970666D01*
X183866380Y-83589714D01*
%TO.C,D1*%
X152370380Y-82065904D02*
X151370380Y-82065904D01*
X151370380Y-82304000D01*
X151418000Y-82446857D01*
X151513238Y-82542095D01*
X151608476Y-82589714D01*
X151798952Y-82637333D01*
X151941809Y-82637333D01*
X152132285Y-82589714D01*
X152227523Y-82542095D01*
X152322761Y-82446857D01*
X152370380Y-82304000D01*
X152370380Y-82065904D01*
X152370380Y-83589714D02*
X152370380Y-83018285D01*
X152370380Y-83304000D02*
X151370380Y-83304000D01*
X151513238Y-83208761D01*
X151608476Y-83113523D01*
X151656095Y-83018285D01*
%TD*%
M02*
