%TF.GenerationSoftware,KiCad,Pcbnew,5.1.10-88a1d61d58~90~ubuntu20.04.1*%
%TF.CreationDate,2021-09-07T19:06:16-07:00*%
%TF.ProjectId,bkc40,626b6334-302e-46b6-9963-61645f706362,rev?*%
%TF.SameCoordinates,Original*%
%TF.FileFunction,Legend,Top*%
%TF.FilePolarity,Positive*%
%FSLAX46Y46*%
G04 Gerber Fmt 4.6, Leading zero omitted, Abs format (unit mm)*
G04 Created by KiCad (PCBNEW 5.1.10-88a1d61d58~90~ubuntu20.04.1) date 2021-09-07 19:06:16*
%MOMM*%
%LPD*%
G01*
G04 APERTURE LIST*
%ADD10C,0.150000*%
%ADD11C,0.120000*%
G04 APERTURE END LIST*
D10*
X116149380Y-103306379D02*
X115673190Y-103639713D01*
X116149380Y-103877808D02*
X115149380Y-103877808D01*
X115149380Y-103496856D01*
X115197000Y-103401618D01*
X115244619Y-103353999D01*
X115339857Y-103306379D01*
X115482714Y-103306379D01*
X115577952Y-103353999D01*
X115625571Y-103401618D01*
X115673190Y-103496856D01*
X115673190Y-103877808D01*
X115625571Y-102877808D02*
X115625571Y-102544475D01*
X116149380Y-102401618D02*
X116149380Y-102877808D01*
X115149380Y-102877808D01*
X115149380Y-102401618D01*
X116101761Y-102020665D02*
X116149380Y-101877808D01*
X116149380Y-101639713D01*
X116101761Y-101544475D01*
X116054142Y-101496856D01*
X115958904Y-101449237D01*
X115863666Y-101449237D01*
X115768428Y-101496856D01*
X115720809Y-101544475D01*
X115673190Y-101639713D01*
X115625571Y-101830189D01*
X115577952Y-101925427D01*
X115530333Y-101973046D01*
X115435095Y-102020665D01*
X115339857Y-102020665D01*
X115244619Y-101973046D01*
X115197000Y-101925427D01*
X115149380Y-101830189D01*
X115149380Y-101592094D01*
X115197000Y-101449237D01*
X115625571Y-101020665D02*
X115625571Y-100687332D01*
X116149380Y-100544475D02*
X116149380Y-101020665D01*
X115149380Y-101020665D01*
X115149380Y-100544475D01*
X115149380Y-100258760D02*
X115149380Y-99687332D01*
X116149380Y-99973046D02*
X115149380Y-99973046D01*
D11*
%TO.C,SW56*%
X371487000Y-88400000D02*
X371487000Y-89400000D01*
X371987000Y-88900000D02*
X370987000Y-88900000D01*
X367987000Y-95000000D02*
X365587000Y-95000000D01*
X372787000Y-95000000D02*
X370187000Y-95000000D01*
X377387000Y-95000000D02*
X374987000Y-95000000D01*
X375587000Y-81700000D02*
X375287000Y-81400000D01*
X375587000Y-81100000D02*
X375587000Y-81700000D01*
X375287000Y-81400000D02*
X375587000Y-81100000D01*
X377387000Y-82800000D02*
X365587000Y-82800000D01*
X377387000Y-86900000D02*
X377387000Y-82800000D01*
X365587000Y-86900000D02*
X365587000Y-82800000D01*
X365587000Y-95000000D02*
X365587000Y-90900000D01*
X377387000Y-90900000D02*
X377387000Y-95000000D01*
X374487000Y-88900000D02*
G75*
G03*
X374487000Y-88900000I-3000000J0D01*
G01*
D10*
X379091761Y-86009523D02*
X379139380Y-85866666D01*
X379139380Y-85628571D01*
X379091761Y-85533333D01*
X379044142Y-85485714D01*
X378948904Y-85438095D01*
X378853666Y-85438095D01*
X378758428Y-85485714D01*
X378710809Y-85533333D01*
X378663190Y-85628571D01*
X378615571Y-85819047D01*
X378567952Y-85914285D01*
X378520333Y-85961904D01*
X378425095Y-86009523D01*
X378329857Y-86009523D01*
X378234619Y-85961904D01*
X378187000Y-85914285D01*
X378139380Y-85819047D01*
X378139380Y-85580952D01*
X378187000Y-85438095D01*
X378139380Y-85104761D02*
X379139380Y-84866666D01*
X378425095Y-84676190D01*
X379139380Y-84485714D01*
X378139380Y-84247619D01*
X378139380Y-83390476D02*
X378139380Y-83866666D01*
X378615571Y-83914285D01*
X378567952Y-83866666D01*
X378520333Y-83771428D01*
X378520333Y-83533333D01*
X378567952Y-83438095D01*
X378615571Y-83390476D01*
X378710809Y-83342857D01*
X378948904Y-83342857D01*
X379044142Y-83390476D01*
X379091761Y-83438095D01*
X379139380Y-83533333D01*
X379139380Y-83771428D01*
X379091761Y-83866666D01*
X379044142Y-83914285D01*
X378139380Y-82485714D02*
X378139380Y-82676190D01*
X378187000Y-82771428D01*
X378234619Y-82819047D01*
X378377476Y-82914285D01*
X378567952Y-82961904D01*
X378948904Y-82961904D01*
X379044142Y-82914285D01*
X379091761Y-82866666D01*
X379139380Y-82771428D01*
X379139380Y-82580952D01*
X379091761Y-82485714D01*
X379044142Y-82438095D01*
X378948904Y-82390476D01*
X378710809Y-82390476D01*
X378615571Y-82438095D01*
X378567952Y-82485714D01*
X378520333Y-82580952D01*
X378520333Y-82771428D01*
X378567952Y-82866666D01*
X378615571Y-82914285D01*
X378710809Y-82961904D01*
%TO.C,REF\u002A\u002A*%
X365442666Y-82352380D02*
X365109333Y-81876190D01*
X364871238Y-82352380D02*
X364871238Y-81352380D01*
X365252190Y-81352380D01*
X365347428Y-81400000D01*
X365395047Y-81447619D01*
X365442666Y-81542857D01*
X365442666Y-81685714D01*
X365395047Y-81780952D01*
X365347428Y-81828571D01*
X365252190Y-81876190D01*
X364871238Y-81876190D01*
X365871238Y-81828571D02*
X366204571Y-81828571D01*
X366347428Y-82352380D02*
X365871238Y-82352380D01*
X365871238Y-81352380D01*
X366347428Y-81352380D01*
X367109333Y-81828571D02*
X366776000Y-81828571D01*
X366776000Y-82352380D02*
X366776000Y-81352380D01*
X367252190Y-81352380D01*
X367776000Y-81352380D02*
X367776000Y-81590476D01*
X367537904Y-81495238D02*
X367776000Y-81590476D01*
X368014095Y-81495238D01*
X367633142Y-81780952D02*
X367776000Y-81590476D01*
X367918857Y-81780952D01*
X368537904Y-81352380D02*
X368537904Y-81590476D01*
X368299809Y-81495238D02*
X368537904Y-81590476D01*
X368776000Y-81495238D01*
X368395047Y-81780952D02*
X368537904Y-81590476D01*
X368680761Y-81780952D01*
%TD*%
M02*
