%TF.GenerationSoftware,KiCad,Pcbnew,5.1.10-88a1d61d58~90~ubuntu20.04.1*%
%TF.CreationDate,2021-09-07T19:06:16-07:00*%
%TF.ProjectId,bkc40,626b6334-302e-46b6-9963-61645f706362,rev?*%
%TF.SameCoordinates,Original*%
%TF.FileFunction,Soldermask,Top*%
%TF.FilePolarity,Negative*%
%FSLAX46Y46*%
G04 Gerber Fmt 4.6, Leading zero omitted, Abs format (unit mm)*
G04 Created by KiCad (PCBNEW 5.1.10-88a1d61d58~90~ubuntu20.04.1) date 2021-09-07 19:06:16*
%MOMM*%
%LPD*%
G01*
G04 APERTURE LIST*
%ADD10R,2.000000X2.000000*%
%ADD11C,2.000000*%
%ADD12R,2.000000X3.200000*%
%ADD13C,6.000000*%
%ADD14C,3.987800*%
%ADD15C,3.048000*%
%ADD16C,1.750000*%
%ADD17O,1.000000X1.600000*%
%ADD18O,1.000000X2.100000*%
%ADD19C,0.650000*%
%ADD20O,1.700000X1.700000*%
%ADD21R,1.700000X1.700000*%
G04 APERTURE END LIST*
D10*
%TO.C,SW56*%
X373987000Y-81400000D03*
D11*
X371487000Y-81400000D03*
X368987000Y-81400000D03*
D12*
X377087000Y-88900000D03*
X365887000Y-88900000D03*
D11*
X373987000Y-95900000D03*
X368987000Y-95900000D03*
%TD*%
D13*
%TO.C,REF\u002A\u002A*%
X366776000Y-88900000D03*
%TD*%
D14*
%TO.C,SW28*%
X360838750Y-86487000D03*
X360838750Y-110363000D03*
D15*
X376078750Y-86487000D03*
X376078750Y-110363000D03*
D16*
X374173750Y-98425000D03*
X364013750Y-98425000D03*
D14*
X369093750Y-98425000D03*
%TD*%
D17*
%TO.C,USB1*%
X145073000Y-80376000D03*
X136433000Y-80376000D03*
D18*
X145073000Y-84556000D03*
X136433000Y-84556000D03*
D19*
X137863000Y-84026000D03*
X143643000Y-84026000D03*
%TD*%
D20*
%TO.C,J1*%
X118237000Y-100330000D03*
D21*
X118237000Y-102870000D03*
%TD*%
D14*
%TO.C,SW55*%
X304800000Y-137795000D03*
X190500000Y-137795000D03*
D15*
X304800000Y-153035000D03*
X190500000Y-153035000D03*
D16*
X252730000Y-146050000D03*
X242570000Y-146050000D03*
D14*
X247650000Y-146050000D03*
%TD*%
%TO.C,SW57*%
X371475000Y-116205000D03*
X347662500Y-116205000D03*
D15*
X371475000Y-100965000D03*
X347662500Y-100965000D03*
D16*
X364648750Y-107950000D03*
X354488750Y-107950000D03*
D14*
X359568750Y-107950000D03*
%TD*%
D16*
%TO.C,SW15*%
X371792500Y-88900000D03*
X361632500Y-88900000D03*
D14*
X366712500Y-88900000D03*
%TD*%
D16*
%TO.C,SW1*%
X352742500Y-88900000D03*
X342582500Y-88900000D03*
D14*
X347662500Y-88900000D03*
%TD*%
%TO.C,SW54*%
X285750000Y-137795000D03*
X247650000Y-137795000D03*
D15*
X285750000Y-153035000D03*
X247650000Y-153035000D03*
D16*
X271780000Y-146050000D03*
X261620000Y-146050000D03*
D14*
X266700000Y-146050000D03*
%TD*%
%TO.C,SW53*%
X228600000Y-137795000D03*
X190500000Y-137795000D03*
D15*
X228600000Y-153035000D03*
X190500000Y-153035000D03*
D16*
X214630000Y-146050000D03*
X204470000Y-146050000D03*
D14*
X209550000Y-146050000D03*
%TD*%
D16*
%TO.C,SW52*%
X374173750Y-146050000D03*
X364013750Y-146050000D03*
D14*
X369093750Y-146050000D03*
%TD*%
D16*
%TO.C,SW51*%
X352742500Y-146050000D03*
X342582500Y-146050000D03*
D14*
X347662500Y-146050000D03*
%TD*%
D16*
%TO.C,SW50*%
X331311250Y-146050000D03*
X321151250Y-146050000D03*
D14*
X326231250Y-146050000D03*
%TD*%
D16*
%TO.C,SW49*%
X309880000Y-146050000D03*
X299720000Y-146050000D03*
D14*
X304800000Y-146050000D03*
%TD*%
%TO.C,SW48*%
X280987500Y-137795000D03*
X257175000Y-137795000D03*
D15*
X280987500Y-153035000D03*
X257175000Y-153035000D03*
D16*
X274161250Y-146050000D03*
X264001250Y-146050000D03*
D14*
X269081250Y-146050000D03*
%TD*%
%TO.C,SW47*%
X233362500Y-137795000D03*
X209550000Y-137795000D03*
D15*
X233362500Y-153035000D03*
X209550000Y-153035000D03*
D16*
X226536250Y-146050000D03*
X216376250Y-146050000D03*
D14*
X221456250Y-146050000D03*
%TD*%
D16*
%TO.C,SW46*%
X195580000Y-146050000D03*
X185420000Y-146050000D03*
D14*
X190500000Y-146050000D03*
%TD*%
D16*
%TO.C,SW45*%
X174148750Y-146050000D03*
X163988750Y-146050000D03*
D14*
X169068750Y-146050000D03*
%TD*%
D16*
%TO.C,SW44*%
X152717500Y-146050000D03*
X142557500Y-146050000D03*
D14*
X147637500Y-146050000D03*
%TD*%
D16*
%TO.C,SW43*%
X131286250Y-146050000D03*
X121126250Y-146050000D03*
D14*
X126206250Y-146050000D03*
%TD*%
D16*
%TO.C,SW42*%
X369411250Y-127000000D03*
X359251250Y-127000000D03*
D14*
X364331250Y-127000000D03*
%TD*%
D16*
%TO.C,SW41*%
X343217500Y-127000000D03*
X333057500Y-127000000D03*
D14*
X338137500Y-127000000D03*
%TD*%
D16*
%TO.C,SW40*%
X324167500Y-127000000D03*
X314007500Y-127000000D03*
D14*
X319087500Y-127000000D03*
%TD*%
D16*
%TO.C,SW39*%
X305117500Y-127000000D03*
X294957500Y-127000000D03*
D14*
X300037500Y-127000000D03*
%TD*%
D16*
%TO.C,SW38*%
X286067500Y-127000000D03*
X275907500Y-127000000D03*
D14*
X280987500Y-127000000D03*
%TD*%
D16*
%TO.C,SW37*%
X267017500Y-127000000D03*
X256857500Y-127000000D03*
D14*
X261937500Y-127000000D03*
%TD*%
D16*
%TO.C,SW36*%
X247967500Y-127000000D03*
X237807500Y-127000000D03*
D14*
X242887500Y-127000000D03*
%TD*%
D16*
%TO.C,SW35*%
X228917500Y-127000000D03*
X218757500Y-127000000D03*
D14*
X223837500Y-127000000D03*
%TD*%
D16*
%TO.C,SW34*%
X209867500Y-127000000D03*
X199707500Y-127000000D03*
D14*
X204787500Y-127000000D03*
%TD*%
D16*
%TO.C,SW33*%
X190817500Y-127000000D03*
X180657500Y-127000000D03*
D14*
X185737500Y-127000000D03*
%TD*%
D16*
%TO.C,SW32*%
X171767500Y-127000000D03*
X161607500Y-127000000D03*
D14*
X166687500Y-127000000D03*
%TD*%
D16*
%TO.C,SW31*%
X152717500Y-127000000D03*
X142557500Y-127000000D03*
D14*
X147637500Y-127000000D03*
%TD*%
D16*
%TO.C,SW30*%
X131286250Y-127000000D03*
X121126250Y-127000000D03*
D14*
X126206250Y-127000000D03*
%TD*%
%TO.C,SW29*%
X147637500Y-135255000D03*
X123825000Y-135255000D03*
D15*
X147637500Y-120015000D03*
X123825000Y-120015000D03*
D16*
X140811250Y-127000000D03*
X130651250Y-127000000D03*
D14*
X135731250Y-127000000D03*
%TD*%
D16*
%TO.C,SW27*%
X352742500Y-107950000D03*
X342582500Y-107950000D03*
D14*
X347662500Y-107950000D03*
%TD*%
D16*
%TO.C,SW26*%
X333692500Y-107950000D03*
X323532500Y-107950000D03*
D14*
X328612500Y-107950000D03*
%TD*%
D16*
%TO.C,SW25*%
X314642500Y-107950000D03*
X304482500Y-107950000D03*
D14*
X309562500Y-107950000D03*
%TD*%
D16*
%TO.C,SW24*%
X295592500Y-107950000D03*
X285432500Y-107950000D03*
D14*
X290512500Y-107950000D03*
%TD*%
D16*
%TO.C,SW23*%
X276542500Y-107950000D03*
X266382500Y-107950000D03*
D14*
X271462500Y-107950000D03*
%TD*%
D16*
%TO.C,SW22*%
X257492500Y-107950000D03*
X247332500Y-107950000D03*
D14*
X252412500Y-107950000D03*
%TD*%
D16*
%TO.C,SW21*%
X238442500Y-107950000D03*
X228282500Y-107950000D03*
D14*
X233362500Y-107950000D03*
%TD*%
D16*
%TO.C,SW20*%
X219392500Y-107950000D03*
X209232500Y-107950000D03*
D14*
X214312500Y-107950000D03*
%TD*%
D16*
%TO.C,SW19*%
X200342500Y-107950000D03*
X190182500Y-107950000D03*
D14*
X195262500Y-107950000D03*
%TD*%
D16*
%TO.C,SW18*%
X181292500Y-107950000D03*
X171132500Y-107950000D03*
D14*
X176212500Y-107950000D03*
%TD*%
D16*
%TO.C,SW17*%
X162242500Y-107950000D03*
X152082500Y-107950000D03*
D14*
X157162500Y-107950000D03*
%TD*%
D16*
%TO.C,SW16*%
X136048750Y-107950000D03*
X125888750Y-107950000D03*
D14*
X130968750Y-107950000D03*
%TD*%
D16*
%TO.C,SW14*%
X347980000Y-88900000D03*
X337820000Y-88900000D03*
D14*
X342900000Y-88900000D03*
%TD*%
D16*
%TO.C,SW13*%
X328930000Y-88900000D03*
X318770000Y-88900000D03*
D14*
X323850000Y-88900000D03*
%TD*%
D16*
%TO.C,SW12*%
X309880000Y-88900000D03*
X299720000Y-88900000D03*
D14*
X304800000Y-88900000D03*
%TD*%
D16*
%TO.C,SW11*%
X290830000Y-88900000D03*
X280670000Y-88900000D03*
D14*
X285750000Y-88900000D03*
%TD*%
D16*
%TO.C,SW10*%
X271780000Y-88900000D03*
X261620000Y-88900000D03*
D14*
X266700000Y-88900000D03*
%TD*%
D16*
%TO.C,SW9*%
X252730000Y-88900000D03*
X242570000Y-88900000D03*
D14*
X247650000Y-88900000D03*
%TD*%
D16*
%TO.C,SW8*%
X233680000Y-88900000D03*
X223520000Y-88900000D03*
D14*
X228600000Y-88900000D03*
%TD*%
D16*
%TO.C,SW7*%
X214630000Y-88900000D03*
X204470000Y-88900000D03*
D14*
X209550000Y-88900000D03*
%TD*%
D16*
%TO.C,SW6*%
X195580000Y-88900000D03*
X185420000Y-88900000D03*
D14*
X190500000Y-88900000D03*
%TD*%
D16*
%TO.C,SW5*%
X176530000Y-88900000D03*
X166370000Y-88900000D03*
D14*
X171450000Y-88900000D03*
%TD*%
D16*
%TO.C,SW4*%
X157480000Y-88900000D03*
X147320000Y-88900000D03*
D14*
X152400000Y-88900000D03*
%TD*%
D16*
%TO.C,SW3*%
X133667500Y-88900000D03*
X123507500Y-88900000D03*
D14*
X128587500Y-88900000D03*
%TD*%
D16*
%TO.C,SW2*%
X376555000Y-88900000D03*
X366395000Y-88900000D03*
D14*
X371475000Y-88900000D03*
%TD*%
M02*
