M48
; DRILL file {KiCad 5.1.10-88a1d61d58~90~ubuntu20.04.1} date Tue Sep  7 19:06:23 2021
; FORMAT={-:-/ absolute / inch / decimal}
; #@! TF.CreationDate,2021-09-07T19:06:23-07:00
; #@! TF.GenerationSoftware,Kicad,Pcbnew,5.1.10-88a1d61d58~90~ubuntu20.04.1
; #@! TF.FileFunction,NonPlated,1,2,NPTH
FMAT,2
INCH
T1C0.0256
T2C0.0689
T3C0.1200
T4C0.1570
T5C0.2362
%
G90
G05
T1
X5.4277Y-3.3081
X5.6552Y-3.3081
T2
X4.7687Y-5.0
X4.7687Y-5.75
X4.8625Y-3.5
X4.9562Y-4.25
X5.1437Y-5.0
X5.1688Y-5.0
X5.1688Y-5.75
X5.2625Y-3.5
X5.3563Y-4.25
X5.5438Y-5.0
X5.6125Y-5.0
X5.6125Y-5.75
X5.8Y-3.5
X5.9875Y-4.25
X6.0125Y-5.0
X6.0125Y-5.75
X6.2Y-3.5
X6.3625Y-5.0
X6.3875Y-4.25
X6.4562Y-5.75
X6.55Y-3.5
X6.7375Y-4.25
X6.7625Y-5.0
X6.8563Y-5.75
X6.95Y-3.5
X7.1125Y-5.0
X7.1375Y-4.25
X7.3Y-3.5
X7.3Y-5.75
X7.4875Y-4.25
X7.5125Y-5.0
X7.7Y-3.5
X7.7Y-5.75
X7.8625Y-5.0
X7.8875Y-4.25
X8.05Y-3.5
X8.05Y-5.75
X8.2375Y-4.25
X8.2625Y-5.0
X8.45Y-3.5
X8.45Y-5.75
X8.5187Y-5.75
X8.6125Y-5.0
X8.6375Y-4.25
X8.8Y-3.5
X8.9187Y-5.75
X8.9875Y-4.25
X9.0125Y-5.0
X9.2Y-3.5
X9.3625Y-5.0
X9.3875Y-4.25
X9.55Y-3.5
X9.55Y-5.75
X9.7375Y-4.25
X9.7625Y-5.0
X9.95Y-3.5
X9.95Y-5.75
X10.1125Y-5.0
X10.1375Y-4.25
X10.3Y-3.5
X10.3Y-5.75
X10.3937Y-5.75
X10.4875Y-4.25
X10.5125Y-5.0
X10.7Y-3.5
X10.7Y-5.75
X10.7937Y-5.75
X10.8625Y-5.0
X10.8875Y-4.25
X11.05Y-3.5
X11.2375Y-4.25
X11.2625Y-5.0
X11.45Y-3.5
X11.6125Y-5.0
X11.6375Y-4.25
X11.8Y-3.5
X11.8Y-5.75
X11.9875Y-4.25
X12.0125Y-5.0
X12.2Y-3.5
X12.2Y-5.75
X12.3625Y-5.0
X12.3875Y-4.25
X12.55Y-3.5
X12.6437Y-5.75
X12.7375Y-4.25
X12.7625Y-5.0
X12.95Y-3.5
X13.0437Y-5.75
X13.1125Y-5.0
X13.1375Y-4.25
X13.3Y-3.5
X13.4875Y-3.5
X13.4875Y-4.25
X13.4875Y-5.75
X13.5125Y-5.0
X13.7Y-3.5
X13.8875Y-3.5
X13.8875Y-4.25
X13.8875Y-5.75
X13.9562Y-4.25
X14.1437Y-5.0
X14.2375Y-3.5
X14.3312Y-3.875
X14.3312Y-5.75
X14.3562Y-4.25
X14.425Y-3.5
X14.5437Y-5.0
X14.6375Y-3.5
X14.7312Y-3.875
X14.7312Y-5.75
X14.825Y-3.5
T3
X4.875Y-4.725
X5.8125Y-4.725
X7.5Y-6.025
X7.5Y-6.025
X8.25Y-6.025
X9.0Y-6.025
X9.1875Y-6.025
X9.75Y-6.025
X10.125Y-6.025
X11.0625Y-6.025
X11.25Y-6.025
X12.0Y-6.025
X13.6875Y-3.975
X14.625Y-3.975
X14.8063Y-3.405
X14.8063Y-4.345
T4
X4.875Y-5.325
X4.9688Y-5.0
X4.9688Y-5.75
X5.0625Y-3.5
X5.1562Y-4.25
X5.3438Y-5.0
X5.8125Y-5.0
X5.8125Y-5.325
X5.8125Y-5.75
X6.0Y-3.5
X6.1875Y-4.25
X6.5625Y-5.0
X6.6562Y-5.75
X6.75Y-3.5
X6.9375Y-4.25
X7.3125Y-5.0
X7.5Y-3.5
X7.5Y-5.425
X7.5Y-5.425
X7.5Y-5.75
X7.6875Y-4.25
X8.0625Y-5.0
X8.25Y-3.5
X8.25Y-5.425
X8.25Y-5.75
X8.4375Y-4.25
X8.7188Y-5.75
X8.8125Y-5.0
X9.0Y-3.5
X9.0Y-5.425
X9.1875Y-4.25
X9.1875Y-5.425
X9.5625Y-5.0
X9.75Y-3.5
X9.75Y-5.425
X9.75Y-5.75
X9.9375Y-4.25
X10.125Y-5.425
X10.3125Y-5.0
X10.5Y-3.5
X10.5Y-5.75
X10.5938Y-5.75
X10.6875Y-4.25
X11.0625Y-5.0
X11.0625Y-5.425
X11.25Y-3.5
X11.25Y-5.425
X11.4375Y-4.25
X11.8125Y-5.0
X12.0Y-3.5
X12.0Y-5.425
X12.0Y-5.75
X12.1875Y-4.25
X12.5625Y-5.0
X12.75Y-3.5
X12.8438Y-5.75
X12.9375Y-4.25
X13.3125Y-5.0
X13.5Y-3.5
X13.6875Y-3.5
X13.6875Y-4.25
X13.6875Y-4.575
X13.6875Y-5.75
X14.1562Y-4.25
X14.2062Y-3.405
X14.2062Y-4.345
X14.3438Y-5.0
X14.4375Y-3.5
X14.5312Y-3.875
X14.5312Y-5.75
X14.625Y-3.5
X14.625Y-4.575
T5
X14.44Y-3.5
T0
M30
