M48
; DRILL file {KiCad 5.1.10-88a1d61d58~90~ubuntu20.04.1} date Tue Sep  7 19:06:23 2021
; FORMAT={-:-/ absolute / inch / decimal}
; #@! TF.CreationDate,2021-09-07T19:06:23-07:00
; #@! TF.GenerationSoftware,Kicad,Pcbnew,5.1.10-88a1d61d58~90~ubuntu20.04.1
; #@! TF.FileFunction,Plated,1,2,PTH
FMAT,2
INCH
T1C0.0157
T2C0.0236
T3C0.0394
T4C0.0579
T5C0.0591
%
G90
G05
T1
X4.905Y-3.95
X5.03Y-4.645
X5.375Y-4.43
X5.4023Y-3.9823
X5.41Y-4.3
X5.45Y-4.12
X5.455Y-3.97
X5.595Y-4.16
X5.61Y-4.62
X5.6304Y-4.5846
X5.66Y-4.02
X5.779Y-4.159
X5.917Y-4.4447
X5.945Y-4.0487
X6.009Y-3.97
X8.315Y-4.4647
X9.065Y-4.4824
X9.81Y-4.5002
X10.565Y-4.4975
X11.315Y-4.4975
X12.065Y-4.4975
X12.815Y-4.4975
X13.565Y-4.475
X14.42Y-4.475
T3
X4.655Y-3.95
X4.655Y-4.05
X14.527Y-3.2047
X14.527Y-3.7756
X14.6255Y-3.2047
X14.7239Y-3.2047
X14.7239Y-3.7756
T4
X4.8187Y-4.9
X4.8187Y-5.65
X4.9125Y-3.4
X5.0062Y-4.15
X5.0687Y-4.8
X5.0687Y-5.55
X5.1625Y-3.3
X5.1937Y-4.9
X5.2562Y-4.05
X5.4437Y-4.8
X5.6625Y-4.9
X5.6625Y-5.65
X5.85Y-3.4
X5.9125Y-4.8
X5.9125Y-5.55
X6.0375Y-4.15
X6.1Y-3.3
X6.2875Y-4.05
X6.4125Y-4.9
X6.5062Y-5.65
X6.6Y-3.4
X6.6625Y-4.8
X6.7562Y-5.55
X6.7875Y-4.15
X6.85Y-3.3
X7.0375Y-4.05
X7.1625Y-4.9
X7.35Y-3.4
X7.35Y-5.65
X7.4125Y-4.8
X7.5375Y-4.15
X7.6Y-3.3
X7.6Y-5.55
X7.7875Y-4.05
X7.9125Y-4.9
X8.1Y-3.4
X8.1Y-5.65
X8.1625Y-4.8
X8.2875Y-4.15
X8.35Y-3.3
X8.35Y-5.55
X8.5375Y-4.05
X8.5687Y-5.65
X8.6625Y-4.9
X8.8187Y-5.55
X8.85Y-3.4
X8.9125Y-4.8
X9.0375Y-4.15
X9.1Y-3.3
X9.2875Y-4.05
X9.4125Y-4.9
X9.6Y-3.4
X9.6Y-5.65
X9.6625Y-4.8
X9.7875Y-4.15
X9.85Y-3.3
X9.85Y-5.55
X10.0375Y-4.05
X10.1625Y-4.9
X10.35Y-3.4
X10.35Y-5.65
X10.4125Y-4.8
X10.4437Y-5.65
X10.5375Y-4.15
X10.6Y-3.3
X10.6Y-5.55
X10.6937Y-5.55
X10.7875Y-4.05
X10.9125Y-4.9
X11.1Y-3.4
X11.1625Y-4.8
X11.2875Y-4.15
X11.35Y-3.3
X11.5375Y-4.05
X11.6625Y-4.9
X11.85Y-3.4
X11.85Y-5.65
X11.9125Y-4.8
X12.0375Y-4.15
X12.1Y-3.3
X12.1Y-5.55
X12.2875Y-4.05
X12.4125Y-4.9
X12.6Y-3.4
X12.6625Y-4.8
X12.6937Y-5.65
X12.7875Y-4.15
X12.85Y-3.3
X12.9437Y-5.55
X13.0375Y-4.05
X13.1625Y-4.9
X13.35Y-3.4
X13.4125Y-4.8
X13.5375Y-3.4
X13.5375Y-4.15
X13.5375Y-5.65
X13.6Y-3.3
X13.7875Y-3.3
X13.7875Y-4.05
X13.7875Y-5.55
X14.0062Y-4.15
X14.1937Y-4.9
X14.2562Y-4.05
X14.2875Y-3.4
X14.3812Y-3.775
X14.3812Y-5.65
X14.4437Y-4.8
X14.475Y-3.4
X14.5375Y-3.3
X14.6312Y-3.675
X14.6312Y-5.55
X14.725Y-3.3
T2
G00X5.3714Y-3.1526
M15
G01X5.3714Y-3.1762
M16
G05
G00X5.3714Y-3.3073
M15
G01X5.3714Y-3.3506
M16
G05
G00X5.7115Y-3.1526
M15
G01X5.7115Y-3.1762
M16
G05
G00X5.7115Y-3.3073
M15
G01X5.7115Y-3.3506
M16
G05
T5
G00X14.405Y-3.4744
M15
G01X14.405Y-3.5256
M16
G05
G00X14.8459Y-3.4744
M15
G01X14.8459Y-3.5256
M16
G05
T0
M30
