%TF.GenerationSoftware,KiCad,Pcbnew,5.1.10-88a1d61d58~90~ubuntu20.04.1*%
%TF.CreationDate,2021-09-07T19:06:16-07:00*%
%TF.ProjectId,bkc40,626b6334-302e-46b6-9963-61645f706362,rev?*%
%TF.SameCoordinates,Original*%
%TF.FileFunction,Paste,Bot*%
%TF.FilePolarity,Positive*%
%FSLAX46Y46*%
G04 Gerber Fmt 4.6, Leading zero omitted, Abs format (unit mm)*
G04 Created by KiCad (PCBNEW 5.1.10-88a1d61d58~90~ubuntu20.04.1) date 2021-09-07 19:06:16*
%MOMM*%
%LPD*%
G01*
G04 APERTURE LIST*
%ADD10R,1.400000X1.200000*%
%ADD11R,0.300000X1.450000*%
%ADD12R,0.600000X1.450000*%
%ADD13R,1.400000X1.000000*%
%ADD14R,0.800000X0.900000*%
%ADD15R,1.200000X0.900000*%
G04 APERTURE END LIST*
%TO.C,U2*%
G36*
G01*
X145575030Y-110597463D02*
X145963940Y-110208553D01*
G75*
G02*
X146317492Y-110208553I176776J-176776D01*
G01*
X146706402Y-110597463D01*
G75*
G02*
X146706402Y-110951015I-176776J-176776D01*
G01*
X146317492Y-111339925D01*
G75*
G02*
X145963940Y-111339925I-176776J176776D01*
G01*
X145575030Y-110951015D01*
G75*
G02*
X145575030Y-110597463I176776J176776D01*
G01*
G37*
G36*
G01*
X144655792Y-111516702D02*
X145044702Y-111127792D01*
G75*
G02*
X145398254Y-111127792I176776J-176776D01*
G01*
X145787164Y-111516702D01*
G75*
G02*
X145787164Y-111870254I-176776J-176776D01*
G01*
X145398254Y-112259164D01*
G75*
G02*
X145044702Y-112259164I-176776J176776D01*
G01*
X144655792Y-111870254D01*
G75*
G02*
X144655792Y-111516702I176776J176776D01*
G01*
G37*
G36*
G01*
X143736553Y-112435941D02*
X144125463Y-112047031D01*
G75*
G02*
X144479015Y-112047031I176776J-176776D01*
G01*
X144867925Y-112435941D01*
G75*
G02*
X144867925Y-112789493I-176776J-176776D01*
G01*
X144479015Y-113178403D01*
G75*
G02*
X144125463Y-113178403I-176776J176776D01*
G01*
X143736553Y-112789493D01*
G75*
G02*
X143736553Y-112435941I176776J176776D01*
G01*
G37*
G36*
G01*
X142817314Y-113355179D02*
X143206224Y-112966269D01*
G75*
G02*
X143559776Y-112966269I176776J-176776D01*
G01*
X143948686Y-113355179D01*
G75*
G02*
X143948686Y-113708731I-176776J-176776D01*
G01*
X143559776Y-114097641D01*
G75*
G02*
X143206224Y-114097641I-176776J176776D01*
G01*
X142817314Y-113708731D01*
G75*
G02*
X142817314Y-113355179I176776J176776D01*
G01*
G37*
G36*
G01*
X144655792Y-109678224D02*
X145044702Y-109289314D01*
G75*
G02*
X145398254Y-109289314I176776J-176776D01*
G01*
X145787164Y-109678224D01*
G75*
G02*
X145787164Y-110031776I-176776J-176776D01*
G01*
X145398254Y-110420686D01*
G75*
G02*
X145044702Y-110420686I-176776J176776D01*
G01*
X144655792Y-110031776D01*
G75*
G02*
X144655792Y-109678224I176776J176776D01*
G01*
G37*
G36*
G01*
X143736553Y-110597463D02*
X144125463Y-110208553D01*
G75*
G02*
X144479015Y-110208553I176776J-176776D01*
G01*
X144867925Y-110597463D01*
G75*
G02*
X144867925Y-110951015I-176776J-176776D01*
G01*
X144479015Y-111339925D01*
G75*
G02*
X144125463Y-111339925I-176776J176776D01*
G01*
X143736553Y-110951015D01*
G75*
G02*
X143736553Y-110597463I176776J176776D01*
G01*
G37*
G36*
G01*
X142817314Y-111516702D02*
X143206224Y-111127792D01*
G75*
G02*
X143559776Y-111127792I176776J-176776D01*
G01*
X143948686Y-111516702D01*
G75*
G02*
X143948686Y-111870254I-176776J-176776D01*
G01*
X143559776Y-112259164D01*
G75*
G02*
X143206224Y-112259164I-176776J176776D01*
G01*
X142817314Y-111870254D01*
G75*
G02*
X142817314Y-111516702I176776J176776D01*
G01*
G37*
G36*
G01*
X141898075Y-112435941D02*
X142286985Y-112047031D01*
G75*
G02*
X142640537Y-112047031I176776J-176776D01*
G01*
X143029447Y-112435941D01*
G75*
G02*
X143029447Y-112789493I-176776J-176776D01*
G01*
X142640537Y-113178403D01*
G75*
G02*
X142286985Y-113178403I-176776J176776D01*
G01*
X141898075Y-112789493D01*
G75*
G02*
X141898075Y-112435941I176776J176776D01*
G01*
G37*
G36*
G01*
X143736553Y-108758985D02*
X144125463Y-108370075D01*
G75*
G02*
X144479015Y-108370075I176776J-176776D01*
G01*
X144867925Y-108758985D01*
G75*
G02*
X144867925Y-109112537I-176776J-176776D01*
G01*
X144479015Y-109501447D01*
G75*
G02*
X144125463Y-109501447I-176776J176776D01*
G01*
X143736553Y-109112537D01*
G75*
G02*
X143736553Y-108758985I176776J176776D01*
G01*
G37*
G36*
G01*
X142817314Y-109678224D02*
X143206224Y-109289314D01*
G75*
G02*
X143559776Y-109289314I176776J-176776D01*
G01*
X143948686Y-109678224D01*
G75*
G02*
X143948686Y-110031776I-176776J-176776D01*
G01*
X143559776Y-110420686D01*
G75*
G02*
X143206224Y-110420686I-176776J176776D01*
G01*
X142817314Y-110031776D01*
G75*
G02*
X142817314Y-109678224I176776J176776D01*
G01*
G37*
G36*
G01*
X141898075Y-110597463D02*
X142286985Y-110208553D01*
G75*
G02*
X142640537Y-110208553I176776J-176776D01*
G01*
X143029447Y-110597463D01*
G75*
G02*
X143029447Y-110951015I-176776J-176776D01*
G01*
X142640537Y-111339925D01*
G75*
G02*
X142286985Y-111339925I-176776J176776D01*
G01*
X141898075Y-110951015D01*
G75*
G02*
X141898075Y-110597463I176776J176776D01*
G01*
G37*
G36*
G01*
X140978836Y-111516702D02*
X141367746Y-111127792D01*
G75*
G02*
X141721298Y-111127792I176776J-176776D01*
G01*
X142110208Y-111516702D01*
G75*
G02*
X142110208Y-111870254I-176776J-176776D01*
G01*
X141721298Y-112259164D01*
G75*
G02*
X141367746Y-112259164I-176776J176776D01*
G01*
X140978836Y-111870254D01*
G75*
G02*
X140978836Y-111516702I176776J176776D01*
G01*
G37*
G36*
G01*
X142817314Y-107839747D02*
X143206224Y-107450837D01*
G75*
G02*
X143559776Y-107450837I176776J-176776D01*
G01*
X143948686Y-107839747D01*
G75*
G02*
X143948686Y-108193299I-176776J-176776D01*
G01*
X143559776Y-108582209D01*
G75*
G02*
X143206224Y-108582209I-176776J176776D01*
G01*
X142817314Y-108193299D01*
G75*
G02*
X142817314Y-107839747I176776J176776D01*
G01*
G37*
G36*
G01*
X141898075Y-108758985D02*
X142286985Y-108370075D01*
G75*
G02*
X142640537Y-108370075I176776J-176776D01*
G01*
X143029447Y-108758985D01*
G75*
G02*
X143029447Y-109112537I-176776J-176776D01*
G01*
X142640537Y-109501447D01*
G75*
G02*
X142286985Y-109501447I-176776J176776D01*
G01*
X141898075Y-109112537D01*
G75*
G02*
X141898075Y-108758985I176776J176776D01*
G01*
G37*
G36*
G01*
X140978836Y-109678224D02*
X141367746Y-109289314D01*
G75*
G02*
X141721298Y-109289314I176776J-176776D01*
G01*
X142110208Y-109678224D01*
G75*
G02*
X142110208Y-110031776I-176776J-176776D01*
G01*
X141721298Y-110420686D01*
G75*
G02*
X141367746Y-110420686I-176776J176776D01*
G01*
X140978836Y-110031776D01*
G75*
G02*
X140978836Y-109678224I176776J176776D01*
G01*
G37*
G36*
G01*
X140059598Y-110597463D02*
X140448508Y-110208553D01*
G75*
G02*
X140802060Y-110208553I176776J-176776D01*
G01*
X141190970Y-110597463D01*
G75*
G02*
X141190970Y-110951015I-176776J-176776D01*
G01*
X140802060Y-111339925D01*
G75*
G02*
X140448508Y-111339925I-176776J176776D01*
G01*
X140059598Y-110951015D01*
G75*
G02*
X140059598Y-110597463I176776J176776D01*
G01*
G37*
G36*
G01*
X138831000Y-111613929D02*
X139502752Y-110942177D01*
G75*
G02*
X139591140Y-110942177I44194J-44194D01*
G01*
X139679528Y-111030565D01*
G75*
G02*
X139679528Y-111118953I-44194J-44194D01*
G01*
X139007776Y-111790705D01*
G75*
G02*
X138919388Y-111790705I-44194J44194D01*
G01*
X138831000Y-111702317D01*
G75*
G02*
X138831000Y-111613929I44194J44194D01*
G01*
G37*
G36*
G01*
X139184554Y-111967482D02*
X139856306Y-111295730D01*
G75*
G02*
X139944694Y-111295730I44194J-44194D01*
G01*
X140033082Y-111384118D01*
G75*
G02*
X140033082Y-111472506I-44194J-44194D01*
G01*
X139361330Y-112144258D01*
G75*
G02*
X139272942Y-112144258I-44194J44194D01*
G01*
X139184554Y-112055870D01*
G75*
G02*
X139184554Y-111967482I44194J44194D01*
G01*
G37*
G36*
G01*
X139538107Y-112321036D02*
X140209859Y-111649284D01*
G75*
G02*
X140298247Y-111649284I44194J-44194D01*
G01*
X140386635Y-111737672D01*
G75*
G02*
X140386635Y-111826060I-44194J-44194D01*
G01*
X139714883Y-112497812D01*
G75*
G02*
X139626495Y-112497812I-44194J44194D01*
G01*
X139538107Y-112409424D01*
G75*
G02*
X139538107Y-112321036I44194J44194D01*
G01*
G37*
G36*
G01*
X139891660Y-112674589D02*
X140563412Y-112002837D01*
G75*
G02*
X140651800Y-112002837I44194J-44194D01*
G01*
X140740188Y-112091225D01*
G75*
G02*
X140740188Y-112179613I-44194J-44194D01*
G01*
X140068436Y-112851365D01*
G75*
G02*
X139980048Y-112851365I-44194J44194D01*
G01*
X139891660Y-112762977D01*
G75*
G02*
X139891660Y-112674589I44194J44194D01*
G01*
G37*
G36*
G01*
X140245214Y-113028142D02*
X140916966Y-112356390D01*
G75*
G02*
X141005354Y-112356390I44194J-44194D01*
G01*
X141093742Y-112444778D01*
G75*
G02*
X141093742Y-112533166I-44194J-44194D01*
G01*
X140421990Y-113204918D01*
G75*
G02*
X140333602Y-113204918I-44194J44194D01*
G01*
X140245214Y-113116530D01*
G75*
G02*
X140245214Y-113028142I44194J44194D01*
G01*
G37*
G36*
G01*
X140598767Y-113381696D02*
X141270519Y-112709944D01*
G75*
G02*
X141358907Y-112709944I44194J-44194D01*
G01*
X141447295Y-112798332D01*
G75*
G02*
X141447295Y-112886720I-44194J-44194D01*
G01*
X140775543Y-113558472D01*
G75*
G02*
X140687155Y-113558472I-44194J44194D01*
G01*
X140598767Y-113470084D01*
G75*
G02*
X140598767Y-113381696I44194J44194D01*
G01*
G37*
G36*
G01*
X140952321Y-113735249D02*
X141624073Y-113063497D01*
G75*
G02*
X141712461Y-113063497I44194J-44194D01*
G01*
X141800849Y-113151885D01*
G75*
G02*
X141800849Y-113240273I-44194J-44194D01*
G01*
X141129097Y-113912025D01*
G75*
G02*
X141040709Y-113912025I-44194J44194D01*
G01*
X140952321Y-113823637D01*
G75*
G02*
X140952321Y-113735249I44194J44194D01*
G01*
G37*
G36*
G01*
X141305874Y-114088803D02*
X141977626Y-113417051D01*
G75*
G02*
X142066014Y-113417051I44194J-44194D01*
G01*
X142154402Y-113505439D01*
G75*
G02*
X142154402Y-113593827I-44194J-44194D01*
G01*
X141482650Y-114265579D01*
G75*
G02*
X141394262Y-114265579I-44194J44194D01*
G01*
X141305874Y-114177191D01*
G75*
G02*
X141305874Y-114088803I44194J44194D01*
G01*
G37*
G36*
G01*
X141659427Y-114442356D02*
X142331179Y-113770604D01*
G75*
G02*
X142419567Y-113770604I44194J-44194D01*
G01*
X142507955Y-113858992D01*
G75*
G02*
X142507955Y-113947380I-44194J-44194D01*
G01*
X141836203Y-114619132D01*
G75*
G02*
X141747815Y-114619132I-44194J44194D01*
G01*
X141659427Y-114530744D01*
G75*
G02*
X141659427Y-114442356I44194J44194D01*
G01*
G37*
G36*
G01*
X142012981Y-114795909D02*
X142684733Y-114124157D01*
G75*
G02*
X142773121Y-114124157I44194J-44194D01*
G01*
X142861509Y-114212545D01*
G75*
G02*
X142861509Y-114300933I-44194J-44194D01*
G01*
X142189757Y-114972685D01*
G75*
G02*
X142101369Y-114972685I-44194J44194D01*
G01*
X142012981Y-114884297D01*
G75*
G02*
X142012981Y-114795909I44194J44194D01*
G01*
G37*
G36*
G01*
X142366534Y-115149463D02*
X143038286Y-114477711D01*
G75*
G02*
X143126674Y-114477711I44194J-44194D01*
G01*
X143215062Y-114566099D01*
G75*
G02*
X143215062Y-114654487I-44194J-44194D01*
G01*
X142543310Y-115326239D01*
G75*
G02*
X142454922Y-115326239I-44194J44194D01*
G01*
X142366534Y-115237851D01*
G75*
G02*
X142366534Y-115149463I44194J44194D01*
G01*
G37*
G36*
G01*
X143550938Y-114566099D02*
X143639326Y-114477711D01*
G75*
G02*
X143727714Y-114477711I44194J-44194D01*
G01*
X144399466Y-115149463D01*
G75*
G02*
X144399466Y-115237851I-44194J-44194D01*
G01*
X144311078Y-115326239D01*
G75*
G02*
X144222690Y-115326239I-44194J44194D01*
G01*
X143550938Y-114654487D01*
G75*
G02*
X143550938Y-114566099I44194J44194D01*
G01*
G37*
G36*
G01*
X143904491Y-114212545D02*
X143992879Y-114124157D01*
G75*
G02*
X144081267Y-114124157I44194J-44194D01*
G01*
X144753019Y-114795909D01*
G75*
G02*
X144753019Y-114884297I-44194J-44194D01*
G01*
X144664631Y-114972685D01*
G75*
G02*
X144576243Y-114972685I-44194J44194D01*
G01*
X143904491Y-114300933D01*
G75*
G02*
X143904491Y-114212545I44194J44194D01*
G01*
G37*
G36*
G01*
X144258045Y-113858992D02*
X144346433Y-113770604D01*
G75*
G02*
X144434821Y-113770604I44194J-44194D01*
G01*
X145106573Y-114442356D01*
G75*
G02*
X145106573Y-114530744I-44194J-44194D01*
G01*
X145018185Y-114619132D01*
G75*
G02*
X144929797Y-114619132I-44194J44194D01*
G01*
X144258045Y-113947380D01*
G75*
G02*
X144258045Y-113858992I44194J44194D01*
G01*
G37*
G36*
G01*
X144611598Y-113505439D02*
X144699986Y-113417051D01*
G75*
G02*
X144788374Y-113417051I44194J-44194D01*
G01*
X145460126Y-114088803D01*
G75*
G02*
X145460126Y-114177191I-44194J-44194D01*
G01*
X145371738Y-114265579D01*
G75*
G02*
X145283350Y-114265579I-44194J44194D01*
G01*
X144611598Y-113593827D01*
G75*
G02*
X144611598Y-113505439I44194J44194D01*
G01*
G37*
G36*
G01*
X144965151Y-113151885D02*
X145053539Y-113063497D01*
G75*
G02*
X145141927Y-113063497I44194J-44194D01*
G01*
X145813679Y-113735249D01*
G75*
G02*
X145813679Y-113823637I-44194J-44194D01*
G01*
X145725291Y-113912025D01*
G75*
G02*
X145636903Y-113912025I-44194J44194D01*
G01*
X144965151Y-113240273D01*
G75*
G02*
X144965151Y-113151885I44194J44194D01*
G01*
G37*
G36*
G01*
X145318705Y-112798332D02*
X145407093Y-112709944D01*
G75*
G02*
X145495481Y-112709944I44194J-44194D01*
G01*
X146167233Y-113381696D01*
G75*
G02*
X146167233Y-113470084I-44194J-44194D01*
G01*
X146078845Y-113558472D01*
G75*
G02*
X145990457Y-113558472I-44194J44194D01*
G01*
X145318705Y-112886720D01*
G75*
G02*
X145318705Y-112798332I44194J44194D01*
G01*
G37*
G36*
G01*
X145672258Y-112444778D02*
X145760646Y-112356390D01*
G75*
G02*
X145849034Y-112356390I44194J-44194D01*
G01*
X146520786Y-113028142D01*
G75*
G02*
X146520786Y-113116530I-44194J-44194D01*
G01*
X146432398Y-113204918D01*
G75*
G02*
X146344010Y-113204918I-44194J44194D01*
G01*
X145672258Y-112533166D01*
G75*
G02*
X145672258Y-112444778I44194J44194D01*
G01*
G37*
G36*
G01*
X146025812Y-112091225D02*
X146114200Y-112002837D01*
G75*
G02*
X146202588Y-112002837I44194J-44194D01*
G01*
X146874340Y-112674589D01*
G75*
G02*
X146874340Y-112762977I-44194J-44194D01*
G01*
X146785952Y-112851365D01*
G75*
G02*
X146697564Y-112851365I-44194J44194D01*
G01*
X146025812Y-112179613D01*
G75*
G02*
X146025812Y-112091225I44194J44194D01*
G01*
G37*
G36*
G01*
X146379365Y-111737672D02*
X146467753Y-111649284D01*
G75*
G02*
X146556141Y-111649284I44194J-44194D01*
G01*
X147227893Y-112321036D01*
G75*
G02*
X147227893Y-112409424I-44194J-44194D01*
G01*
X147139505Y-112497812D01*
G75*
G02*
X147051117Y-112497812I-44194J44194D01*
G01*
X146379365Y-111826060D01*
G75*
G02*
X146379365Y-111737672I44194J44194D01*
G01*
G37*
G36*
G01*
X146732918Y-111384118D02*
X146821306Y-111295730D01*
G75*
G02*
X146909694Y-111295730I44194J-44194D01*
G01*
X147581446Y-111967482D01*
G75*
G02*
X147581446Y-112055870I-44194J-44194D01*
G01*
X147493058Y-112144258D01*
G75*
G02*
X147404670Y-112144258I-44194J44194D01*
G01*
X146732918Y-111472506D01*
G75*
G02*
X146732918Y-111384118I44194J44194D01*
G01*
G37*
G36*
G01*
X147086472Y-111030565D02*
X147174860Y-110942177D01*
G75*
G02*
X147263248Y-110942177I44194J-44194D01*
G01*
X147935000Y-111613929D01*
G75*
G02*
X147935000Y-111702317I-44194J-44194D01*
G01*
X147846612Y-111790705D01*
G75*
G02*
X147758224Y-111790705I-44194J44194D01*
G01*
X147086472Y-111118953D01*
G75*
G02*
X147086472Y-111030565I44194J44194D01*
G01*
G37*
G36*
G01*
X147086472Y-110429525D02*
X147758224Y-109757773D01*
G75*
G02*
X147846612Y-109757773I44194J-44194D01*
G01*
X147935000Y-109846161D01*
G75*
G02*
X147935000Y-109934549I-44194J-44194D01*
G01*
X147263248Y-110606301D01*
G75*
G02*
X147174860Y-110606301I-44194J44194D01*
G01*
X147086472Y-110517913D01*
G75*
G02*
X147086472Y-110429525I44194J44194D01*
G01*
G37*
G36*
G01*
X146732918Y-110075972D02*
X147404670Y-109404220D01*
G75*
G02*
X147493058Y-109404220I44194J-44194D01*
G01*
X147581446Y-109492608D01*
G75*
G02*
X147581446Y-109580996I-44194J-44194D01*
G01*
X146909694Y-110252748D01*
G75*
G02*
X146821306Y-110252748I-44194J44194D01*
G01*
X146732918Y-110164360D01*
G75*
G02*
X146732918Y-110075972I44194J44194D01*
G01*
G37*
G36*
G01*
X146379365Y-109722418D02*
X147051117Y-109050666D01*
G75*
G02*
X147139505Y-109050666I44194J-44194D01*
G01*
X147227893Y-109139054D01*
G75*
G02*
X147227893Y-109227442I-44194J-44194D01*
G01*
X146556141Y-109899194D01*
G75*
G02*
X146467753Y-109899194I-44194J44194D01*
G01*
X146379365Y-109810806D01*
G75*
G02*
X146379365Y-109722418I44194J44194D01*
G01*
G37*
G36*
G01*
X146025812Y-109368865D02*
X146697564Y-108697113D01*
G75*
G02*
X146785952Y-108697113I44194J-44194D01*
G01*
X146874340Y-108785501D01*
G75*
G02*
X146874340Y-108873889I-44194J-44194D01*
G01*
X146202588Y-109545641D01*
G75*
G02*
X146114200Y-109545641I-44194J44194D01*
G01*
X146025812Y-109457253D01*
G75*
G02*
X146025812Y-109368865I44194J44194D01*
G01*
G37*
G36*
G01*
X145672258Y-109015312D02*
X146344010Y-108343560D01*
G75*
G02*
X146432398Y-108343560I44194J-44194D01*
G01*
X146520786Y-108431948D01*
G75*
G02*
X146520786Y-108520336I-44194J-44194D01*
G01*
X145849034Y-109192088D01*
G75*
G02*
X145760646Y-109192088I-44194J44194D01*
G01*
X145672258Y-109103700D01*
G75*
G02*
X145672258Y-109015312I44194J44194D01*
G01*
G37*
G36*
G01*
X145318705Y-108661758D02*
X145990457Y-107990006D01*
G75*
G02*
X146078845Y-107990006I44194J-44194D01*
G01*
X146167233Y-108078394D01*
G75*
G02*
X146167233Y-108166782I-44194J-44194D01*
G01*
X145495481Y-108838534D01*
G75*
G02*
X145407093Y-108838534I-44194J44194D01*
G01*
X145318705Y-108750146D01*
G75*
G02*
X145318705Y-108661758I44194J44194D01*
G01*
G37*
G36*
G01*
X144965151Y-108308205D02*
X145636903Y-107636453D01*
G75*
G02*
X145725291Y-107636453I44194J-44194D01*
G01*
X145813679Y-107724841D01*
G75*
G02*
X145813679Y-107813229I-44194J-44194D01*
G01*
X145141927Y-108484981D01*
G75*
G02*
X145053539Y-108484981I-44194J44194D01*
G01*
X144965151Y-108396593D01*
G75*
G02*
X144965151Y-108308205I44194J44194D01*
G01*
G37*
G36*
G01*
X144611598Y-107954651D02*
X145283350Y-107282899D01*
G75*
G02*
X145371738Y-107282899I44194J-44194D01*
G01*
X145460126Y-107371287D01*
G75*
G02*
X145460126Y-107459675I-44194J-44194D01*
G01*
X144788374Y-108131427D01*
G75*
G02*
X144699986Y-108131427I-44194J44194D01*
G01*
X144611598Y-108043039D01*
G75*
G02*
X144611598Y-107954651I44194J44194D01*
G01*
G37*
G36*
G01*
X144258045Y-107601098D02*
X144929797Y-106929346D01*
G75*
G02*
X145018185Y-106929346I44194J-44194D01*
G01*
X145106573Y-107017734D01*
G75*
G02*
X145106573Y-107106122I-44194J-44194D01*
G01*
X144434821Y-107777874D01*
G75*
G02*
X144346433Y-107777874I-44194J44194D01*
G01*
X144258045Y-107689486D01*
G75*
G02*
X144258045Y-107601098I44194J44194D01*
G01*
G37*
G36*
G01*
X143904491Y-107247545D02*
X144576243Y-106575793D01*
G75*
G02*
X144664631Y-106575793I44194J-44194D01*
G01*
X144753019Y-106664181D01*
G75*
G02*
X144753019Y-106752569I-44194J-44194D01*
G01*
X144081267Y-107424321D01*
G75*
G02*
X143992879Y-107424321I-44194J44194D01*
G01*
X143904491Y-107335933D01*
G75*
G02*
X143904491Y-107247545I44194J44194D01*
G01*
G37*
G36*
G01*
X143550938Y-106893991D02*
X144222690Y-106222239D01*
G75*
G02*
X144311078Y-106222239I44194J-44194D01*
G01*
X144399466Y-106310627D01*
G75*
G02*
X144399466Y-106399015I-44194J-44194D01*
G01*
X143727714Y-107070767D01*
G75*
G02*
X143639326Y-107070767I-44194J44194D01*
G01*
X143550938Y-106982379D01*
G75*
G02*
X143550938Y-106893991I44194J44194D01*
G01*
G37*
G36*
G01*
X142366534Y-106310627D02*
X142454922Y-106222239D01*
G75*
G02*
X142543310Y-106222239I44194J-44194D01*
G01*
X143215062Y-106893991D01*
G75*
G02*
X143215062Y-106982379I-44194J-44194D01*
G01*
X143126674Y-107070767D01*
G75*
G02*
X143038286Y-107070767I-44194J44194D01*
G01*
X142366534Y-106399015D01*
G75*
G02*
X142366534Y-106310627I44194J44194D01*
G01*
G37*
G36*
G01*
X142012981Y-106664181D02*
X142101369Y-106575793D01*
G75*
G02*
X142189757Y-106575793I44194J-44194D01*
G01*
X142861509Y-107247545D01*
G75*
G02*
X142861509Y-107335933I-44194J-44194D01*
G01*
X142773121Y-107424321D01*
G75*
G02*
X142684733Y-107424321I-44194J44194D01*
G01*
X142012981Y-106752569D01*
G75*
G02*
X142012981Y-106664181I44194J44194D01*
G01*
G37*
G36*
G01*
X141659427Y-107017734D02*
X141747815Y-106929346D01*
G75*
G02*
X141836203Y-106929346I44194J-44194D01*
G01*
X142507955Y-107601098D01*
G75*
G02*
X142507955Y-107689486I-44194J-44194D01*
G01*
X142419567Y-107777874D01*
G75*
G02*
X142331179Y-107777874I-44194J44194D01*
G01*
X141659427Y-107106122D01*
G75*
G02*
X141659427Y-107017734I44194J44194D01*
G01*
G37*
G36*
G01*
X141305874Y-107371287D02*
X141394262Y-107282899D01*
G75*
G02*
X141482650Y-107282899I44194J-44194D01*
G01*
X142154402Y-107954651D01*
G75*
G02*
X142154402Y-108043039I-44194J-44194D01*
G01*
X142066014Y-108131427D01*
G75*
G02*
X141977626Y-108131427I-44194J44194D01*
G01*
X141305874Y-107459675D01*
G75*
G02*
X141305874Y-107371287I44194J44194D01*
G01*
G37*
G36*
G01*
X140952321Y-107724841D02*
X141040709Y-107636453D01*
G75*
G02*
X141129097Y-107636453I44194J-44194D01*
G01*
X141800849Y-108308205D01*
G75*
G02*
X141800849Y-108396593I-44194J-44194D01*
G01*
X141712461Y-108484981D01*
G75*
G02*
X141624073Y-108484981I-44194J44194D01*
G01*
X140952321Y-107813229D01*
G75*
G02*
X140952321Y-107724841I44194J44194D01*
G01*
G37*
G36*
G01*
X140598767Y-108078394D02*
X140687155Y-107990006D01*
G75*
G02*
X140775543Y-107990006I44194J-44194D01*
G01*
X141447295Y-108661758D01*
G75*
G02*
X141447295Y-108750146I-44194J-44194D01*
G01*
X141358907Y-108838534D01*
G75*
G02*
X141270519Y-108838534I-44194J44194D01*
G01*
X140598767Y-108166782D01*
G75*
G02*
X140598767Y-108078394I44194J44194D01*
G01*
G37*
G36*
G01*
X140245214Y-108431948D02*
X140333602Y-108343560D01*
G75*
G02*
X140421990Y-108343560I44194J-44194D01*
G01*
X141093742Y-109015312D01*
G75*
G02*
X141093742Y-109103700I-44194J-44194D01*
G01*
X141005354Y-109192088D01*
G75*
G02*
X140916966Y-109192088I-44194J44194D01*
G01*
X140245214Y-108520336D01*
G75*
G02*
X140245214Y-108431948I44194J44194D01*
G01*
G37*
G36*
G01*
X139891660Y-108785501D02*
X139980048Y-108697113D01*
G75*
G02*
X140068436Y-108697113I44194J-44194D01*
G01*
X140740188Y-109368865D01*
G75*
G02*
X140740188Y-109457253I-44194J-44194D01*
G01*
X140651800Y-109545641D01*
G75*
G02*
X140563412Y-109545641I-44194J44194D01*
G01*
X139891660Y-108873889D01*
G75*
G02*
X139891660Y-108785501I44194J44194D01*
G01*
G37*
G36*
G01*
X139538107Y-109139054D02*
X139626495Y-109050666D01*
G75*
G02*
X139714883Y-109050666I44194J-44194D01*
G01*
X140386635Y-109722418D01*
G75*
G02*
X140386635Y-109810806I-44194J-44194D01*
G01*
X140298247Y-109899194D01*
G75*
G02*
X140209859Y-109899194I-44194J44194D01*
G01*
X139538107Y-109227442D01*
G75*
G02*
X139538107Y-109139054I44194J44194D01*
G01*
G37*
G36*
G01*
X139184554Y-109492608D02*
X139272942Y-109404220D01*
G75*
G02*
X139361330Y-109404220I44194J-44194D01*
G01*
X140033082Y-110075972D01*
G75*
G02*
X140033082Y-110164360I-44194J-44194D01*
G01*
X139944694Y-110252748D01*
G75*
G02*
X139856306Y-110252748I-44194J44194D01*
G01*
X139184554Y-109580996D01*
G75*
G02*
X139184554Y-109492608I44194J44194D01*
G01*
G37*
G36*
G01*
X138831000Y-109846161D02*
X138919388Y-109757773D01*
G75*
G02*
X139007776Y-109757773I44194J-44194D01*
G01*
X139679528Y-110429525D01*
G75*
G02*
X139679528Y-110517913I-44194J-44194D01*
G01*
X139591140Y-110606301D01*
G75*
G02*
X139502752Y-110606301I-44194J44194D01*
G01*
X138831000Y-109934549D01*
G75*
G02*
X138831000Y-109846161I44194J44194D01*
G01*
G37*
%TD*%
D10*
%TO.C,Y1*%
X149281408Y-99382013D03*
X147081408Y-99382013D03*
X147081408Y-101082013D03*
X149281408Y-101082013D03*
%TD*%
D11*
%TO.C,USB1*%
X140503000Y-85471000D03*
X141003000Y-85471000D03*
X141503000Y-85471000D03*
X140003000Y-85471000D03*
X142003000Y-85471000D03*
X139503000Y-85471000D03*
X142503000Y-85471000D03*
X139003000Y-85471000D03*
D12*
X138303000Y-85471000D03*
X143203000Y-85471000D03*
X137528000Y-85471000D03*
X143978000Y-85471000D03*
%TD*%
%TO.C,R7*%
G36*
G01*
X148357000Y-80347000D02*
X147807000Y-80347000D01*
G75*
G02*
X147607000Y-80147000I0J200000D01*
G01*
X147607000Y-79747000D01*
G75*
G02*
X147807000Y-79547000I200000J0D01*
G01*
X148357000Y-79547000D01*
G75*
G02*
X148557000Y-79747000I0J-200000D01*
G01*
X148557000Y-80147000D01*
G75*
G02*
X148357000Y-80347000I-200000J0D01*
G01*
G37*
G36*
G01*
X148357000Y-81997000D02*
X147807000Y-81997000D01*
G75*
G02*
X147607000Y-81797000I0J200000D01*
G01*
X147607000Y-81397000D01*
G75*
G02*
X147807000Y-81197000I200000J0D01*
G01*
X148357000Y-81197000D01*
G75*
G02*
X148557000Y-81397000I0J-200000D01*
G01*
X148557000Y-81797000D01*
G75*
G02*
X148357000Y-81997000I-200000J0D01*
G01*
G37*
%TD*%
%TO.C,R6*%
G36*
G01*
X145436000Y-87522000D02*
X144886000Y-87522000D01*
G75*
G02*
X144686000Y-87322000I0J200000D01*
G01*
X144686000Y-86922000D01*
G75*
G02*
X144886000Y-86722000I200000J0D01*
G01*
X145436000Y-86722000D01*
G75*
G02*
X145636000Y-86922000I0J-200000D01*
G01*
X145636000Y-87322000D01*
G75*
G02*
X145436000Y-87522000I-200000J0D01*
G01*
G37*
G36*
G01*
X145436000Y-89172000D02*
X144886000Y-89172000D01*
G75*
G02*
X144686000Y-88972000I0J200000D01*
G01*
X144686000Y-88572000D01*
G75*
G02*
X144886000Y-88372000I200000J0D01*
G01*
X145436000Y-88372000D01*
G75*
G02*
X145636000Y-88572000I0J-200000D01*
G01*
X145636000Y-88972000D01*
G75*
G02*
X145436000Y-89172000I-200000J0D01*
G01*
G37*
%TD*%
%TO.C,R5*%
G36*
G01*
X136673000Y-87522000D02*
X136123000Y-87522000D01*
G75*
G02*
X135923000Y-87322000I0J200000D01*
G01*
X135923000Y-86922000D01*
G75*
G02*
X136123000Y-86722000I200000J0D01*
G01*
X136673000Y-86722000D01*
G75*
G02*
X136873000Y-86922000I0J-200000D01*
G01*
X136873000Y-87322000D01*
G75*
G02*
X136673000Y-87522000I-200000J0D01*
G01*
G37*
G36*
G01*
X136673000Y-89172000D02*
X136123000Y-89172000D01*
G75*
G02*
X135923000Y-88972000I0J200000D01*
G01*
X135923000Y-88572000D01*
G75*
G02*
X136123000Y-88372000I200000J0D01*
G01*
X136673000Y-88372000D01*
G75*
G02*
X136873000Y-88572000I0J-200000D01*
G01*
X136873000Y-88972000D01*
G75*
G02*
X136673000Y-89172000I-200000J0D01*
G01*
G37*
%TD*%
%TO.C,R4*%
G36*
G01*
X144715338Y-116785571D02*
X144326429Y-116396662D01*
G75*
G02*
X144326429Y-116113820I141421J141421D01*
G01*
X144609272Y-115830977D01*
G75*
G02*
X144892114Y-115830977I141421J-141421D01*
G01*
X145281023Y-116219886D01*
G75*
G02*
X145281023Y-116502728I-141421J-141421D01*
G01*
X144998180Y-116785571D01*
G75*
G02*
X144715338Y-116785571I-141421J141421D01*
G01*
G37*
G36*
G01*
X143548612Y-117952297D02*
X143159703Y-117563388D01*
G75*
G02*
X143159703Y-117280546I141421J141421D01*
G01*
X143442546Y-116997703D01*
G75*
G02*
X143725388Y-116997703I141421J-141421D01*
G01*
X144114297Y-117386612D01*
G75*
G02*
X144114297Y-117669454I-141421J-141421D01*
G01*
X143831454Y-117952297D01*
G75*
G02*
X143548612Y-117952297I-141421J141421D01*
G01*
G37*
%TD*%
%TO.C,R3*%
G36*
G01*
X141753000Y-95016000D02*
X141203000Y-95016000D01*
G75*
G02*
X141003000Y-94816000I0J200000D01*
G01*
X141003000Y-94416000D01*
G75*
G02*
X141203000Y-94216000I200000J0D01*
G01*
X141753000Y-94216000D01*
G75*
G02*
X141953000Y-94416000I0J-200000D01*
G01*
X141953000Y-94816000D01*
G75*
G02*
X141753000Y-95016000I-200000J0D01*
G01*
G37*
G36*
G01*
X141753000Y-96666000D02*
X141203000Y-96666000D01*
G75*
G02*
X141003000Y-96466000I0J200000D01*
G01*
X141003000Y-96066000D01*
G75*
G02*
X141203000Y-95866000I200000J0D01*
G01*
X141753000Y-95866000D01*
G75*
G02*
X141953000Y-96066000I0J-200000D01*
G01*
X141953000Y-96466000D01*
G75*
G02*
X141753000Y-96666000I-200000J0D01*
G01*
G37*
%TD*%
%TO.C,R2*%
G36*
G01*
X139721000Y-95015000D02*
X139171000Y-95015000D01*
G75*
G02*
X138971000Y-94815000I0J200000D01*
G01*
X138971000Y-94415000D01*
G75*
G02*
X139171000Y-94215000I200000J0D01*
G01*
X139721000Y-94215000D01*
G75*
G02*
X139921000Y-94415000I0J-200000D01*
G01*
X139921000Y-94815000D01*
G75*
G02*
X139721000Y-95015000I-200000J0D01*
G01*
G37*
G36*
G01*
X139721000Y-96665000D02*
X139171000Y-96665000D01*
G75*
G02*
X138971000Y-96465000I0J200000D01*
G01*
X138971000Y-96065000D01*
G75*
G02*
X139171000Y-95865000I200000J0D01*
G01*
X139721000Y-95865000D01*
G75*
G02*
X139921000Y-96065000I0J-200000D01*
G01*
X139921000Y-96465000D01*
G75*
G02*
X139721000Y-96665000I-200000J0D01*
G01*
G37*
%TD*%
%TO.C,R1*%
G36*
G01*
X145995571Y-103442662D02*
X145606662Y-103831571D01*
G75*
G02*
X145323820Y-103831571I-141421J141421D01*
G01*
X145040977Y-103548728D01*
G75*
G02*
X145040977Y-103265886I141421J141421D01*
G01*
X145429886Y-102876977D01*
G75*
G02*
X145712728Y-102876977I141421J-141421D01*
G01*
X145995571Y-103159820D01*
G75*
G02*
X145995571Y-103442662I-141421J-141421D01*
G01*
G37*
G36*
G01*
X147162297Y-104609388D02*
X146773388Y-104998297D01*
G75*
G02*
X146490546Y-104998297I-141421J141421D01*
G01*
X146207703Y-104715454D01*
G75*
G02*
X146207703Y-104432612I141421J141421D01*
G01*
X146596612Y-104043703D01*
G75*
G02*
X146879454Y-104043703I141421J-141421D01*
G01*
X147162297Y-104326546D01*
G75*
G02*
X147162297Y-104609388I-141421J-141421D01*
G01*
G37*
%TD*%
%TO.C,F1*%
G36*
G01*
X144643000Y-94345001D02*
X143393000Y-94345001D01*
G75*
G02*
X143143000Y-94095001I0J250000D01*
G01*
X143143000Y-93345001D01*
G75*
G02*
X143393000Y-93095001I250000J0D01*
G01*
X144643000Y-93095001D01*
G75*
G02*
X144893000Y-93345001I0J-250000D01*
G01*
X144893000Y-94095001D01*
G75*
G02*
X144643000Y-94345001I-250000J0D01*
G01*
G37*
G36*
G01*
X144643000Y-97145001D02*
X143393000Y-97145001D01*
G75*
G02*
X143143000Y-96895001I0J250000D01*
G01*
X143143000Y-96145001D01*
G75*
G02*
X143393000Y-95895001I250000J0D01*
G01*
X144643000Y-95895001D01*
G75*
G02*
X144893000Y-96145001I0J-250000D01*
G01*
X144893000Y-96895001D01*
G75*
G02*
X144643000Y-97145001I-250000J0D01*
G01*
G37*
%TD*%
D13*
%TO.C,D14*%
X141859000Y-91374000D03*
X141859000Y-89474000D03*
X139659000Y-89474000D03*
D10*
X139659000Y-91194000D03*
%TD*%
%TO.C,C10*%
G36*
G01*
X146808000Y-80460000D02*
X146308000Y-80460000D01*
G75*
G02*
X146083000Y-80235000I0J225000D01*
G01*
X146083000Y-79785000D01*
G75*
G02*
X146308000Y-79560000I225000J0D01*
G01*
X146808000Y-79560000D01*
G75*
G02*
X147033000Y-79785000I0J-225000D01*
G01*
X147033000Y-80235000D01*
G75*
G02*
X146808000Y-80460000I-225000J0D01*
G01*
G37*
G36*
G01*
X146808000Y-82010000D02*
X146308000Y-82010000D01*
G75*
G02*
X146083000Y-81785000I0J225000D01*
G01*
X146083000Y-81335000D01*
G75*
G02*
X146308000Y-81110000I225000J0D01*
G01*
X146808000Y-81110000D01*
G75*
G02*
X147033000Y-81335000I0J-225000D01*
G01*
X147033000Y-81785000D01*
G75*
G02*
X146808000Y-82010000I-225000J0D01*
G01*
G37*
%TD*%
%TO.C,C9*%
G36*
G01*
X141884587Y-103197967D02*
X141531033Y-102844413D01*
G75*
G02*
X141531033Y-102526215I159099J159099D01*
G01*
X141849231Y-102208017D01*
G75*
G02*
X142167429Y-102208017I159099J-159099D01*
G01*
X142520983Y-102561571D01*
G75*
G02*
X142520983Y-102879769I-159099J-159099D01*
G01*
X142202785Y-103197967D01*
G75*
G02*
X141884587Y-103197967I-159099J159099D01*
G01*
G37*
G36*
G01*
X140788571Y-104293983D02*
X140435017Y-103940429D01*
G75*
G02*
X140435017Y-103622231I159099J159099D01*
G01*
X140753215Y-103304033D01*
G75*
G02*
X141071413Y-103304033I159099J-159099D01*
G01*
X141424967Y-103657587D01*
G75*
G02*
X141424967Y-103975785I-159099J-159099D01*
G01*
X141106769Y-104293983D01*
G75*
G02*
X140788571Y-104293983I-159099J159099D01*
G01*
G37*
%TD*%
%TO.C,C8*%
G36*
G01*
X144799408Y-100583013D02*
X145299408Y-100583013D01*
G75*
G02*
X145524408Y-100808013I0J-225000D01*
G01*
X145524408Y-101258013D01*
G75*
G02*
X145299408Y-101483013I-225000J0D01*
G01*
X144799408Y-101483013D01*
G75*
G02*
X144574408Y-101258013I0J225000D01*
G01*
X144574408Y-100808013D01*
G75*
G02*
X144799408Y-100583013I225000J0D01*
G01*
G37*
G36*
G01*
X144799408Y-99033013D02*
X145299408Y-99033013D01*
G75*
G02*
X145524408Y-99258013I0J-225000D01*
G01*
X145524408Y-99708013D01*
G75*
G02*
X145299408Y-99933013I-225000J0D01*
G01*
X144799408Y-99933013D01*
G75*
G02*
X144574408Y-99708013I0J225000D01*
G01*
X144574408Y-99258013D01*
G75*
G02*
X144799408Y-99033013I225000J0D01*
G01*
G37*
%TD*%
%TO.C,C7*%
G36*
G01*
X151522408Y-99832012D02*
X151022408Y-99832012D01*
G75*
G02*
X150797408Y-99607012I0J225000D01*
G01*
X150797408Y-99157012D01*
G75*
G02*
X151022408Y-98932012I225000J0D01*
G01*
X151522408Y-98932012D01*
G75*
G02*
X151747408Y-99157012I0J-225000D01*
G01*
X151747408Y-99607012D01*
G75*
G02*
X151522408Y-99832012I-225000J0D01*
G01*
G37*
G36*
G01*
X151522408Y-101382012D02*
X151022408Y-101382012D01*
G75*
G02*
X150797408Y-101157012I0J225000D01*
G01*
X150797408Y-100707012D01*
G75*
G02*
X151022408Y-100482012I225000J0D01*
G01*
X151522408Y-100482012D01*
G75*
G02*
X151747408Y-100707012I0J-225000D01*
G01*
X151747408Y-101157012D01*
G75*
G02*
X151522408Y-101382012I-225000J0D01*
G01*
G37*
%TD*%
%TO.C,C6*%
G36*
G01*
X142987579Y-104126975D02*
X142634025Y-103773421D01*
G75*
G02*
X142634025Y-103455223I159099J159099D01*
G01*
X142952223Y-103137025D01*
G75*
G02*
X143270421Y-103137025I159099J-159099D01*
G01*
X143623975Y-103490579D01*
G75*
G02*
X143623975Y-103808777I-159099J-159099D01*
G01*
X143305777Y-104126975D01*
G75*
G02*
X142987579Y-104126975I-159099J159099D01*
G01*
G37*
G36*
G01*
X141891563Y-105222991D02*
X141538009Y-104869437D01*
G75*
G02*
X141538009Y-104551239I159099J159099D01*
G01*
X141856207Y-104233041D01*
G75*
G02*
X142174405Y-104233041I159099J-159099D01*
G01*
X142527959Y-104586595D01*
G75*
G02*
X142527959Y-104904793I-159099J-159099D01*
G01*
X142209761Y-105222991D01*
G75*
G02*
X141891563Y-105222991I-159099J159099D01*
G01*
G37*
%TD*%
%TO.C,C5*%
G36*
G01*
X145020975Y-104535421D02*
X144667421Y-104888975D01*
G75*
G02*
X144349223Y-104888975I-159099J159099D01*
G01*
X144031025Y-104570777D01*
G75*
G02*
X144031025Y-104252579I159099J159099D01*
G01*
X144384579Y-103899025D01*
G75*
G02*
X144702777Y-103899025I159099J-159099D01*
G01*
X145020975Y-104217223D01*
G75*
G02*
X145020975Y-104535421I-159099J-159099D01*
G01*
G37*
G36*
G01*
X146116991Y-105631437D02*
X145763437Y-105984991D01*
G75*
G02*
X145445239Y-105984991I-159099J159099D01*
G01*
X145127041Y-105666793D01*
G75*
G02*
X145127041Y-105348595I159099J159099D01*
G01*
X145480595Y-104995041D01*
G75*
G02*
X145798793Y-104995041I159099J-159099D01*
G01*
X146116991Y-105313239D01*
G75*
G02*
X146116991Y-105631437I-159099J-159099D01*
G01*
G37*
%TD*%
%TO.C,C4*%
G36*
G01*
X138680000Y-106977000D02*
X138180000Y-106977000D01*
G75*
G02*
X137955000Y-106752000I0J225000D01*
G01*
X137955000Y-106302000D01*
G75*
G02*
X138180000Y-106077000I225000J0D01*
G01*
X138680000Y-106077000D01*
G75*
G02*
X138905000Y-106302000I0J-225000D01*
G01*
X138905000Y-106752000D01*
G75*
G02*
X138680000Y-106977000I-225000J0D01*
G01*
G37*
G36*
G01*
X138680000Y-108527000D02*
X138180000Y-108527000D01*
G75*
G02*
X137955000Y-108302000I0J225000D01*
G01*
X137955000Y-107852000D01*
G75*
G02*
X138180000Y-107627000I225000J0D01*
G01*
X138680000Y-107627000D01*
G75*
G02*
X138905000Y-107852000I0J-225000D01*
G01*
X138905000Y-108302000D01*
G75*
G02*
X138680000Y-108527000I-225000J0D01*
G01*
G37*
%TD*%
%TO.C,C3*%
G36*
G01*
X140531000Y-116463000D02*
X140531000Y-116963000D01*
G75*
G02*
X140306000Y-117188000I-225000J0D01*
G01*
X139856000Y-117188000D01*
G75*
G02*
X139631000Y-116963000I0J225000D01*
G01*
X139631000Y-116463000D01*
G75*
G02*
X139856000Y-116238000I225000J0D01*
G01*
X140306000Y-116238000D01*
G75*
G02*
X140531000Y-116463000I0J-225000D01*
G01*
G37*
G36*
G01*
X142081000Y-116463000D02*
X142081000Y-116963000D01*
G75*
G02*
X141856000Y-117188000I-225000J0D01*
G01*
X141406000Y-117188000D01*
G75*
G02*
X141181000Y-116963000I0J225000D01*
G01*
X141181000Y-116463000D01*
G75*
G02*
X141406000Y-116238000I225000J0D01*
G01*
X141856000Y-116238000D01*
G75*
G02*
X142081000Y-116463000I0J-225000D01*
G01*
G37*
%TD*%
%TO.C,C2*%
G36*
G01*
X137193959Y-111313405D02*
X136840405Y-111666959D01*
G75*
G02*
X136522207Y-111666959I-159099J159099D01*
G01*
X136204009Y-111348761D01*
G75*
G02*
X136204009Y-111030563I159099J159099D01*
G01*
X136557563Y-110677009D01*
G75*
G02*
X136875761Y-110677009I159099J-159099D01*
G01*
X137193959Y-110995207D01*
G75*
G02*
X137193959Y-111313405I-159099J-159099D01*
G01*
G37*
G36*
G01*
X138289975Y-112409421D02*
X137936421Y-112762975D01*
G75*
G02*
X137618223Y-112762975I-159099J159099D01*
G01*
X137300025Y-112444777D01*
G75*
G02*
X137300025Y-112126579I159099J159099D01*
G01*
X137653579Y-111773025D01*
G75*
G02*
X137971777Y-111773025I159099J-159099D01*
G01*
X138289975Y-112091223D01*
G75*
G02*
X138289975Y-112409421I-159099J-159099D01*
G01*
G37*
%TD*%
%TO.C,C1*%
G36*
G01*
X149671595Y-111920959D02*
X149318041Y-111567405D01*
G75*
G02*
X149318041Y-111249207I159099J159099D01*
G01*
X149636239Y-110931009D01*
G75*
G02*
X149954437Y-110931009I159099J-159099D01*
G01*
X150307991Y-111284563D01*
G75*
G02*
X150307991Y-111602761I-159099J-159099D01*
G01*
X149989793Y-111920959D01*
G75*
G02*
X149671595Y-111920959I-159099J159099D01*
G01*
G37*
G36*
G01*
X148575579Y-113016975D02*
X148222025Y-112663421D01*
G75*
G02*
X148222025Y-112345223I159099J159099D01*
G01*
X148540223Y-112027025D01*
G75*
G02*
X148858421Y-112027025I159099J-159099D01*
G01*
X149211975Y-112380579D01*
G75*
G02*
X149211975Y-112698777I-159099J-159099D01*
G01*
X148893777Y-113016975D01*
G75*
G02*
X148575579Y-113016975I-159099J159099D01*
G01*
G37*
%TD*%
D14*
%TO.C,D26*%
X359984000Y-138970000D03*
X359034000Y-140970000D03*
X360934000Y-140970000D03*
%TD*%
%TO.C,D25*%
X315275000Y-138970000D03*
X314325000Y-140970000D03*
X316225000Y-140970000D03*
%TD*%
%TO.C,D24*%
X239903000Y-138938000D03*
X238953000Y-140938000D03*
X240853000Y-140938000D03*
%TD*%
%TO.C,D23*%
X180147000Y-138970000D03*
X179197000Y-140970000D03*
X181097000Y-140970000D03*
%TD*%
%TO.C,D22*%
X138115000Y-138970000D03*
X137165000Y-140970000D03*
X139065000Y-140970000D03*
%TD*%
D15*
%TO.C,D21*%
X354711000Y-121918000D03*
X354711000Y-118618000D03*
%TD*%
D14*
%TO.C,D20*%
X328615000Y-119920000D03*
X327665000Y-121920000D03*
X329565000Y-121920000D03*
%TD*%
%TO.C,D19*%
X290515000Y-119920000D03*
X289565000Y-121920000D03*
X291465000Y-121920000D03*
%TD*%
%TO.C,D18*%
X252415000Y-119920000D03*
X251465000Y-121920000D03*
X253365000Y-121920000D03*
%TD*%
%TO.C,D17*%
X214376000Y-119904000D03*
X213426000Y-121904000D03*
X215326000Y-121904000D03*
%TD*%
%TO.C,D16*%
X176337000Y-119920000D03*
X175387000Y-121920000D03*
X177287000Y-121920000D03*
%TD*%
%TO.C,D15*%
X142687000Y-119920000D03*
X141737000Y-121920000D03*
X143637000Y-121920000D03*
%TD*%
%TO.C,D13*%
X338140000Y-100870000D03*
X337190000Y-102870000D03*
X339090000Y-102870000D03*
%TD*%
%TO.C,D12*%
X300831250Y-100806250D03*
X299881250Y-102806250D03*
X301781250Y-102806250D03*
%TD*%
%TO.C,D11*%
X261874000Y-100854000D03*
X260924000Y-102854000D03*
X262824000Y-102854000D03*
%TD*%
%TO.C,D10*%
X223901000Y-100854000D03*
X222951000Y-102854000D03*
X224851000Y-102854000D03*
%TD*%
%TO.C,D9*%
X185801000Y-100870000D03*
X184851000Y-102870000D03*
X186751000Y-102870000D03*
%TD*%
%TO.C,D8*%
X154752000Y-100362000D03*
X153802000Y-102362000D03*
X155702000Y-102362000D03*
%TD*%
D15*
%TO.C,D7*%
X357632000Y-84455000D03*
X357632000Y-81155000D03*
%TD*%
D14*
%TO.C,D6*%
X334838000Y-81820000D03*
X333888000Y-83820000D03*
X335788000Y-83820000D03*
%TD*%
%TO.C,D5*%
X295275000Y-81804000D03*
X294325000Y-83804000D03*
X296225000Y-83804000D03*
%TD*%
%TO.C,D4*%
X257241000Y-81820000D03*
X256291000Y-83820000D03*
X258191000Y-83820000D03*
%TD*%
%TO.C,D3*%
X219014000Y-81820000D03*
X218064000Y-83820000D03*
X219964000Y-83820000D03*
%TD*%
%TO.C,D2*%
X180914000Y-81804000D03*
X179964000Y-83804000D03*
X181864000Y-83804000D03*
%TD*%
%TO.C,D1*%
X149418000Y-81804000D03*
X148468000Y-83804000D03*
X150368000Y-83804000D03*
%TD*%
M02*
