%TF.GenerationSoftware,KiCad,Pcbnew,5.1.10-88a1d61d58~90~ubuntu20.04.1*%
%TF.CreationDate,2021-09-07T19:30:16-07:00*%
%TF.ProjectId,bkc40_plate,626b6334-305f-4706-9c61-74652e6b6963,rev?*%
%TF.SameCoordinates,Original*%
%TF.FileFunction,Profile,NP*%
%FSLAX46Y46*%
G04 Gerber Fmt 4.6, Leading zero omitted, Abs format (unit mm)*
G04 Created by KiCad (PCBNEW 5.1.10-88a1d61d58~90~ubuntu20.04.1) date 2021-09-07 19:30:16*
%MOMM*%
%LPD*%
G01*
G04 APERTURE LIST*
%TA.AperFunction,Profile*%
%ADD10C,0.050000*%
%TD*%
G04 APERTURE END LIST*
D10*
X-127943750Y-2524999D02*
X-110728125Y-2524999D01*
X-128443749Y-3025000D02*
G75*
G02*
X-127943750Y-2524999I500000J1D01*
G01*
X-128443750Y-16024999D02*
X-128443750Y-3024999D01*
X-127943749Y-16525000D02*
G75*
G02*
X-128443750Y-16024999I0J500001D01*
G01*
X-127356750Y-16524999D02*
X-127943750Y-16524999D01*
X-127356750Y-17025000D02*
X-127356750Y-16524999D01*
X-126856750Y-17525000D02*
G75*
G02*
X-127356750Y-17025000I0J500000D01*
G01*
X-120856750Y-17524999D02*
X-126856750Y-17525000D01*
X-120356750Y-17025001D02*
G75*
G02*
X-120856750Y-17524999I-499999J1D01*
G01*
X-120356750Y-16524999D02*
X-120356750Y-17025000D01*
X-103480750Y-16524999D02*
X-120356750Y-16524999D01*
X-103480750Y-17025000D02*
X-103480750Y-16524999D01*
X-102980750Y-17525000D02*
G75*
G02*
X-103480750Y-17025000I0J500000D01*
G01*
X-96980750Y-17525000D02*
X-102980750Y-17525000D01*
X-96480749Y-17024999D02*
G75*
G02*
X-96980750Y-17525000I-500001J0D01*
G01*
X-96480750Y-16524999D02*
X-96480750Y-17025000D01*
X-93512500Y-16524999D02*
X-96480750Y-16524999D01*
X-93012501Y-16025000D02*
G75*
G02*
X-93512500Y-16524999I-499999J0D01*
G01*
X-93012500Y-3024999D02*
X-93012500Y-16024999D01*
X-93512500Y-2524999D02*
G75*
G02*
X-93012500Y-3024999I0J-500000D01*
G01*
X-110728125Y-2524999D02*
X-93512500Y-2524999D01*
X64149999Y-35074998D02*
G75*
G02*
X63650000Y-35574999I-500000J-1D01*
G01*
X50650000Y-35574999D02*
X63650000Y-35574999D01*
X50650000Y-35574999D02*
G75*
G02*
X50150000Y-35074999I0J500000D01*
G01*
X50150000Y-22074999D02*
X50150000Y-35074999D01*
X50150000Y-22074998D02*
G75*
G02*
X50650000Y-21575000I499999J-1D01*
G01*
X63650000Y-21575000D02*
X50650000Y-21575000D01*
X63650000Y-21574999D02*
G75*
G02*
X64150000Y-22074999I0J-500000D01*
G01*
X64150000Y-35074999D02*
X64150000Y-22074999D01*
X41600000Y-35075000D02*
X41599999Y-21074999D01*
X41600000Y-35075000D02*
G75*
G02*
X41100000Y-35575000I-500000J0D01*
G01*
X30369250Y-35575000D02*
X41100000Y-35575000D01*
X30369251Y-35575000D02*
G75*
G02*
X29869249Y-35075000I-1J500001D01*
G01*
X29869249Y-21074999D02*
X29869249Y-35075000D01*
X29869249Y-21074999D02*
G75*
G02*
X30369250Y-20575000I500000J-1D01*
G01*
X41099999Y-20575000D02*
X30369250Y-20575000D01*
X41099998Y-20575000D02*
G75*
G02*
X41599999Y-21074999I1J-500000D01*
G01*
X-106512499Y-35574999D02*
X-93512499Y-35574999D01*
X-106512499Y-35574999D02*
G75*
G02*
X-107012499Y-35074999I0J500000D01*
G01*
X-107012499Y-22074999D02*
X-107012499Y-35074999D01*
X-107012499Y-22074999D02*
G75*
G02*
X-106512499Y-21574999I500000J0D01*
G01*
X-93512499Y-21574999D02*
X-106512499Y-21574999D01*
X-93512499Y-21574999D02*
G75*
G02*
X-93012499Y-22074999I0J-500000D01*
G01*
X-93012499Y-35074999D02*
X-93012499Y-22074999D01*
X-93012500Y-35074998D02*
G75*
G02*
X-93512499Y-35574999I-500000J-1D01*
G01*
X107012500Y-35074999D02*
X107012500Y-22074999D01*
X107012499Y-35074998D02*
G75*
G02*
X106512500Y-35574999I-500000J-1D01*
G01*
X93512500Y-35574999D02*
X106512500Y-35574999D01*
X93512500Y-35574999D02*
G75*
G02*
X93012500Y-35074999I0J500000D01*
G01*
X93012500Y-22074999D02*
X93012500Y-35074999D01*
X93012499Y-22074998D02*
G75*
G02*
X93512500Y-21574999I500000J-1D01*
G01*
X106512500Y-21574999D02*
X93512500Y-21574999D01*
X106512500Y-21574999D02*
G75*
G02*
X107012500Y-22074999I0J-500000D01*
G01*
X127356750Y12050000D02*
X127943750Y12049999D01*
X127356750Y10612000D02*
X127356750Y12050000D01*
X127943750Y10612000D02*
X127356750Y10612000D01*
X127943750Y10612000D02*
G75*
G02*
X128443750Y10112000I0J-500000D01*
G01*
X128443750Y4112000D02*
X128443750Y10112000D01*
X128443750Y4112001D02*
G75*
G02*
X127943750Y3611999I-500001J-1D01*
G01*
X127356750Y3612000D02*
X127943750Y3611999D01*
X127356750Y2024999D02*
X127356750Y3612000D01*
X127356749Y2025000D02*
G75*
G02*
X126856750Y1524999I-500000J-1D01*
G01*
X120856750Y1524999D02*
X126856750Y1524999D01*
X120856751Y1525000D02*
G75*
G02*
X120356750Y2024999I-1J500000D01*
G01*
X120356750Y3612000D02*
X120356750Y2024999D01*
X118918750Y3612000D02*
X120356750Y3612000D01*
X118918750Y3024999D02*
X118918750Y3612000D01*
X118918749Y3024999D02*
G75*
G02*
X118418750Y2525000I-499999J0D01*
G01*
X103480750Y2524999D02*
X118418750Y2525000D01*
X103480750Y2024999D02*
X103480750Y2524999D01*
X103480749Y2024999D02*
G75*
G02*
X102980750Y1525000I-499999J0D01*
G01*
X96980750Y1524999D02*
X102980750Y1525000D01*
X96980751Y1525000D02*
G75*
G02*
X96480750Y2024999I-1J500000D01*
G01*
X96480750Y2524999D02*
X96480750Y2024999D01*
X93512500Y2524999D02*
X96480750Y2524999D01*
X93512501Y2525000D02*
G75*
G02*
X93012500Y3024999I-1J500000D01*
G01*
X93012500Y16024999D02*
X93012500Y3024999D01*
X93012500Y16024999D02*
G75*
G02*
X93512500Y16524999I500000J0D01*
G01*
X114443750Y16524999D02*
X93512500Y16524999D01*
X114443750Y21575000D02*
X114443750Y16524999D01*
X112562500Y21575000D02*
X114443750Y21575000D01*
X112562500Y21575000D02*
G75*
G02*
X112062500Y22075000I0J500000D01*
G01*
X112062500Y35075000D02*
X112062500Y22075000D01*
X112062500Y35075000D02*
G75*
G02*
X112562500Y35575000I500000J0D01*
G01*
X130324999Y35575000D02*
X112562500Y35575000D01*
X130324999Y35575000D02*
G75*
G02*
X130824999Y35075000I0J-500000D01*
G01*
X130824999Y22075000D02*
X130824999Y35075000D01*
X130824999Y22074998D02*
G75*
G02*
X130324999Y21575000I-499999J1D01*
G01*
X128443750Y21575000D02*
X130324999Y21575000D01*
X128443750Y12550000D02*
X128443750Y21575000D01*
X128443749Y12550000D02*
G75*
G02*
X127943750Y12049999I-500000J-1D01*
G01*
X107012500Y22075000D02*
X107012500Y35075000D01*
X107012499Y22074999D02*
G75*
G02*
X106512500Y21575000I-499999J0D01*
G01*
X88750000Y21575000D02*
X106512500Y21575000D01*
X88750000Y21575000D02*
G75*
G02*
X88250000Y22075000I0J500000D01*
G01*
X88250000Y35075000D02*
X88250000Y22075000D01*
X88249999Y35075001D02*
G75*
G02*
X88750000Y35575000I500000J-1D01*
G01*
X106512500Y35575000D02*
X88750000Y35575000D01*
X106512500Y35575000D02*
G75*
G02*
X107012500Y35075000I0J-500000D01*
G01*
X27931250Y-21575000D02*
X17787499Y-21575000D01*
X27931250Y-21575000D02*
G75*
G02*
X28431250Y-22075000I0J-500000D01*
G01*
X28431250Y-35075000D02*
X28431250Y-22075000D01*
X28431250Y-35075000D02*
G75*
G02*
X27931250Y-35575000I-500000J0D01*
G01*
X6493250Y-35575000D02*
X27931250Y-35575000D01*
X6493251Y-35574999D02*
G75*
G02*
X5993250Y-35075000I-1J500000D01*
G01*
X5993250Y-21074999D02*
X5993250Y-35075000D01*
X5993251Y-21074999D02*
G75*
G02*
X6493250Y-20575000I499999J0D01*
G01*
X17287499Y-20575000D02*
X6493250Y-20575000D01*
X17287499Y-20574999D02*
G75*
G02*
X17787499Y-21074999I0J-500000D01*
G01*
X17787499Y-21575000D02*
X17787499Y-21074999D01*
X139130924Y-39496862D02*
X135400000Y-35765937D01*
X134746862Y43880924D02*
G75*
G02*
X139130924Y39496862I2192031J-2192031D01*
G01*
X134746862Y43880924D02*
X131015937Y40150000D01*
X-134746862Y-43880924D02*
X-131015937Y-40150000D01*
X135400000Y-35765937D02*
X135400000Y35765937D01*
X-131015937Y40150000D02*
X-134746862Y43880924D01*
X-134746862Y-43880924D02*
G75*
G02*
X-139130924Y-39496862I-2192031J2192031D01*
G01*
X139130924Y-39496862D02*
G75*
G02*
X134746862Y-43880924I-2192031J-2192031D01*
G01*
X-135400000Y-35765937D02*
X-139130924Y-39496862D01*
X-63649998Y-35574999D02*
G75*
G02*
X-64149999Y-35075000I-1J500000D01*
G01*
X-64149999Y-22075000D02*
X-64149999Y-35075000D01*
X-64150000Y-22074999D02*
G75*
G02*
X-63649999Y-21575000I500000J-1D01*
G01*
X-60649999Y-21575000D02*
X-63649999Y-21575000D01*
X-60649999Y-21074999D02*
X-60649999Y-21575000D01*
X-60649999Y-21074999D02*
G75*
G02*
X-60150000Y-20575000I499999J0D01*
G01*
X-54149999Y-20575000D02*
X-60150000Y-20575000D01*
X-54149999Y-20575000D02*
G75*
G02*
X-53650000Y-21074999I0J-499999D01*
G01*
X-53649999Y-21575000D02*
X-53650000Y-21074999D01*
X-50649999Y-21575000D02*
X-53649999Y-21575000D01*
X-50649998Y-21574999D02*
G75*
G02*
X-50149999Y-22075000I-1J-500000D01*
G01*
X-50150000Y-35075000D02*
X-50149999Y-22075000D01*
X-50149999Y-35075000D02*
G75*
G02*
X-50649999Y-35575000I-500000J0D01*
G01*
X-63649999Y-35575000D02*
X-50649999Y-35575000D01*
X-11255749Y-20575000D02*
X-26812500Y-20575000D01*
X-11255749Y-20574999D02*
G75*
G02*
X-10755749Y-21074999I0J-500000D01*
G01*
X-10755749Y-21575000D02*
X-10755749Y-21074999D01*
X-3500000Y-21575000D02*
X-10755749Y-21575000D01*
X-3500000Y-21074999D02*
X-3500000Y-21575000D01*
X-3499999Y-21074999D02*
G75*
G02*
X-3000000Y-20575000I499999J0D01*
G01*
X3000000Y-20575000D02*
X-3000000Y-20575000D01*
X3000000Y-20575000D02*
G75*
G02*
X3499999Y-21074999I0J-499999D01*
G01*
X3500000Y-35075000D02*
X3499999Y-21074999D01*
X3500000Y-35075000D02*
G75*
G02*
X3000000Y-35575000I-500000J0D01*
G01*
X-44599999Y-35575000D02*
X3000000Y-35575000D01*
X-44599999Y-35575000D02*
G75*
G02*
X-45099999Y-35075000I0J500000D01*
G01*
X-45099999Y-22075000D02*
X-45099999Y-35075000D01*
X-45099999Y-22075000D02*
G75*
G02*
X-44599999Y-21575000I500000J0D01*
G01*
X-41631749Y-21575000D02*
X-44599999Y-21575000D01*
X-41631749Y-21074999D02*
X-41631749Y-21575000D01*
X-41631749Y-21075001D02*
G75*
G02*
X-41131750Y-20575000I500000J1D01*
G01*
X-35131750Y-20575000D02*
X-41131750Y-20575000D01*
X-35131750Y-20574999D02*
G75*
G02*
X-34631750Y-21074999I0J-500000D01*
G01*
X-34631750Y-21575000D02*
X-34631750Y-21074999D01*
X-27312500Y-21575000D02*
X-34631750Y-21575000D01*
X-27312500Y-21074999D02*
X-27312500Y-21575000D01*
X-27312499Y-21074999D02*
G75*
G02*
X-26812500Y-20575000I499999J0D01*
G01*
X131015937Y-40150000D02*
X134746862Y-43880924D01*
X-139130924Y39496862D02*
G75*
G02*
X-134746862Y43880924I2192031J2192031D01*
G01*
X135400000Y35765937D02*
X139130924Y39496862D01*
X-131015937Y-40150000D02*
X131015937Y-40150000D01*
X131015937Y40150000D02*
X-131015937Y40150000D01*
X-135400000Y35765937D02*
X-135400000Y-35765937D01*
X-31600000Y35575000D02*
X-44599999Y35575000D01*
X-31600000Y35575000D02*
G75*
G02*
X-31100000Y35075000I0J-500000D01*
G01*
X-31099999Y22075000D02*
X-31100000Y35075000D01*
X-31099999Y22074999D02*
G75*
G02*
X-31600000Y21575000I-500000J1D01*
G01*
X-44599999Y21575000D02*
X-31600000Y21575000D01*
X-44599999Y21575000D02*
G75*
G02*
X-45099999Y22075000I0J500000D01*
G01*
X-45099999Y35075000D02*
X-45099999Y22075000D01*
X-45100000Y35075001D02*
G75*
G02*
X-44599999Y35575000I500000J-1D01*
G01*
X12550000Y21575000D02*
G75*
G02*
X12050000Y22075000I0J500000D01*
G01*
X25550000Y21575000D02*
X12550000Y21575000D01*
X26050000Y22075000D02*
G75*
G02*
X25550000Y21575000I-500000J0D01*
G01*
X26050000Y35075000D02*
X26050000Y22075000D01*
X25549999Y35575001D02*
G75*
G02*
X26050000Y35075000I0J-500001D01*
G01*
X12550000Y35575000D02*
X25550000Y35575000D01*
X12049999Y35075001D02*
G75*
G02*
X12550000Y35575000I500000J-1D01*
G01*
X12050000Y22075000D02*
X12050000Y35075000D01*
X-139130924Y39496862D02*
X-135400000Y35765937D01*
X-83200000Y22075000D02*
X-83199999Y35075000D01*
X-82699999Y21574999D02*
G75*
G02*
X-83200000Y22075000I0J500001D01*
G01*
X-69699999Y21575000D02*
X-82699999Y21575000D01*
X-69199999Y22075000D02*
G75*
G02*
X-69699999Y21575000I-500000J0D01*
G01*
X-69199999Y35075000D02*
X-69199999Y22075000D01*
X-69700000Y35575001D02*
G75*
G02*
X-69199999Y35075000I0J-500001D01*
G01*
X-82699999Y35575000D02*
X-69699999Y35575000D01*
X-83199999Y35075000D02*
G75*
G02*
X-82699999Y35575000I500000J0D01*
G01*
X64937500Y-16524999D02*
X77937500Y-16524999D01*
X64937500Y-16524999D02*
G75*
G02*
X64437500Y-16024999I0J500000D01*
G01*
X64437500Y-3024999D02*
X64437500Y-16024999D01*
X64437500Y-3024999D02*
G75*
G02*
X64937500Y-2524999I500000J0D01*
G01*
X77937500Y-2524999D02*
X64937500Y-2524999D01*
X77937500Y-2524999D02*
G75*
G02*
X78437500Y-3024999I0J-500000D01*
G01*
X78437500Y-16024999D02*
X78437500Y-3024999D01*
X78437500Y-16024999D02*
G75*
G02*
X77937500Y-16524999I-500000J0D01*
G01*
X-25550000Y21575000D02*
G75*
G02*
X-26050000Y22075000I0J500000D01*
G01*
X-26050000Y35075000D02*
X-26050000Y22075000D01*
X-26050000Y35075000D02*
G75*
G02*
X-25550000Y35575000I500000J0D01*
G01*
X-12550000Y35575000D02*
X-25550000Y35575000D01*
X-12550000Y35575000D02*
G75*
G02*
X-12050000Y35075000I0J-500000D01*
G01*
X-12050000Y22075000D02*
X-12050000Y35075000D01*
X-12050000Y22075000D02*
G75*
G02*
X-12550000Y21575000I-500000J0D01*
G01*
X-25550000Y21575000D02*
X-12550000Y21575000D01*
X20787499Y-2524998D02*
G75*
G02*
X21287500Y-3024999I0J-500001D01*
G01*
X21287500Y-16024999D02*
X21287500Y-3024999D01*
X21287500Y-16025000D02*
G75*
G02*
X20787499Y-16524999I-500000J1D01*
G01*
X7787499Y-16524999D02*
X20787499Y-16524999D01*
X7787499Y-16524999D02*
G75*
G02*
X7287499Y-16024999I0J500000D01*
G01*
X7287499Y-3024999D02*
X7287499Y-16024999D01*
X7287499Y-3024999D02*
G75*
G02*
X7787499Y-2524999I500000J0D01*
G01*
X20787499Y-2524999D02*
X7787499Y-2524999D01*
X6999999Y22075000D02*
X7000000Y35075000D01*
X7000000Y22074999D02*
G75*
G02*
X6499999Y21575000I-500000J1D01*
G01*
X-6499999Y21575000D02*
X6499999Y21575000D01*
X-6500000Y21575000D02*
G75*
G02*
X-7000000Y22075000I0J500000D01*
G01*
X-7000000Y35075000D02*
X-7000000Y22075000D01*
X-7000000Y35075000D02*
G75*
G02*
X-6500000Y35575000I500000J0D01*
G01*
X6499999Y35575000D02*
X-6500000Y35575000D01*
X6499999Y35575001D02*
G75*
G02*
X7000000Y35075000I0J-500001D01*
G01*
X-50150000Y22074999D02*
G75*
G02*
X-50649999Y21575000I-499999J0D01*
G01*
X-63649999Y21575000D02*
X-50649999Y21575000D01*
X-63649999Y21575000D02*
G75*
G02*
X-64149999Y22075000I0J500000D01*
G01*
X-64149999Y35075000D02*
X-64149999Y22075000D01*
X-64149999Y35075000D02*
G75*
G02*
X-63649999Y35575000I500000J0D01*
G01*
X-50649999Y35575000D02*
X-63649999Y35575000D01*
X-50650000Y35575000D02*
G75*
G02*
X-50150000Y35075000I0J-500000D01*
G01*
X-50150000Y22075000D02*
X-50150000Y35075000D01*
X-88749999Y35574999D02*
G75*
G02*
X-88250000Y35075000I0J-499999D01*
G01*
X-101750000Y35575000D02*
X-88750000Y35575000D01*
X-102250000Y35075000D02*
G75*
G02*
X-101750000Y35575000I500000J0D01*
G01*
X-102250000Y22075000D02*
X-102250000Y35075000D01*
X-101750001Y21574999D02*
G75*
G02*
X-102250000Y22075000I1J500000D01*
G01*
X-88750000Y21575000D02*
X-101750000Y21575000D01*
X-88250000Y22075000D02*
G75*
G02*
X-88750000Y21575000I-500000J0D01*
G01*
X-88250000Y35075000D02*
X-88250000Y22075000D01*
X59387500Y-3024999D02*
X59387500Y-16024999D01*
X58887500Y-2524999D02*
G75*
G02*
X59387500Y-3024999I0J-500000D01*
G01*
X45887500Y-2524999D02*
X58887500Y-2524999D01*
X45387499Y-3024998D02*
G75*
G02*
X45887500Y-2524999I500000J-1D01*
G01*
X45387500Y-16024999D02*
X45387500Y-3024999D01*
X45887500Y-16524999D02*
G75*
G02*
X45387500Y-16024999I0J500000D01*
G01*
X58887500Y-16524999D02*
X45887499Y-16524999D01*
X59387500Y-16024999D02*
G75*
G02*
X58887500Y-16524999I-500000J0D01*
G01*
X97487500Y-16024999D02*
X97487500Y-3024999D01*
X97487500Y-16024999D02*
G75*
G02*
X96987500Y-16524999I-500000J0D01*
G01*
X83987500Y-16524999D02*
X96987500Y-16524999D01*
X83987500Y-16524999D02*
G75*
G02*
X83487500Y-16024999I0J500000D01*
G01*
X83487500Y-3024999D02*
X83487500Y-16024999D01*
X83487500Y-3024999D02*
G75*
G02*
X83987500Y-2524999I500000J0D01*
G01*
X96987500Y-2524999D02*
X83987500Y-2524999D01*
X96987500Y-2524999D02*
G75*
G02*
X97487500Y-3024999I0J-500000D01*
G01*
X39837500Y-16524999D02*
X26837500Y-16524999D01*
X40337500Y-16024999D02*
G75*
G02*
X39837500Y-16524999I-500000J0D01*
G01*
X40337500Y-3024999D02*
X40337500Y-16024999D01*
X39837500Y-2524999D02*
G75*
G02*
X40337500Y-3024999I0J-500000D01*
G01*
X26837500Y-2524999D02*
X39837500Y-2524999D01*
X26337500Y-3024999D02*
G75*
G02*
X26837500Y-2524999I500000J0D01*
G01*
X26337500Y-16024999D02*
X26337500Y-3024999D01*
X26837500Y-16524999D02*
G75*
G02*
X26337500Y-16024999I0J500000D01*
G01*
X-114443750Y-35074999D02*
G75*
G02*
X-114943750Y-35574999I-500000J0D01*
G01*
X-127943750Y-35575000D02*
X-114943750Y-35574999D01*
X-127943750Y-35575001D02*
G75*
G02*
X-128443750Y-35074999I1J500001D01*
G01*
X-128443750Y-22074999D02*
X-128443750Y-35074999D01*
X-128443749Y-22075000D02*
G75*
G02*
X-127943750Y-21574999I500000J1D01*
G01*
X-114943750Y-21574999D02*
X-127943750Y-21574999D01*
X-114943750Y-21574999D02*
G75*
G02*
X-114443750Y-22074999I0J-500000D01*
G01*
X-114443750Y-35074999D02*
X-114443750Y-22074999D01*
X-49862499Y-3025000D02*
G75*
G02*
X-49362500Y-2524999I500000J1D01*
G01*
X-49862500Y-16024999D02*
X-49862500Y-3024999D01*
X-49362500Y-16524999D02*
G75*
G02*
X-49862500Y-16024999I0J500000D01*
G01*
X-36362500Y-16524999D02*
X-49362500Y-16524999D01*
X-35862500Y-16024999D02*
G75*
G02*
X-36362500Y-16524999I-500000J0D01*
G01*
X-35862500Y-3024999D02*
X-35862500Y-16024999D01*
X-36362499Y-2525000D02*
G75*
G02*
X-35862500Y-3024999I0J-499999D01*
G01*
X-49362500Y-2524999D02*
X-36362500Y-2524999D01*
X1737500Y-16524999D02*
X-11262499Y-16524999D01*
X2237500Y-16024999D02*
G75*
G02*
X1737500Y-16524999I-500000J0D01*
G01*
X2237500Y-3024999D02*
X2237500Y-16024999D01*
X1737500Y-2524999D02*
G75*
G02*
X2237500Y-3024999I0J-500000D01*
G01*
X-11262499Y-2524999D02*
X1737500Y-2524999D01*
X-11762500Y-3024998D02*
G75*
G02*
X-11262499Y-2524999I500000J-1D01*
G01*
X-11762499Y-16024999D02*
X-11762499Y-3024999D01*
X-11262499Y-16524999D02*
G75*
G02*
X-11762499Y-16024999I0J500000D01*
G01*
X-30812500Y-3024999D02*
G75*
G02*
X-30312500Y-2524999I500000J0D01*
G01*
X-17312500Y-2524999D02*
X-30312500Y-2524999D01*
X-17312500Y-2524999D02*
G75*
G02*
X-16812500Y-3024999I0J-500000D01*
G01*
X-16812500Y-16024999D02*
X-16812500Y-3024999D01*
X-16812500Y-16024999D02*
G75*
G02*
X-17312500Y-16524999I-500000J0D01*
G01*
X-30312500Y-16524999D02*
X-17312500Y-16524999D01*
X-30312500Y-16524999D02*
G75*
G02*
X-30812500Y-16024999I0J500000D01*
G01*
X-30812500Y-3024999D02*
X-30812500Y-16024999D01*
X87962500Y3025000D02*
X87962500Y16025000D01*
X87962499Y3025001D02*
G75*
G02*
X87462500Y2525000I-500000J-1D01*
G01*
X74462500Y2525000D02*
X87462500Y2525000D01*
X74462500Y2525000D02*
G75*
G02*
X73962500Y3025000I0J500000D01*
G01*
X73962500Y16025000D02*
X73962500Y3025000D01*
X73962499Y16025001D02*
G75*
G02*
X74462500Y16525000I500000J-1D01*
G01*
X87462500Y16525000D02*
X74462500Y16525000D01*
X87462499Y16525001D02*
G75*
G02*
X87962500Y16025000I0J-500001D01*
G01*
X-72081251Y-21575000D02*
G75*
G02*
X-71581250Y-22074999I1J-500000D01*
G01*
X-71581250Y-35074999D02*
X-71581250Y-22074999D01*
X-71581250Y-35074998D02*
G75*
G02*
X-72081249Y-35574999I-500000J-1D01*
G01*
X-85081249Y-35574999D02*
X-72081249Y-35574999D01*
X-85081250Y-35574999D02*
G75*
G02*
X-85581250Y-35074999I0J500000D01*
G01*
X-85581249Y-22074999D02*
X-85581250Y-35074999D01*
X-85581249Y-22075000D02*
G75*
G02*
X-85081249Y-21575000I500000J0D01*
G01*
X-72081249Y-21574999D02*
X-85081249Y-21575000D01*
X123181249Y-2524998D02*
G75*
G02*
X123681250Y-3024999I0J-500001D01*
G01*
X123681250Y-16024999D02*
X123681250Y-3024999D01*
X123681249Y-16024998D02*
G75*
G02*
X123181250Y-16524999I-500000J-1D01*
G01*
X110181250Y-16524999D02*
X123181250Y-16524999D01*
X110181249Y-16524998D02*
G75*
G02*
X109681250Y-16024999I0J499999D01*
G01*
X109681250Y-3024999D02*
X109681250Y-16024999D01*
X109681249Y-3024998D02*
G75*
G02*
X110181250Y-2524999I500000J-1D01*
G01*
X123181250Y-2524999D02*
X110181250Y-2524999D01*
X44599999Y35575000D02*
G75*
G02*
X45099999Y35075000I0J-500000D01*
G01*
X45099999Y22075000D02*
X45099999Y35075000D01*
X45099999Y22075000D02*
G75*
G02*
X44599999Y21575000I-500000J0D01*
G01*
X31600000Y21575000D02*
X44599999Y21575000D01*
X31600000Y21575000D02*
G75*
G02*
X31100000Y22075000I0J500000D01*
G01*
X31099999Y35075000D02*
X31100000Y22075000D01*
X31100000Y35075000D02*
G75*
G02*
X31600000Y35575000I500000J0D01*
G01*
X44599999Y35575000D02*
X31600000Y35575000D01*
X16812500Y16025000D02*
G75*
G02*
X17312500Y16525000I500000J0D01*
G01*
X30312500Y16524999D02*
X17312500Y16525000D01*
X30312499Y16524999D02*
G75*
G02*
X30812500Y16025000I1J-500000D01*
G01*
X30812500Y3025000D02*
X30812500Y16025000D01*
X30812500Y3025000D02*
G75*
G02*
X30312500Y2525000I-500000J0D01*
G01*
X17312500Y2525000D02*
X30312500Y2525000D01*
X17312500Y2525000D02*
G75*
G02*
X16812500Y3025000I0J500000D01*
G01*
X16812500Y16025000D02*
X16812500Y3025000D01*
X69700000Y21575000D02*
G75*
G02*
X69200000Y22075000I0J500000D01*
G01*
X69200000Y35075000D02*
X69200000Y22075000D01*
X69200000Y35075000D02*
G75*
G02*
X69700000Y35575000I500000J0D01*
G01*
X82700000Y35575000D02*
X69700000Y35575000D01*
X82699999Y35575001D02*
G75*
G02*
X83200000Y35075000I0J-500001D01*
G01*
X83200000Y22075000D02*
X83200000Y35075000D01*
X83199999Y22075001D02*
G75*
G02*
X82700000Y21575000I-500000J-1D01*
G01*
X69700000Y21575000D02*
X82700000Y21575000D01*
X-64937499Y16525000D02*
G75*
G02*
X-64437500Y16024999I-1J-500000D01*
G01*
X-77937500Y16524999D02*
X-64937500Y16525000D01*
X-78437499Y16024998D02*
G75*
G02*
X-77937500Y16524999I500000J1D01*
G01*
X-78437500Y3025000D02*
X-78437500Y16024999D01*
X-77937500Y2525000D02*
G75*
G02*
X-78437500Y3025000I0J500000D01*
G01*
X-64937500Y2525000D02*
X-77937500Y2525000D01*
X-64437500Y3024998D02*
G75*
G02*
X-64937500Y2525000I-499999J1D01*
G01*
X-64437500Y16024999D02*
X-64437500Y3025000D01*
X-97487500Y16024999D02*
X-97487500Y3025000D01*
X-97487500Y16024999D02*
G75*
G02*
X-96987500Y16524999I500000J0D01*
G01*
X-83987499Y16524999D02*
X-96987500Y16524999D01*
X-83987500Y16524999D02*
G75*
G02*
X-83487500Y16024999I0J-500000D01*
G01*
X-83487500Y3025000D02*
X-83487500Y16024999D01*
X-83487501Y3025000D02*
G75*
G02*
X-83987499Y2525000I-499999J-1D01*
G01*
X-96987500Y2525000D02*
X-83987499Y2525000D01*
X-96987500Y2525000D02*
G75*
G02*
X-97487500Y3025000I0J500000D01*
G01*
X-20787499Y2524999D02*
G75*
G02*
X-21287500Y3025000I0J500001D01*
G01*
X-7787499Y2525000D02*
X-20787499Y2525000D01*
X-7287499Y3025000D02*
G75*
G02*
X-7787499Y2525000I-500000J0D01*
G01*
X-7287499Y16025000D02*
X-7287499Y3025000D01*
X-7787499Y16525000D02*
G75*
G02*
X-7287499Y16025000I0J-500000D01*
G01*
X-20787499Y16525000D02*
X-7787499Y16525000D01*
X-21287500Y16025001D02*
G75*
G02*
X-20787499Y16525000I500000J-1D01*
G01*
X-21287500Y3025000D02*
X-21287500Y16025000D01*
X-26837499Y16525000D02*
G75*
G02*
X-26337499Y16025000I0J-500000D01*
G01*
X-39837499Y16524999D02*
X-26837499Y16525000D01*
X-40337499Y16025001D02*
G75*
G02*
X-39837499Y16524999I499999J-1D01*
G01*
X-40337499Y3025000D02*
X-40337499Y16024999D01*
X-39837500Y2525001D02*
G75*
G02*
X-40337499Y3025000I0J499999D01*
G01*
X-26837500Y2525000D02*
X-39837499Y2525000D01*
X-26337500Y3025000D02*
G75*
G02*
X-26837500Y2525000I-500000J0D01*
G01*
X-26337499Y16025000D02*
X-26337500Y3025000D01*
X68412500Y2525000D02*
X55412499Y2525000D01*
X68912499Y3025001D02*
G75*
G02*
X68412500Y2525000I-500000J-1D01*
G01*
X68912500Y16025000D02*
X68912500Y3025000D01*
X68412500Y16525000D02*
G75*
G02*
X68912500Y16025000I0J-500000D01*
G01*
X55412499Y16525000D02*
X68412500Y16525000D01*
X54912499Y16025000D02*
G75*
G02*
X55412499Y16525000I500000J0D01*
G01*
X54912500Y3025000D02*
X54912500Y16025000D01*
X55412500Y2525000D02*
G75*
G02*
X54912500Y3025000I0J500000D01*
G01*
X-125562500Y35575000D02*
X-112562500Y35575000D01*
X-126062500Y35074998D02*
G75*
G02*
X-125562500Y35575000I500001J1D01*
G01*
X-126062500Y22075000D02*
X-126062500Y35075000D01*
X-125562499Y21574999D02*
G75*
G02*
X-126062500Y22075000I0J500001D01*
G01*
X-112562500Y21575000D02*
X-125562500Y21575000D01*
X-112062499Y22074999D02*
G75*
G02*
X-112562500Y21575000I-500000J1D01*
G01*
X-112062500Y35075000D02*
X-112062500Y22075000D01*
X-112562499Y35574999D02*
G75*
G02*
X-112062500Y35075000I0J-499999D01*
G01*
X-59387499Y3025000D02*
X-59387499Y16024999D01*
X-58887499Y2525000D02*
G75*
G02*
X-59387499Y3025000I0J500000D01*
G01*
X-45887499Y2525000D02*
X-58887499Y2525000D01*
X-45387499Y3025000D02*
G75*
G02*
X-45887499Y2525000I-500000J0D01*
G01*
X-45387500Y16024999D02*
X-45387500Y3025000D01*
X-45887499Y16525000D02*
G75*
G02*
X-45387500Y16024999I-1J-500000D01*
G01*
X-58887499Y16524999D02*
X-45887499Y16525000D01*
X-59387499Y16024999D02*
G75*
G02*
X-58887499Y16524999I500000J0D01*
G01*
X139038893Y-41688893D02*
G75*
G03*
X139038893Y-41688893I-2100000J0D01*
G01*
X85581250Y-35074999D02*
X85581250Y-22074999D01*
X85581250Y-35074999D02*
G75*
G02*
X85081250Y-35574999I-500000J0D01*
G01*
X72081250Y-35574999D02*
X85081250Y-35574999D01*
X72081250Y-35574999D02*
G75*
G02*
X71581250Y-35074999I0J500000D01*
G01*
X71581250Y-22074999D02*
X71581250Y-35074999D01*
X71581249Y-22074998D02*
G75*
G02*
X72081250Y-21574999I500000J-1D01*
G01*
X85081250Y-21574999D02*
X72081250Y-21574999D01*
X85081250Y-21574999D02*
G75*
G02*
X85581250Y-22074999I0J-500000D01*
G01*
X139038893Y41688893D02*
G75*
G03*
X139038893Y41688893I-2100000J0D01*
G01*
X36362500Y2525000D02*
G75*
G02*
X35862500Y3025000I0J500000D01*
G01*
X49362500Y2525000D02*
X36362500Y2525000D01*
X49862500Y3025000D02*
G75*
G02*
X49362500Y2525000I-500000J0D01*
G01*
X49862500Y16025000D02*
X49862500Y3025000D01*
X49362500Y16525000D02*
G75*
G02*
X49862500Y16025000I0J-500000D01*
G01*
X36362500Y16525000D02*
X49362500Y16525000D01*
X35862500Y16025000D02*
G75*
G02*
X36362500Y16525000I500000J0D01*
G01*
X35862500Y3025000D02*
X35862500Y16025000D01*
X-134838893Y41688893D02*
G75*
G03*
X-134838893Y41688893I-2100000J0D01*
G01*
X11262500Y2525000D02*
X-1737499Y2525000D01*
X11762500Y3025000D02*
G75*
G02*
X11262500Y2525000I-500000J0D01*
G01*
X11762500Y16025000D02*
X11762500Y3025000D01*
X11262500Y16525000D02*
G75*
G02*
X11762500Y16025000I0J-500000D01*
G01*
X-1737499Y16525000D02*
X11262500Y16525000D01*
X-2237499Y16025000D02*
G75*
G02*
X-1737499Y16525000I500000J0D01*
G01*
X-2237499Y3025000D02*
X-2237499Y16025000D01*
X-1737499Y2525000D02*
G75*
G02*
X-2237499Y3025000I0J500000D01*
G01*
X-73962499Y-16024999D02*
G75*
G02*
X-74462499Y-16524999I-500000J0D01*
G01*
X-73962499Y-3024999D02*
X-73962499Y-16024999D01*
X-74462499Y-2524999D02*
G75*
G02*
X-73962499Y-3024999I0J-500000D01*
G01*
X-87462499Y-2524999D02*
X-74462499Y-2524999D01*
X-87962499Y-3024999D02*
G75*
G02*
X-87462499Y-2524999I500000J0D01*
G01*
X-87962499Y-16024999D02*
X-87962499Y-3024999D01*
X-87462499Y-16524999D02*
G75*
G02*
X-87962499Y-16024999I0J500000D01*
G01*
X-74462499Y-16524999D02*
X-87462499Y-16524999D01*
X50650000Y35575000D02*
X63650000Y35575000D01*
X50149999Y35075001D02*
G75*
G02*
X50650000Y35575000I500000J-1D01*
G01*
X50150000Y22075000D02*
X50150000Y35075000D01*
X50650000Y21575000D02*
G75*
G02*
X50150000Y22075000I0J500000D01*
G01*
X63650000Y21575000D02*
X50650000Y21575000D01*
X64150000Y22075000D02*
G75*
G02*
X63650000Y21575000I-500000J0D01*
G01*
X64150000Y35075000D02*
X64150000Y22075000D01*
X63649999Y35575001D02*
G75*
G02*
X64150000Y35075000I0J-500001D01*
G01*
X-54912500Y-3024999D02*
X-54912500Y-16024999D01*
X-55412499Y-2525000D02*
G75*
G02*
X-54912500Y-3024999I0J-499999D01*
G01*
X-68412500Y-2524999D02*
X-55412499Y-2524999D01*
X-68912499Y-3025000D02*
G75*
G02*
X-68412500Y-2524999I500000J1D01*
G01*
X-68912500Y-16024999D02*
X-68912500Y-3024999D01*
X-68412500Y-16524999D02*
G75*
G02*
X-68912500Y-16024999I0J500000D01*
G01*
X-55412499Y-16524999D02*
X-68412500Y-16524999D01*
X-54912500Y-16025000D02*
G75*
G02*
X-55412499Y-16524999I-499999J0D01*
G01*
X-123181250Y16524999D02*
X-110181250Y16524999D01*
X-123681249Y16024998D02*
G75*
G02*
X-123181250Y16524999I500000J1D01*
G01*
X-123681250Y3025000D02*
X-123681250Y16024999D01*
X-123181251Y2524999D02*
G75*
G02*
X-123681250Y3025000I1J500000D01*
G01*
X-110181250Y2525000D02*
X-123181250Y2525000D01*
X-109681250Y3024998D02*
G75*
G02*
X-110181250Y2525000I-499999J1D01*
G01*
X-109681250Y16024999D02*
X-109681250Y3025000D01*
X-110181248Y16524999D02*
G75*
G02*
X-109681250Y16024999I-1J-499999D01*
G01*
X-134838893Y-41688893D02*
G75*
G03*
X-134838893Y-41688893I-2100000J0D01*
G01*
X114943750Y-35574999D02*
G75*
G02*
X114443750Y-35074999I0J500000D01*
G01*
X127943750Y-35574999D02*
X114943750Y-35574999D01*
X128443748Y-35074999D02*
G75*
G02*
X127943750Y-35574999I-499999J-1D01*
G01*
X128443750Y-22074999D02*
X128443749Y-35074999D01*
X127943749Y-21574998D02*
G75*
G02*
X128443750Y-22074999I0J-500001D01*
G01*
X114943750Y-21574999D02*
X127943750Y-21574999D01*
X114443749Y-22074998D02*
G75*
G02*
X114943750Y-21574999I500000J-1D01*
G01*
X114443750Y-35074999D02*
X114443750Y-22074999D01*
M02*
